SplineFontDB: 3.0
FontName: Shabnam-Bold
FullName: Shabnam Bold
FamilyName: Shabnam
Weight: Bold
Copyright: Copyright (c) 2003 by Bitstream, Inc. All Rights Reserved.\nDejaVu changes are in public domain\nCopyright (c) 2015 by Saber Rastikerdar. All Rights Reserved.
Version: 0.2
ItalicAngle: 0
UnderlinePosition: -100
UnderlineWidth: 100
Ascent: 1536
Descent: 512
LayerCount: 2
Layer: 0 1 "Back"  1
Layer: 1 1 "Fore"  0
XUID: [1021 502 1027637223 5555850]
UniqueID: 4035638
UseUniqueID: 1
FSType: 0
OS2Version: 1
OS2_WeightWidthSlopeOnly: 0
OS2_UseTypoMetrics: 1
CreationTime: 1431850356
ModificationTime: 1447275548
PfmFamily: 33
TTFWeight: 700
TTFWidth: 5
LineGap: 0
VLineGap: 0
Panose: 2 11 6 3 3 8 4 2 2 4
OS2TypoAscent: 2250
OS2TypoAOffset: 0
OS2TypoDescent: -750
OS2TypoDOffset: 0
OS2TypoLinegap: 0
OS2WinAscent: 2250
OS2WinAOffset: 0
OS2WinDescent: 750
OS2WinDOffset: 0
HheadAscent: 2250
HheadAOffset: 0
HheadDescent: -750
HheadDOffset: 0
OS2SubXSize: 1331
OS2SubYSize: 1433
OS2SubXOff: 0
OS2SubYOff: 286
OS2SupXSize: 1331
OS2SupYSize: 1433
OS2SupXOff: 0
OS2SupYOff: 983
OS2StrikeYSize: 102
OS2StrikeYPos: 530
OS2Vendor: 'PfEd'
OS2CodePages: 600001ff.dfff0000
Lookup: 1 0 0 "'case' Case-Sensitive Forms in Latin lookup 0"  {"'case' Case-Sensitive Forms in Latin lookup 0 subtable"  } ['case' ('DFLT' <'dflt' > 'latn' <'CAT ' 'ESP ' 'GAL ' 'dflt' > ) ]
Lookup: 6 1 0 "'ccmp' Glyph Composition/Decomposition lookup 2"  {"'ccmp' Glyph Composition/Decomposition lookup 2 subtable"  } ['ccmp' ('arab' <'KUR ' 'SND ' 'URD ' 'dflt' > 'hebr' <'dflt' > 'nko ' <'dflt' > ) ]
Lookup: 6 0 0 "'ccmp' Glyph Composition/Decomposition lookup 3"  {"'ccmp' Glyph Composition/Decomposition lookup 3 subtable"  } ['ccmp' ('cyrl' <'MKD ' 'SRB ' 'dflt' > 'grek' <'dflt' > 'latn' <'ISM ' 'KSM ' 'LSM ' 'MOL ' 'NSM ' 'ROM ' 'SKS ' 'SSM ' 'dflt' > ) ]

StartChar: exclam
Encoding: 33 33 1
Width: 877
GlyphClass: 2
Flags: W
LayerCount: 2
Fore
SplineSet
269.78 1403.42 m 1,0,-1
 608.18 1403.42 l 1,1,-1
 608.18 864.8 l 1,2,-1
 560.24 471.88 l 1,3,-1
 317.72 471.88 l 1,4,-1
 269.78 864.8 l 1,5,-1
 269.78 1403.42 l 1,0,-1
269.78 334.64 m 1,6,-1
 608.18 334.64 l 1,7,-1
 608.18 1.46484e-05 l 1,8,-1
 269.78 1.46484e-05 l 1,9,-1
 269.78 334.64 l 1,6,-1
EndSplineSet
EndChar

StartChar: quotedbl
Encoding: 34 34 2
Width: 1002
GlyphClass: 2
Flags: W
LayerCount: 2
Fore
SplineSet
819.68 1403.42 m 1,0,-1
 819.68 881.72 l 1,1,-1
 596.9 881.72 l 1,2,-1
 596.9 1403.42 l 1,3,-1
 819.68 1403.42 l 1,0,-1
406.08 1403.42 m 1,4,-1
 406.08 881.72 l 1,5,-1
 183.3 881.72 l 1,6,-1
 183.3 1403.42 l 1,7,-1
 406.08 1403.42 l 1,4,-1
EndSplineSet
EndChar

StartChar: numbersign
Encoding: 35 35 3
Width: 1613
GlyphClass: 2
Flags: W
LayerCount: 2
Fore
SplineSet
856.34 1381.8 m 1,0,-1
 766.1 1019.9 l 1,1,-1
 1014.26 1019.9 l 1,2,-1
 1105.44 1381.8 l 1,3,-1
 1313.18 1381.8 l 1,4,-1
 1222 1019.9 l 1,5,-1
 1482.38 1019.9 l 1,6,-1
 1482.38 819.68 l 1,7,-1
 1172.18 819.68 l 1,8,-1
 1107.32 562.12 l 1,9,-1
 1374.28 562.12 l 1,10,-1
 1374.28 360.02 l 1,11,-1
 1058.44 360.02 l 1,12,-1
 968.2 5.00488e-05 l 1,13,-1
 760.46 5.00488e-05 l 1,14,-1
 850.7 360.02 l 1,15,-1
 602.54 360.02 l 1,16,-1
 512.3 5.00488e-05 l 1,17,-1
 302.68 5.00488e-05 l 1,18,-1
 392.92 360.02 l 1,19,-1
 130.66 360.02 l 1,20,-1
 130.66 562.12 l 1,21,-1
 438.98 562.12 l 1,22,-1
 504.78 819.68 l 1,23,-1
 238.76 819.68 l 1,24,-1
 238.76 1019.9 l 1,25,-1
 556.48 1019.9 l 1,26,-1
 646.72 1381.8 l 1,27,-1
 856.34 1381.8 l 1,0,-1
962.56 819.68 m 1,28,-1
 714.4 819.68 l 1,29,-1
 648.6 562.12 l 1,30,-1
 896.76 562.12 l 1,31,-1
 962.56 819.68 l 1,28,-1
EndSplineSet
EndChar

StartChar: dollar
Encoding: 36 36 4
Width: 1339
GlyphClass: 2
Flags: W
LayerCount: 2
Fore
SplineSet
747.3 -282.94 m 1,0,-1
 595.02 -282.94 l 1,1,-1
 594.08 -2.44141e-06 l 1,2,3
 476.58 4.7002 476.58 4.7002 366.6 26.3203 c 128,-1,4
 256.62 47.9404 256.62 47.9404 152.28 86.4805 c 1,5,-1
 152.28 332.76 l 1,6,7
 260.38 277.301 260.38 277.301 370.83 247.69 c 128,-1,8
 481.28 218.08 481.28 218.08 595.02 214.32 c 1,9,-1
 595.02 506.66 l 1,10,-1
 564 512.3 l 1,11,12
 339.34 551.78 339.34 551.78 244.87 636.38 c 128,-1,13
 150.4 720.982 150.4 720.982 150.4 879.841 c 0,14,15
 150.4 1048.1 150.4 1048.1 265.55 1142.57 c 128,-1,16
 380.7 1237.04 380.7 1237.04 594.08 1245.5 c 1,17,-1
 595.02 1462.64 l 1,18,-1
 747.3 1462.64 l 1,19,-1
 747.3 1249.26 l 1,20,21
 841.3 1241.74 841.3 1241.74 935.3 1225.76 c 128,-1,22
 1029.3 1209.78 1029.3 1209.78 1124.24 1184.4 c 1,23,-1
 1124.24 945.642 l 1,24,25
 1030.24 985.122 1030.24 985.122 936.24 1007.21 c 128,-1,26
 842.24 1029.3 842.24 1029.3 747.3 1034 c 1,27,-1
 747.3 764.221 l 1,28,-1
 777.38 758.581 l 1,29,30
 1016.14 720.982 1016.14 720.982 1112.49 633.091 c 128,-1,31
 1208.84 545.201 1208.84 545.201 1208.84 373.181 c 0,32,33
 1208.84 200.221 1208.84 200.221 1094.16 107.631 c 128,-1,34
 979.48 15.0411 979.48 15.0411 747.3 1.88148 c 1,35,-1
 747.3 -282.94 l 1,0,-1
595.02 785.84 m 1,36,-1
 595.02 1031.18 l 1,37,38
 528.28 1027.42 528.28 1027.42 488.33 994.99 c 128,-1,39
 448.38 962.56 448.38 962.56 448.38 912.74 c 0,40,41
 448.38 857.28 448.38 857.28 485.04 825.79 c 128,-1,42
 521.7 794.3 521.7 794.3 595.02 785.84 c 1,36,-1
747.3 479.4 m 1,43,-1
 747.3 218.08 l 1,44,45
 829.08 219.02 829.08 219.02 869.97 250.04 c 128,-1,46
 910.86 281.06 910.86 281.06 910.86 343.1 c 0,47,48
 910.86 407.02 910.86 407.02 873.26 438.51 c 128,-1,49
 835.66 470 835.66 470 747.3 479.4 c 1,43,-1
EndSplineSet
EndChar

StartChar: percent
Encoding: 37 37 5
Width: 1928
GlyphClass: 2
Flags: W
LayerCount: 2
Fore
SplineSet
1491.78 579.04 m 128,-1,1
 1425.04 579.04 1425.04 579.04 1388.38 521.23 c 128,-1,2
 1351.72 463.42 1351.72 463.42 1351.72 356.26 c 0,3,4
 1351.72 248.16 1351.72 248.16 1387.91 190.35 c 128,-1,5
 1424.1 132.54 1424.1 132.54 1491.78 132.54 c 128,-1,6
 1559.46 132.54 1559.46 132.54 1595.18 190.35 c 128,-1,7
 1630.9 248.16 1630.9 248.16 1630.9 356.26 c 0,8,9
 1630.9 463.42 1630.9 463.42 1594.71 521.23 c 128,-1,0
 1558.52 579.04 1558.52 579.04 1491.78 579.04 c 128,-1,1
1491.78 736.96 m 128,-1,11
 1666.62 736.96 1666.62 736.96 1767.2 635.44 c 128,-1,12
 1867.78 533.92 1867.78 533.92 1867.78 356.26 c 128,-1,13
 1867.78 178.6 1867.78 178.6 1767.2 75.67 c 128,-1,14
 1666.62 -27.26 1666.62 -27.26 1491.78 -27.26 c 128,-1,15
 1316.94 -27.26 1316.94 -27.26 1215.89 75.67 c 128,-1,16
 1114.84 178.6 1114.84 178.6 1114.84 356.26 c 0,17,18
 1114.84 532.98 1114.84 532.98 1215.89 634.97 c 128,-1,10
 1316.94 736.96 1316.94 736.96 1491.78 736.96 c 128,-1,11
629.8 -27.2598 m 1,19,-1
 422.06 -27.2598 l 1,20,-1
 1299.08 1428.8 l 1,21,-1
 1507.76 1428.8 l 1,22,-1
 629.8 -27.2598 l 1,19,-1
437.1 1428.8 m 128,-1,24
 611.94 1428.8 611.94 1428.8 712.05 1326.81 c 128,-1,25
 812.16 1224.82 812.16 1224.82 812.16 1047.16 c 128,-1,26
 812.16 869.5 812.16 869.5 712.05 767.04 c 128,-1,27
 611.94 664.58 611.94 664.58 437.1 664.58 c 128,-1,28
 262.26 664.58 262.26 664.58 162.15 767.04 c 128,-1,29
 62.04 869.5 62.04 869.5 62.04 1047.16 c 128,-1,30
 62.04 1224.82 62.04 1224.82 162.15 1326.81 c 128,-1,23
 262.26 1428.8 262.26 1428.8 437.1 1428.8 c 128,-1,24
437.1 1270.88 m 0,31,32
 369.42 1270.88 369.42 1270.88 332.76 1212.6 c 128,-1,33
 296.1 1154.32 296.1 1154.32 296.1 1047.16 c 0,34,35
 296.1 939.06 296.1 939.06 332.76 880.31 c 128,-1,36
 369.42 821.56 369.42 821.56 437.1 821.56 c 128,-1,37
 504.78 821.56 504.78 821.56 540.97 880.31 c 128,-1,38
 577.16 939.06 577.16 939.06 577.16 1047.16 c 0,39,40
 577.16 1154.32 577.16 1154.32 540.5 1212.6 c 128,-1,41
 503.84 1270.88 503.84 1270.88 437.1 1270.88 c 0,31,32
EndSplineSet
EndChar

StartChar: ampersand
Encoding: 38 38 6
Width: 1678
GlyphClass: 2
Flags: W
LayerCount: 2
Fore
SplineSet
751.06 931.54 m 2,0,-1
 1135.52 508.54 l 1,1,2
 1185.34 574.34 1185.34 574.34 1211.19 656.12 c 128,-1,3
 1237.04 737.9 1237.04 737.9 1241.74 841.3 c 1,4,-1
 1534.08 841.3 l 1,5,6
 1519.98 670.22 1519.98 670.22 1467.81 536.74 c 128,-1,7
 1415.64 403.26 1415.64 403.26 1322.58 302.68 c 1,8,-1
 1598 -7.32422e-06 l 1,9,-1
 1199.44 -7.32422e-06 l 1,10,-1
 1107.32 102.46 l 1,11,12
 1008.62 36.6602 1008.62 36.6602 899.58 4.70019 c 128,-1,13
 790.54 -27.2598 790.54 -27.2598 668.34 -27.2598 c 0,14,15
 421.12 -27.2598 421.12 -27.2598 268.37 102.93 c 128,-1,16
 115.62 233.12 115.62 233.12 115.62 438.98 c 0,17,18
 115.62 576.22 115.62 576.22 182.83 681.97 c 128,-1,19
 250.04 787.72 250.04 787.72 402.32 887.36 c 1,20,21
 362.84 937.18 362.84 937.18 344.04 987 c 128,-1,22
 325.24 1036.82 325.24 1036.82 325.24 1091.34 c 0,23,24
 325.24 1244.56 325.24 1244.56 444.62 1336.68 c 128,-1,25
 564 1428.8 564 1428.8 762.34 1428.8 c 0,26,27
 847.88 1428.8 847.88 1428.8 940.47 1415.17 c 128,-1,28
 1033.06 1401.54 1033.06 1401.54 1133.64 1374.28 c 1,29,-1
 1133.64 1112.96 l 1,30,31
 1045.28 1158.08 1045.28 1158.08 966.32 1179.7 c 128,-1,32
 887.36 1201.32 887.36 1201.32 812.16 1201.32 c 0,33,34
 739.78 1201.32 739.78 1201.32 699.83 1173.59 c 128,-1,35
 659.88 1145.86 659.88 1145.86 659.88 1095.1 c 0,36,37
 659.88 1063.14 659.88 1063.14 682.91 1022.25 c 128,-1,38
 705.94 981.36 705.94 981.36 751.06 931.54 c 2,0,-1
564 698.42 m 1,39,40
 502.9 654.24 502.9 654.24 471.88 598.31 c 128,-1,41
 440.86 542.38 440.86 542.38 440.86 475.64 c 0,42,43
 440.86 367.54 440.86 367.54 520.76 291.4 c 128,-1,44
 600.66 215.26 600.66 215.26 712.52 215.26 c 0,45,46
 775.5 215.26 775.5 215.26 830.02 234.53 c 128,-1,47
 884.54 253.8 884.54 253.8 931.54 292.34 c 1,48,-1
 564 698.42 l 1,39,40
EndSplineSet
EndChar

StartChar: quotesingle
Encoding: 39 39 7
Width: 589
GlyphClass: 2
Flags: W
LayerCount: 2
Fore
SplineSet
406.08 1403.42 m 1,0,-1
 406.08 881.72 l 1,1,-1
 183.3 881.72 l 1,2,-1
 183.3 1403.42 l 1,3,-1
 406.08 1403.42 l 1,0,-1
EndSplineSet
EndChar

StartChar: parenleft
Encoding: 40 40 8
Width: 879
GlyphClass: 2
Flags: W
GlyphCompositionVertical: 3  uni239D%0,0,44,2703 uni239C%1,44,44,2731 uni239B%0,44,0,2740
LayerCount: 2
Fore
SplineSet
725.68 -253.8 m 1,0,-1
 446.5 -253.8 l 1,1,2
 302.68 -21.62 302.68 -21.62 234.06 187.53 c 128,-1,3
 165.44 396.68 165.44 396.68 165.44 602.54 c 128,-1,4
 165.44 808.4 165.44 808.4 234.53 1019.43 c 128,-1,5
 303.62 1230.46 303.62 1230.46 446.5 1460.76 c 1,6,-1
 725.68 1460.76 l 1,7,8
 605.36 1237.98 605.36 1237.98 545.2 1025.07 c 128,-1,9
 485.04 812.16 485.04 812.16 485.04 604.42 c 128,-1,10
 485.04 396.68 485.04 396.68 544.73 183.3 c 128,-1,11
 604.42 -30.08 604.42 -30.08 725.68 -253.8 c 1,0,-1
EndSplineSet
EndChar

StartChar: parenright
Encoding: 41 41 9
Width: 879
GlyphClass: 2
Flags: W
GlyphCompositionVertical: 3  uni23A0%0,0,44,2703 uni239F%1,44,44,2731 uni239E%0,44,0,2740
LayerCount: 2
Fore
SplineSet
154.16 -253.8 m 0,0,1
 274.48 -30.08 274.48 -30.08 334.64 183.3 c 128,-1,2
 394.8 396.68 394.8 396.68 394.8 604.42 c 128,-1,3
 394.8 812.16 394.8 812.16 334.64 1025.07 c 128,-1,4
 274.48 1237.98 274.48 1237.98 154.16 1460.76 c 1,5,-1
 433.34 1460.76 l 1,6,7
 576.22 1230.46 576.22 1230.46 645.31 1019.43 c 128,-1,8
 714.4 808.4 714.4 808.4 714.4 602.54 c 128,-1,9
 714.4 396.68 714.4 396.68 645.78 187.53 c 128,-1,10
 577.16 -21.6201 577.16 -21.6201 433.34 -253.8 c 1,11,-1
 154.16 -253.8 l 0,0,1
EndSplineSet
EndChar

StartChar: asterisk
Encoding: 42 42 10
Width: 1006
GlyphClass: 2
Flags: W
LayerCount: 2
Fore
SplineSet
968.2 1143.98 m 1,0,-1
 658 981.36 l 1,1,-1
 968.2 817.8 l 1,2,-1
 896.76 685.26 l 1,3,-1
 583.74 858.22 l 1,4,-1
 583.74 534.86 l 1,5,-1
 423.94 534.86 l 1,6,-1
 423.94 858.22 l 1,7,-1
 109.98 685.26 l 1,8,-1
 38.54 817.8 l 1,9,-1
 352.5 981.36 l 1,10,-1
 38.54 1143.98 l 1,11,-1
 109.98 1276.52 l 1,12,-1
 423.94 1105.44 l 1,13,-1
 423.94 1428.8 l 1,14,-1
 583.74 1428.8 l 1,15,-1
 583.74 1105.44 l 1,16,-1
 896.76 1276.52 l 1,17,-1
 968.2 1143.98 l 1,0,-1
EndSplineSet
EndChar

StartChar: plus
Encoding: 43 43 11
Width: 1613
GlyphClass: 2
Flags: W
LayerCount: 2
Fore
SplineSet
918.38 1206.96 m 1,0,-1
 918.38 714.4 l 1,1,-1
 1409.06 714.4 l 1,2,-1
 1409.06 492.56 l 1,3,-1
 918.38 492.56 l 1,4,-1
 918.38 -3.2959e-05 l 1,5,-1
 694.66 -3.2959e-05 l 1,6,-1
 694.66 492.56 l 1,7,-1
 203.98 492.56 l 1,8,-1
 203.98 714.4 l 1,9,-1
 694.66 714.4 l 1,10,-1
 694.66 1206.96 l 1,11,-1
 918.38 1206.96 l 1,0,-1
EndSplineSet
EndChar

StartChar: comma
Encoding: 44 44 12
Width: 731
GlyphClass: 2
Flags: W
LayerCount: 2
Fore
SplineSet
196.46 363.78 m 1,0,-1
 534.86 363.78 l 1,1,-1
 534.86 77.08 l 1,2,-1
 302.68 -273.54 l 1,3,-1
 102.46 -273.54 l 1,4,-1
 196.46 77.08 l 1,5,-1
 196.46 363.78 l 1,0,-1
EndSplineSet
EndChar

StartChar: hyphen
Encoding: 45 45 13
Width: 799
GlyphClass: 2
Flags: W
LayerCount: 2
Fore
SplineSet
104.34 690.9 m 1,0,-1
 694.66 690.9 l 1,1,-1
 694.66 417.36 l 1,2,-1
 104.34 417.36 l 1,3,-1
 104.34 690.9 l 1,0,-1
EndSplineSet
EndChar

StartChar: period
Encoding: 46 46 14
Width: 731
GlyphClass: 2
Flags: W
LayerCount: 2
Fore
SplineSet
196.46 363.78 m 1,0,-1
 534.86 363.78 l 1,1,-1
 534.86 -1.2207e-06 l 1,2,-1
 196.46 -1.2207e-06 l 1,3,-1
 196.46 363.78 l 1,0,-1
EndSplineSet
EndChar

StartChar: slash
Encoding: 47 47 15
Width: 703
GlyphClass: 2
Flags: W
LayerCount: 2
Fore
SplineSet
494.44 1403.42 m 1,0,-1
 703.12 1403.42 l 1,1,-1
 207.74 -178.6 l 1,2,-1
 -9.76562e-06 -178.6 l 1,3,-1
 494.44 1403.42 l 1,0,-1
EndSplineSet
EndChar

StartChar: colon
Encoding: 58 58 16
Width: 769
GlyphClass: 2
Flags: W
LayerCount: 2
Fore
SplineSet
215.26 1052.8 m 1,0,-1
 554.6 1052.8 l 1,1,-1
 554.6 689.02 l 1,2,-1
 215.26 689.02 l 1,3,-1
 215.26 1052.8 l 1,0,-1
215.26 363.78 m 1,4,-1
 554.6 363.78 l 1,5,-1
 554.6 -1.2207e-06 l 1,6,-1
 215.26 -1.2207e-06 l 1,7,-1
 215.26 363.78 l 1,4,-1
EndSplineSet
EndChar

StartChar: semicolon
Encoding: 59 59 17
Width: 769
GlyphClass: 2
Flags: W
LayerCount: 2
Fore
SplineSet
215.26 363.78 m 1,0,-1
 554.6 363.78 l 1,1,-1
 554.6 77.08 l 1,2,-1
 321.48 -273.54 l 1,3,-1
 121.26 -273.54 l 1,4,-1
 215.26 77.08 l 1,5,-1
 215.26 363.78 l 1,0,-1
215.26 1052.8 m 1,6,-1
 554.6 1052.8 l 1,7,-1
 554.6 689.02 l 1,8,-1
 215.26 689.02 l 1,9,-1
 215.26 1052.8 l 1,6,-1
EndSplineSet
EndChar

StartChar: less
Encoding: 60 60 18
Width: 1613
GlyphClass: 2
Flags: W
LayerCount: 2
Fore
SplineSet
1409.06 914.62 m 1,0,-1
 502.9 602.54 l 1,1,-1
 1409.06 292.34 l 1,2,-1
 1409.06 57.34 l 1,3,-1
 203.98 492.56 l 1,4,-1
 203.98 714.4 l 1,5,-1
 1409.06 1149.62 l 1,6,-1
 1409.06 914.62 l 1,0,-1
EndSplineSet
EndChar

StartChar: equal
Encoding: 61 61 19
Width: 1613
GlyphClass: 2
Flags: W
GlyphCompositionHorizontal: 2  equal%0,0,44,1433 equal%1,44,0,1433
LayerCount: 2
Fore
SplineSet
203.98 927.78 m 1,0,-1
 1409.06 927.78 l 1,1,-1
 1409.06 706.88 l 1,2,-1
 203.98 706.88 l 1,3,-1
 203.98 927.78 l 1,0,-1
203.98 500.08 m 1,4,-1
 1409.06 500.08 l 1,5,-1
 1409.06 277.3 l 1,6,-1
 203.98 277.3 l 1,7,-1
 203.98 500.08 l 1,4,-1
EndSplineSet
EndChar

StartChar: greater
Encoding: 62 62 20
Width: 1613
GlyphClass: 2
Flags: W
LayerCount: 2
Fore
SplineSet
203.98 914.62 m 1,0,-1
 203.98 1149.62 l 1,1,-1
 1409.06 714.4 l 1,2,-1
 1409.06 492.56 l 1,3,-1
 203.98 57.34 l 1,4,-1
 203.98 292.34 l 1,5,-1
 1111.08 602.54 l 1,6,-1
 203.98 914.62 l 1,0,-1
EndSplineSet
EndChar

StartChar: question
Encoding: 63 63 21
Width: 1116
GlyphClass: 2
Flags: W
LayerCount: 2
Fore
SplineSet
666.46 473.76 m 1,0,-1
 327.12 473.76 l 1,1,-1
 327.12 519.82 l 2,2,3
 327.12 596.9 327.12 596.9 358.14 656.59 c 128,-1,4
 389.16 716.28 389.16 716.28 488.8 808.4 c 1,5,-1
 548.96 862.92 l 2,6,7
 602.54 911.8 602.54 911.8 627.45 955.04 c 128,-1,8
 652.36 998.28 652.36 998.28 652.36 1041.52 c 0,9,10
 652.36 1107.32 652.36 1107.32 607.24 1144.45 c 128,-1,11
 562.12 1181.58 562.12 1181.58 481.28 1181.58 c 0,12,13
 405.14 1181.58 405.14 1181.58 316.78 1150.09 c 128,-1,14
 228.42 1118.6 228.42 1118.6 132.54 1056.56 c 1,15,-1
 132.54 1351.72 l 1,16,17
 246.28 1391.2 246.28 1391.2 340.28 1410 c 128,-1,18
 434.28 1428.8 434.28 1428.8 521.7 1428.8 c 0,19,20
 751.06 1428.8 751.06 1428.8 871.38 1335.27 c 128,-1,21
 991.7 1241.74 991.7 1241.74 991.7 1062.2 c 0,22,23
 991.7 970.08 991.7 970.08 955.04 897.23 c 128,-1,24
 918.38 824.38 918.38 824.38 830.02 740.72 c 1,25,-1
 769.86 687.14 l 1,26,27
 705.94 628.86 705.94 628.86 686.2 593.61 c 128,-1,28
 666.46 558.36 666.46 558.36 666.46 516.06 c 2,29,-1
 666.46 473.76 l 1,0,-1
327.12 334.64 m 1,30,-1
 666.46 334.64 l 1,31,-1
 666.46 1.46484e-05 l 1,32,-1
 327.12 1.46484e-05 l 1,33,-1
 327.12 334.64 l 1,30,-1
EndSplineSet
EndChar

StartChar: at
Encoding: 64 64 22
Width: 1925
GlyphClass: 2
Flags: W
LayerCount: 2
Fore
SplineSet
781.14 506.66 m 0,0,1
 781.14 391.04 781.14 391.04 830.49 324.3 c 128,-1,2
 879.84 257.56 879.84 257.56 964.44 257.56 c 0,3,4
 1048.1 257.56 1048.1 257.56 1097.92 324.77 c 128,-1,5
 1147.74 391.98 1147.74 391.98 1147.74 506.66 c 0,6,7
 1147.74 620.4 1147.74 620.4 1097.45 686.67 c 128,-1,8
 1047.16 752.94 1047.16 752.94 962.56 752.94 c 0,9,10
 879.84 752.94 879.84 752.94 830.49 686.67 c 128,-1,11
 781.14 620.4 781.14 620.4 781.14 506.66 c 0,0,1
1166.54 223.72 m 1,12,13
 1138.34 156.98 1138.34 156.98 1075.83 119.85 c 128,-1,14
 1013.32 82.7197 1013.32 82.7197 929.66 82.7197 c 0,15,16
 767.98 82.7197 767.98 82.7197 666.93 199.75 c 128,-1,17
 565.88 316.78 565.88 316.78 565.88 504.78 c 128,-1,18
 565.88 692.78 565.88 692.78 667.4 810.28 c 128,-1,19
 768.92 927.78 768.92 927.78 929.66 927.78 c 0,20,21
 1013.32 927.78 1013.32 927.78 1075.83 890.18 c 128,-1,22
 1138.34 852.58 1138.34 852.58 1166.54 785.84 c 1,23,-1
 1166.54 908.98 l 1,24,-1
 1363 908.98 l 1,25,-1
 1363 257.56 l 1,26,27
 1479.56 275.42 1479.56 275.42 1546.3 369.89 c 128,-1,28
 1613.04 464.36 1613.04 464.36 1613.04 611.94 c 0,29,30
 1613.04 705.94 1613.04 705.94 1585.78 788.19 c 128,-1,31
 1558.52 870.44 1558.52 870.44 1503.06 939.06 c 1,32,33
 1413.76 1053.74 1413.76 1053.74 1279.81 1115.78 c 128,-1,34
 1145.86 1177.82 1145.86 1177.82 989.82 1177.82 c 0,35,36
 880.78 1177.82 880.78 1177.82 781.14 1149.15 c 128,-1,37
 681.5 1120.48 681.5 1120.48 596.9 1065.02 c 0,38,39
 457.78 972.9 457.78 972.9 380.23 826.73 c 128,-1,40
 302.68 680.56 302.68 680.56 302.68 510.42 c 0,41,42
 302.68 370.36 302.68 370.36 352.97 247.69 c 128,-1,43
 403.26 125.02 403.26 125.02 498.2 31.0187 c 0,44,45
 592.2 -61.1004 592.2 -61.1004 713.93 -109.511 c 128,-1,46
 835.66 -157.921 835.66 -157.921 973.84 -157.921 c 0,47,48
 1092.28 -157.921 1092.28 -157.921 1210.72 -113.741 c 128,-1,49
 1329.16 -69.5612 1329.16 -69.5612 1412.82 5.63869 c 1,50,-1
 1513.4 -146.641 l 1,51,52
 1395.9 -237.821 1395.9 -237.821 1257.25 -286.231 c 128,-1,53
 1118.6 -334.641 1118.6 -334.641 975.72 -334.641 c 0,54,55
 801.82 -334.641 801.82 -334.641 647.66 -273.071 c 128,-1,56
 493.5 -211.501 493.5 -211.501 373.18 -94.0013 c 128,-1,57
 252.86 23.4987 252.86 23.4987 189.88 178.129 c 128,-1,58
 126.9 332.759 126.9 332.759 126.9 510.419 c 0,59,60
 126.9 681.499 126.9 681.499 190.82 836.599 c 128,-1,61
 254.74 991.699 254.74 991.699 373.18 1109.2 c 0,62,63
 491.62 1225.76 491.62 1225.76 649.07 1289.68 c 128,-1,64
 806.52 1353.6 806.52 1353.6 975.72 1353.6 c 0,65,66
 1186.28 1353.6 1186.28 1353.6 1358.3 1273.23 c 128,-1,67
 1530.32 1192.86 1530.32 1192.86 1645.94 1041.52 c 0,68,69
 1716.44 949.399 1716.44 949.399 1752.63 841.769 c 128,-1,70
 1788.82 734.139 1788.82 734.139 1788.82 615.699 c 0,71,72
 1788.82 360.959 1788.82 360.959 1635.6 219.959 c 128,-1,73
 1482.38 78.9587 1482.38 78.9587 1203.2 78.9587 c 2,74,-1
 1166.54 78.9587 l 1,75,-1
 1166.54 223.72 l 1,12,13
EndSplineSet
EndChar

StartChar: bracketleft
Encoding: 91 91 23
Width: 879
GlyphClass: 2
Flags: W
GlyphCompositionVertical: 3  uni23A3%0,0,44,2703 uni23A2%1,44,44,2731 uni23A1%0,44,0,2699
LayerCount: 2
Fore
SplineSet
165.44 1462.64 m 1,0,-1
 749.18 1462.64 l 1,1,-1
 749.18 1251.14 l 1,2,-1
 485.04 1251.14 l 1,3,-1
 485.04 -42.3 l 1,4,-1
 749.18 -42.3 l 1,5,-1
 749.18 -253.8 l 1,6,-1
 165.44 -253.8 l 1,7,-1
 165.44 1462.64 l 1,0,-1
EndSplineSet
EndChar

StartChar: backslash
Encoding: 92 92 24
Width: 703
GlyphClass: 2
Flags: W
LayerCount: 2
Fore
SplineSet
494.44 -178.6 m 1,0,-1
 2.44141e-06 1403.42 l 1,1,-1
 207.74 1403.42 l 1,2,-1
 703.12 -178.6 l 1,3,-1
 494.44 -178.6 l 1,0,-1
EndSplineSet
EndChar

StartChar: bracketright
Encoding: 93 93 25
Width: 879
GlyphClass: 2
Flags: W
GlyphCompositionVertical: 3  uni23A6%0,0,44,2687 uni23A5%1,44,44,2713 uni23A4%0,44,0,2699
LayerCount: 2
Fore
SplineSet
714.4 -253.8 m 1,0,-1
 130.66 -253.8 l 1,1,-1
 130.66 -42.3 l 1,2,-1
 394.8 -42.3 l 1,3,-1
 394.8 1251.14 l 1,4,-1
 130.66 1251.14 l 1,5,-1
 130.66 1462.64 l 1,6,-1
 714.4 1462.64 l 1,7,-1
 714.4 -253.8 l 1,0,-1
EndSplineSet
EndChar

StartChar: asciicircum
Encoding: 94 94 26
Width: 1613
GlyphClass: 2
Flags: W
LayerCount: 2
Fore
SplineSet
922.14 1403.42 m 1,0,-1
 1418.46 879.84 l 1,1,-1
 1191.92 879.84 l 1,2,-1
 806.52 1162.78 l 1,3,-1
 422.06 879.84 l 1,4,-1
 194.58 879.84 l 1,5,-1
 690.9 1403.42 l 1,6,-1
 922.14 1403.42 l 1,0,-1
EndSplineSet
EndChar

StartChar: underscore
Encoding: 95 95 27
Width: 962
GlyphClass: 2
Flags: W
GlyphCompositionHorizontal: 2  underscore%0,0,44,1188 underscore%1,44,0,1188
LayerCount: 2
Fore
SplineSet
962.56 -275.42 m 1,0,-1
 962.56 -454.02 l 1,1,-1
 -2.44141e-06 -454.02 l 1,2,-1
 -2.44141e-06 -275.42 l 1,3,-1
 962.56 -275.42 l 1,0,-1
EndSplineSet
EndChar

StartChar: grave
Encoding: 96 96 28
Width: 962
GlyphClass: 2
Flags: W
LayerCount: 2
Fore
SplineSet
354.38 1539.72 m 1,0,-1
 619.46 1186.28 l 1,1,-1
 435.22 1186.28 l 1,2,-1
 88.36 1539.72 l 1,3,-1
 354.38 1539.72 l 1,0,-1
EndSplineSet
EndChar

StartChar: braceleft
Encoding: 123 123 29
Width: 1370
GlyphClass: 2
Flags: W
GlyphCompositionVertical: 5  uni23A9%0,0,44,2700 uni23AA%1,44,44,2742 uni23A8%0,44,44,2727 uni23AA%1,44,44,2742 uni23A7%0,44,0,2719
LayerCount: 2
Fore
SplineSet
1129.88 -102.46 m 1,0,-1
 1129.88 -313.96 l 1,1,-1
 925.9 -313.96 l 2,2,3
 720.98 -313.96 720.98 -313.96 626.98 -231.24 c 128,-1,4
 532.98 -148.52 532.98 -148.52 532.98 32.9 c 2,5,-1
 532.98 213.38 l 2,6,7
 532.98 354.38 532.98 354.38 482.22 409.37 c 128,-1,8
 431.46 464.36 431.46 464.36 297.98 464.36 c 2,9,-1
 240.64 464.36 l 1,10,-1
 240.64 673.98 l 1,11,-1
 297.98 673.98 l 2,12,13
 431.46 673.98 431.46 673.98 482.22 728.5 c 128,-1,14
 532.98 783.02 532.98 783.02 532.98 924.02 c 2,15,-1
 532.98 1116.72 l 2,16,17
 532.98 1298.14 532.98 1298.14 626.98 1380.39 c 128,-1,18
 720.98 1462.64 720.98 1462.64 925.9 1462.64 c 2,19,-1
 1129.88 1462.64 l 1,20,-1
 1129.88 1251.14 l 1,21,-1
 1065.02 1251.14 l 2,22,23
 932.48 1251.14 932.48 1251.14 892.53 1210.25 c 128,-1,24
 852.58 1169.36 852.58 1169.36 852.58 1035.88 c 2,25,-1
 852.58 879.84 l 2,26,27
 852.58 732.26 852.58 732.26 810.28 665.52 c 128,-1,28
 767.98 598.78 767.98 598.78 664.58 575.28 c 1,29,30
 768.92 549.9 768.92 549.9 810.75 483.16 c 128,-1,31
 852.58 416.42 852.58 416.42 852.58 269.78 c 2,32,-1
 852.58 113.74 l 2,33,34
 852.58 -20.68 852.58 -20.68 892.53 -61.57 c 128,-1,35
 932.48 -102.46 932.48 -102.46 1065.02 -102.46 c 2,36,-1
 1129.88 -102.46 l 1,0,-1
EndSplineSet
EndChar

StartChar: bar
Encoding: 124 124 30
Width: 703
GlyphClass: 2
Flags: W
GlyphCompositionVertical: 2  bar%0,0,44,2287 bar%1,44,0,2287
LayerCount: 2
Fore
SplineSet
457.78 1471.1 m 1,0,-1
 457.78 -454.02 l 1,1,-1
 244.4 -454.02 l 1,2,-1
 244.4 1471.1 l 1,3,-1
 457.78 1471.1 l 1,0,-1
EndSplineSet
EndChar

StartChar: braceright
Encoding: 125 125 31
Width: 1370
GlyphClass: 2
Flags: W
GlyphCompositionVertical: 5  uni23AD%0,0,44,2700 uni23AA%1,44,44,2742 uni23AC%0,44,44,2727 uni23AA%1,44,44,2742 uni23AB%0,44,0,2719
LayerCount: 2
Fore
SplineSet
240.64 -102.46 m 1,0,-1
 306.44 -102.46 l 2,1,2
 438.04 -102.46 438.04 -102.46 477.99 -61.5703 c 128,-1,3
 517.94 -20.6797 517.94 -20.6797 517.94 113.74 c 2,4,-1
 517.94 269.78 l 2,5,6
 517.94 416.42 517.94 416.42 560.24 483.16 c 128,-1,7
 602.54 549.9 602.54 549.9 706.88 575.28 c 1,8,9
 602.54 598.78 602.54 598.78 560.24 665.52 c 128,-1,10
 517.94 732.26 517.94 732.26 517.94 879.84 c 2,11,-1
 517.94 1035.88 l 2,12,13
 517.94 1169.36 517.94 1169.36 477.99 1210.25 c 128,-1,14
 438.04 1251.14 438.04 1251.14 306.44 1251.14 c 2,15,-1
 240.64 1251.14 l 1,16,-1
 240.64 1462.64 l 1,17,-1
 444.62 1462.64 l 2,18,19
 649.54 1462.64 649.54 1462.64 743.54 1380.39 c 128,-1,20
 837.54 1298.14 837.54 1298.14 837.54 1116.72 c 2,21,-1
 837.54 924.02 l 2,22,23
 837.54 783.02 837.54 783.02 888.3 728.5 c 128,-1,24
 939.06 673.98 939.06 673.98 1072.54 673.98 c 2,25,-1
 1129.88 673.98 l 1,26,-1
 1129.88 464.36 l 1,27,-1
 1072.54 464.36 l 2,28,29
 939.06 464.36 939.06 464.36 888.3 409.37 c 128,-1,30
 837.54 354.38 837.54 354.38 837.54 213.38 c 2,31,-1
 837.54 32.8997 l 2,32,33
 837.54 -148.52 837.54 -148.52 743.54 -231.24 c 128,-1,34
 649.54 -313.96 649.54 -313.96 444.62 -313.96 c 2,35,-1
 240.64 -313.96 l 1,36,-1
 240.64 -102.46 l 1,0,-1
EndSplineSet
EndChar

StartChar: asciitilde
Encoding: 126 126 32
Width: 1613
GlyphClass: 2
Flags: W
LayerCount: 2
Fore
SplineSet
1409.06 799 m 1,0,-1
 1409.06 569.64 l 1,1,2
 1309.42 494.44 1309.42 494.44 1225.29 462.01 c 128,-1,3
 1141.16 429.58 1141.16 429.58 1050.92 429.58 c 0,4,5
 950.34 429.58 950.34 429.58 815.92 484.1 c 0,6,7
 802.76 489.74 802.76 489.74 795.24 492.56 c 0,8,9
 788.66 495.38 788.66 495.38 774.56 501.02 c 0,10,11
 628.86 558.36 628.86 558.36 540.5 558.36 c 0,12,13
 457.78 558.36 457.78 558.36 376.94 522.17 c 128,-1,14
 296.1 485.98 296.1 485.98 203.98 407.96 c 1,15,-1
 203.98 637.32 l 1,16,17
 304.56 712.52 304.56 712.52 388.22 744.95 c 128,-1,18
 471.88 777.38 471.88 777.38 562.12 777.38 c 0,19,20
 662.7 777.38 662.7 777.38 797.12 722.86 c 0,21,22
 811.22 717.22 811.22 717.22 817.8 714.4 c 128,-1,23
 824.38 711.58 824.38 711.58 838.48 705.94 c 0,24,25
 984.18 648.6 984.18 648.6 1072.54 648.6 c 0,26,27
 1153.38 648.6 1153.38 648.6 1232.81 683.85 c 128,-1,28
 1312.24 719.1 1312.24 719.1 1409.06 799 c 1,0,-1
EndSplineSet
EndChar

StartChar: afii57388
Encoding: 1548 1548 34
Width: 743
GlyphClass: 2
Flags: W
LayerCount: 2
Fore
SplineSet
203.706 102.999 m 0,0,1
 191.25 161.217 191.25 161.217 212.745 254.832 c 0,2,3
 251.683 424.416 251.683 424.416 429.767 593.39 c 2,4,-1
 439.896 603 l 1,5,-1
 658.632 603 l 1,6,-1
 582.521 540.885 l 2,7,8
 435.566 420.951 435.566 420.951 411.03 284.902 c 1,9,10
 483.515 275.378 483.515 275.378 519.393 225.453 c 128,-1,11
 555.271 175.528 555.271 175.528 550.762 97.084 c 0,12,13
 547.06 31.8857 547.06 31.8857 499.069 -1.5576 c 128,-1,14
 451.08 -35 451.08 -35 373.818 -35 c 0,15,16
 306.831 -35 306.831 -35 262.295 1.1553 c 128,-1,17
 217.759 37.3105 217.759 37.3105 203.706 102.999 c 0,0,1
EndSplineSet
EndChar

StartChar: uni0615
Encoding: 1557 1557 35
Width: 0
GlyphClass: 4
Flags: W
LayerCount: 2
Fore
SplineSet
466.096 1456.96 m 1,0,-1
 552.12 1456.96 l 2,1,2
 639.138 1456.96 639.138 1456.96 665.862 1472.75 c 0,3,4
 697.288 1492.32 697.288 1492.32 713.059 1508.3 c 128,-1,5
 728.83 1524.27 728.83 1524.27 728.83 1541.65 c 0,6,7
 728.83 1583.09 728.83 1583.09 689.03 1604.94 c 1,8,9
 681.399 1607.6 681.399 1607.6 672.751 1605.46 c 128,-1,10
 664.102 1603.31 664.102 1603.31 640.309 1592.64 c 128,-1,11
 616.515 1581.97 616.515 1581.97 601.865 1576.19 c 0,12,13
 543.049 1552.44 543.049 1552.44 483.147 1478.12 c 2,14,-1
 466.096 1456.96 l 1,0,-1
576.73 1374.89 m 2,15,-1
 282.64 1374.89 l 1,16,-1
 282.64 1456.96 l 1,17,-1
 369.31 1456.96 l 1,18,-1
 369.31 1883.89 l 1,19,-1
 452.45 1883.89 l 1,20,-1
 452.45 1497.67 l 1,21,-1
 477.109 1547.67 l 2,22,23
 513.381 1621.22 513.381 1621.22 619.878 1662.18 c 0,24,25
 682.718 1686.12 682.718 1686.12 752.956 1660.03 c 0,26,27
 814.11 1636.51 814.11 1636.51 814.11 1557.7 c 0,28,29
 814.11 1466.67 814.11 1466.67 750.648 1417.09 c 0,30,31
 696.384 1374.89 696.384 1374.89 576.73 1374.89 c 2,15,-1
EndSplineSet
EndChar

StartChar: uni061B
Encoding: 1563 1563 36
Width: 698
GlyphClass: 2
Flags: W
LayerCount: 2
Fore
SplineSet
149.834 630.936 m 0,0,1
 137.377 689.153 137.377 689.153 158.873 782.769 c 0,2,3
 197.811 952.353 197.811 952.353 375.895 1121.33 c 2,4,-1
 386.023 1130.94 l 1,5,-1
 604.76 1130.94 l 1,6,-1
 528.648 1068.82 l 2,7,8
 381.693 948.888 381.693 948.888 357.158 812.839 c 1,9,10
 429.643 803.314 429.643 803.314 465.52 753.39 c 128,-1,11
 501.398 703.465 501.398 703.465 496.889 625.021 c 0,12,13
 493.188 559.822 493.188 559.822 445.197 526.379 c 128,-1,14
 397.207 492.937 397.207 492.937 319.945 492.937 c 0,15,16
 252.959 492.937 252.959 492.937 208.422 529.092 c 128,-1,17
 163.887 565.247 163.887 565.247 149.834 630.936 c 0,0,1
184.55 334.903 m 1,18,-1
 468.214 334.903 l 1,19,-1
 468.214 7.99002 l 1,20,-1
 184.55 7.99002 l 1,21,-1
 184.55 334.903 l 1,18,-1
EndSplineSet
EndChar

StartChar: uni061F
Encoding: 1567 1567 37
Width: 1093
GlyphClass: 2
Flags: W
LayerCount: 2
Fore
SplineSet
739.78 334.903 m 1,0,-1
 739.78 7.99002 l 1,1,-1
 464.162 7.99002 l 1,2,-1
 464.162 334.903 l 1,3,-1
 739.78 334.903 l 1,0,-1
470.197 411.315 m 1,4,-1
 470.197 570.749 l 2,5,6
 470.197 621.269 470.197 621.269 467.357 649.671 c 0,7,8
 464.747 675.774 464.747 675.774 459.658 694.151 c 0,9,10
 453.108 713.826 453.108 713.826 437.419 735.147 c 0,11,12
 419.406 759.626 419.406 759.626 374.188 804.845 c 2,13,-1
 285.971 891.058 l 1,14,15
 191.359 981.463 191.359 981.463 152.44 1055.53 c 0,16,17
 112.133 1132.23 112.133 1132.23 112.133 1217.48 c 0,18,19
 112.133 1393.66 112.133 1393.66 236.553 1501.91 c 0,20,21
 358.777 1608.25 358.777 1608.25 557.213 1608.25 c 0,22,23
 665.881 1608.25 665.881 1608.25 767.822 1578.66 c 0,24,25
 865.845 1550.22 865.845 1550.22 961.761 1493.16 c 2,26,-1
 985.195 1479.22 l 1,27,-1
 985.195 1203.53 l 1,28,-1
 910.773 1252.85 l 2,29,30
 826.293 1308.83 826.293 1308.83 748.884 1339.11 c 0,31,32
 665.156 1371.85 665.156 1371.85 592.416 1371.85 c 0,33,34
 496.794 1371.85 496.794 1371.85 440.881 1324.9 c 0,35,36
 387.75 1280.29 387.75 1280.29 387.75 1207.42 c 0,37,38
 387.75 1167.21 387.75 1167.21 409.073 1127.9 c 0,39,40
 431.935 1085.77 431.935 1085.77 485.384 1036.06 c 1,41,-1
 576.067 946.392 l 1,42,43
 671.775 854.736 671.775 854.736 702.669 783.022 c 0,44,45
 733.745 710.884 733.745 710.884 733.745 601.929 c 2,46,-1
 733.745 411.315 l 1,47,-1
 470.197 411.315 l 1,4,-1
EndSplineSet
EndChar

StartChar: uni0621
Encoding: 1569 1569 38
Width: 897
VWidth: 2237
GlyphClass: 2
Flags: W
AnchorPoint: "Anchor-7" 442 -121 basechar 0
AnchorPoint: "Anchor-10" 388.5 1301.5 basechar 0
LayerCount: 2
Fore
SplineSet
49.4102 -6.2168 m 1,0,-1
 49.4102 255.24 l 1,1,-1
 87.9482 264.952 l 2,2,3
 170.808 285.832 170.808 285.832 245.271 314.323 c 1,4,5
 172.317 348.342 172.317 348.342 129.017 403.512 c 0,6,7
 56.1348 496.37 56.1348 496.37 56.1348 627 c 0,8,9
 56.1348 742.115 56.1348 742.115 101.722 830.711 c 128,-1,10
 147.31 919.307 147.31 919.307 236.61 973.929 c 0,11,12
 414.03 1083.25 414.03 1083.25 679.596 1022.7 c 2,13,-1
 719.26 1013.66 l 1,14,-1
 719.26 734.875 l 1,15,-1
 654.038 753.815 l 2,16,17
 563.342 780.152 563.342 780.152 500.271 778.351 c 0,18,19
 406.279 776.509 406.279 776.509 367.494 738.979 c 128,-1,20
 328.71 701.45 328.71 701.45 328.71 615.192 c 0,21,22
 328.71 564.896 328.71 564.896 362.597 533.287 c 128,-1,23
 396.483 501.677 396.483 501.677 480.988 485.039 c 0,24,25
 579.313 465.678 579.313 465.678 648.855 485.96 c 0,26,27
 690.747 498.178 690.747 498.178 727.995 520.096 c 2,28,-1
 804.86 565.326 l 1,29,-1
 804.86 293.19 l 1,30,-1
 797.309 280.904 l 2,31,32
 788.545 266.647 788.545 266.647 772.226 254.033 c 128,-1,33
 755.907 241.418 755.907 241.418 723.736 225.955 c 128,-1,34
 691.566 210.492 691.566 210.492 662.201 198.097 c 128,-1,35
 632.836 185.701 632.836 185.701 572.821 160.893 c 128,-1,36
 512.807 136.083 512.807 136.083 465.958 115.767 c 1,37,38
 228.037 22.3936 228.037 22.3936 108.476 3.24316 c 2,39,-1
 49.4102 -6.2168 l 1,0,-1
EndSplineSet
EndChar

StartChar: uni0627
Encoding: 1575 1575 44
Width: 544
VWidth: 2237
GlyphClass: 2
Flags: W
AnchorPoint: "Anchor-10" 238.5 1380 basechar 0
AnchorPoint: "Anchor-7" 240.5 -184.5 basechar 0
LayerCount: 2
Fore
SplineSet
112.06 1302.96 m 1,0,-1
 380.94 1302.96 l 1,1,-1
 380.94 1.5 l 1,2,-1
 112.06 1.5 l 1,3,-1
 112.06 1302.96 l 1,0,-1
EndSplineSet
Substitution2: "'fina' Terminal Forms in Arabic lookup 9 subtable" uniFE8E
EndChar

StartChar: uni062D
Encoding: 1581 1581 50
Width: 1324
VWidth: 2237
GlyphClass: 2
Flags: W
AnchorPoint: "Anchor-10" 570.5 1030.5 basechar 0
AnchorPoint: "Anchor-7" 374.84 -619.5 basechar 0
LayerCount: 2
Fore
SplineSet
899.79 499.653 m 1,0,1
 361.824 313.719 361.824 313.719 326.632 0.175781 c 0,2,3
 324.752 -15.8242 324.752 -15.8242 324.427 -30.5312 c 0,4,5
 322.248 -129.104 322.248 -129.104 392.964 -179.316 c 128,-1,6
 463.681 -229.527 463.681 -229.527 632.447 -233 c 1,7,-1
 1222.75 -232.757 l 1,8,-1
 1221.17 -508.849 l 1,9,-1
 612.913 -507.999 l 1,10,11
 570.974 -506.326 570.974 -506.326 533.135 -502.396 c 0,12,13
 284.831 -476.616 284.831 -476.616 163.64 -345.036 c 128,-1,14
 42.4492 -213.456 42.4492 -213.456 66.248 11.3691 c 0,15,16
 85.8896 196.907 85.8896 196.907 193.461 343.759 c 128,-1,17
 301.033 490.611 301.033 490.611 490.31 594.614 c 1,18,19
 455.387 590.606 455.387 590.606 419.385 585.541 c 0,20,21
 292.413 567.674 292.413 567.674 199.759 531.002 c 2,22,-1
 129.99 503.389 l 1,23,-1
 129.99 796.372 l 1,24,-1
 169.878 805.276 l 2,25,26
 469.905 872.26 469.905 872.26 665.54 872.26 c 0,27,28
 935.149 872.26 935.149 872.26 1193.98 804.835 c 2,29,-1
 1232.12 794.899 l 1,30,-1
 1232.12 570.739 l 1,31,-1
 1189.83 563.405 l 2,32,33
 1011.38 532.453 1011.38 532.453 899.79 499.653 c 1,0,1
EndSplineSet
Substitution2: "'fina' Terminal Forms in Arabic lookup 9 subtable" uniFEA2
Substitution2: "'medi' Medial Forms in Arabic lookup 11 subtable" uniFEA4
Substitution2: "'init' Initial Forms in Arabic lookup 13 subtable" uniFEA3
EndChar

StartChar: uni062F
Encoding: 1583 1583 52
Width: 933
VWidth: 2237
GlyphClass: 2
Flags: W
AnchorPoint: "Anchor-10" 311.58 1168.5 basechar 0
AnchorPoint: "Anchor-7" 356.5 -197 basechar 0
LayerCount: 2
Fore
SplineSet
443 0.00292969 m 2,0,-1
 45.75 0.00488281 l 1,1,-1
 45.75 281.25 l 1,2,-1
 96.9561 281.044 l 2,3,4
 317.152 280.156 317.152 280.156 367.979 280.97 c 0,5,6
 442.711 281.985 442.711 281.985 496.342 286.834 c 0,7,8
 610.072 297.115 610.072 297.115 553.514 378.572 c 0,9,10
 537.688 401.364 537.688 401.364 504.42 443.552 c 128,-1,11
 471.151 485.74 471.151 485.74 430.342 532.887 c 2,12,-1
 239.946 752.847 l 1,13,-1
 420.396 954.242 l 1,14,-1
 606.219 741.416 l 2,15,16
 777.13 545.665 777.13 545.665 781.135 540.285 c 0,17,18
 895.361 379.933 895.361 379.933 841.489 215.391 c 1,19,20
 803.979 105.716 803.979 105.716 701.173 52.6982 c 128,-1,21
 598.367 -0.319336 598.367 -0.319336 443 0.00292969 c 2,0,-1
EndSplineSet
Substitution2: "'fina' Terminal Forms in Arabic lookup 9 subtable" uniFEAA
EndChar

StartChar: uni0631
Encoding: 1585 1585 54
Width: 753
VWidth: 2237
GlyphClass: 2
Flags: W
AnchorPoint: "Anchor-10" 226.7 849.348 basechar 0
AnchorPoint: "Anchor-7" 342.291 -532.16 basechar 0
LayerCount: 2
Fore
SplineSet
390.634 -5.00879 m 2,0,-1
 390.635 587.702 l 1,1,-1
 668.634 589.281 l 1,2,-1
 668.634 36 l 2,3,4
 668.634 -194.154 668.634 -194.154 559.729 -319.069 c 128,-1,5
 450.826 -443.984 450.826 -443.984 243.653 -445.04 c 2,6,-1
 40.0459 -445.778 l 1,7,-1
 40.0508 -165.947 l 1,8,-1
 206.997 -166.042 l 2,9,10
 307.943 -166.101 307.943 -166.101 349.289 -128.719 c 128,-1,11
 390.634 -91.3369 390.634 -91.3369 390.634 -5.00879 c 2,0,-1
EndSplineSet
PairPos2: "'kern' Horizontal Kerning lookup 15-1" uniFEDF dx=-70 dy=0 dh=-70 dv=0 dx=0 dy=0 dh=0 dv=0
PairPos2: "'kern' Horizontal Kerning lookup 15-1" uniFBAC dx=-70 dy=0 dh=-70 dv=0 dx=0 dy=0 dh=0 dv=0
PairPos2: "'kern' Horizontal Kerning lookup 15-1" uniFB90 dx=-70 dy=0 dh=-70 dv=0 dx=0 dy=0 dh=0 dv=0
PairPos2: "'kern' Horizontal Kerning lookup 15-1" uni06A9 dx=-70 dy=0 dh=-70 dv=0 dx=0 dy=0 dh=0 dv=0
PairPos2: "'kern' Horizontal Kerning lookup 15-1" uni0649 dx=-70 dy=0 dh=-70 dv=0 dx=0 dy=0 dh=0 dv=0
PairPos2: "'kern' Horizontal Kerning lookup 15-1" uni0647 dx=-70 dy=0 dh=-70 dv=0 dx=0 dy=0 dh=0 dv=0
PairPos2: "'kern' Horizontal Kerning lookup 15-1" uniFEE7 dx=-70 dy=0 dh=-70 dv=0 dx=0 dy=0 dh=0 dv=0
PairPos2: "'kern' Horizontal Kerning lookup 15-1" uniFEE3 dx=-70 dy=0 dh=-70 dv=0 dx=0 dy=0 dh=0 dv=0
PairPos2: "'kern' Horizontal Kerning lookup 15-1" uni0645 dx=-70 dy=0 dh=-70 dv=0 dx=0 dy=0 dh=0 dv=0
PairPos2: "'kern' Horizontal Kerning lookup 15-1" uni0644 dx=-70 dy=0 dh=-70 dv=0 dx=0 dy=0 dh=0 dv=0
PairPos2: "'kern' Horizontal Kerning lookup 15-1" uniFEDB dx=-70 dy=0 dh=-70 dv=0 dx=0 dy=0 dh=0 dv=0
PairPos2: "'kern' Horizontal Kerning lookup 15-1" uniFED7 dx=-70 dy=0 dh=-70 dv=0 dx=0 dy=0 dh=0 dv=0
PairPos2: "'kern' Horizontal Kerning lookup 15-1" uni0642 dx=-70 dy=0 dh=-70 dv=0 dx=0 dy=0 dh=0 dv=0
PairPos2: "'kern' Horizontal Kerning lookup 15-1" uniFED3 dx=-70 dy=0 dh=-70 dv=0 dx=0 dy=0 dh=0 dv=0
PairPos2: "'kern' Horizontal Kerning lookup 15-1" uni0641 dx=-70 dy=0 dh=-70 dv=0 dx=0 dy=0 dh=0 dv=0
PairPos2: "'kern' Horizontal Kerning lookup 15-1" uniFECF dx=-70 dy=0 dh=-70 dv=0 dx=0 dy=0 dh=0 dv=0
PairPos2: "'kern' Horizontal Kerning lookup 15-1" uniFECB dx=-70 dy=0 dh=-70 dv=0 dx=0 dy=0 dh=0 dv=0
PairPos2: "'kern' Horizontal Kerning lookup 15-1" uniFEC7 dx=-70 dy=0 dh=-70 dv=0 dx=0 dy=0 dh=0 dv=0
PairPos2: "'kern' Horizontal Kerning lookup 15-1" uni0638 dx=-70 dy=0 dh=-70 dv=0 dx=0 dy=0 dh=0 dv=0
PairPos2: "'kern' Horizontal Kerning lookup 15-1" uniFEC3 dx=-70 dy=0 dh=-70 dv=0 dx=0 dy=0 dh=0 dv=0
PairPos2: "'kern' Horizontal Kerning lookup 15-1" uni0637 dx=-70 dy=0 dh=-70 dv=0 dx=0 dy=0 dh=0 dv=0
PairPos2: "'kern' Horizontal Kerning lookup 15-1" uniFEBF dx=-70 dy=0 dh=-70 dv=0 dx=0 dy=0 dh=0 dv=0
PairPos2: "'kern' Horizontal Kerning lookup 15-1" uni0636 dx=-70 dy=0 dh=-70 dv=0 dx=0 dy=0 dh=0 dv=0
PairPos2: "'kern' Horizontal Kerning lookup 15-1" uniFEBB dx=-70 dy=0 dh=-70 dv=0 dx=0 dy=0 dh=0 dv=0
PairPos2: "'kern' Horizontal Kerning lookup 15-1" uni0635 dx=-70 dy=0 dh=-70 dv=0 dx=0 dy=0 dh=0 dv=0
PairPos2: "'kern' Horizontal Kerning lookup 15-1" uniFEB7 dx=-70 dy=0 dh=-70 dv=0 dx=0 dy=0 dh=0 dv=0
PairPos2: "'kern' Horizontal Kerning lookup 15-1" uni0634 dx=-70 dy=0 dh=-70 dv=0 dx=0 dy=0 dh=0 dv=0
PairPos2: "'kern' Horizontal Kerning lookup 15-1" uniFEB3 dx=-70 dy=0 dh=-70 dv=0 dx=0 dy=0 dh=0 dv=0
PairPos2: "'kern' Horizontal Kerning lookup 15-1" uni0633 dx=-70 dy=0 dh=-70 dv=0 dx=0 dy=0 dh=0 dv=0
PairPos2: "'kern' Horizontal Kerning lookup 15-1" uni0630 dx=-70 dy=0 dh=-70 dv=0 dx=0 dy=0 dh=0 dv=0
PairPos2: "'kern' Horizontal Kerning lookup 15-1" uni062F dx=-70 dy=0 dh=-70 dv=0 dx=0 dy=0 dh=0 dv=0
PairPos2: "'kern' Horizontal Kerning lookup 15-1" uniFEA7 dx=-70 dy=0 dh=-70 dv=0 dx=0 dy=0 dh=0 dv=0
PairPos2: "'kern' Horizontal Kerning lookup 15-1" uniFEA3 dx=-70 dy=0 dh=-70 dv=0 dx=0 dy=0 dh=0 dv=0
PairPos2: "'kern' Horizontal Kerning lookup 15-1" uniFE9F dx=-70 dy=0 dh=-70 dv=0 dx=0 dy=0 dh=0 dv=0
PairPos2: "'kern' Horizontal Kerning lookup 15-1" uniFE9B dx=-70 dy=0 dh=-70 dv=0 dx=0 dy=0 dh=0 dv=0
PairPos2: "'kern' Horizontal Kerning lookup 15-1" uni062B dx=-70 dy=0 dh=-70 dv=0 dx=0 dy=0 dh=0 dv=0
PairPos2: "'kern' Horizontal Kerning lookup 15-1" uniFE97 dx=-70 dy=0 dh=-70 dv=0 dx=0 dy=0 dh=0 dv=0
PairPos2: "'kern' Horizontal Kerning lookup 15-1" uni062A dx=-70 dy=0 dh=-70 dv=0 dx=0 dy=0 dh=0 dv=0
PairPos2: "'kern' Horizontal Kerning lookup 15-1" uni0629 dx=-70 dy=0 dh=-70 dv=0 dx=0 dy=0 dh=0 dv=0
PairPos2: "'kern' Horizontal Kerning lookup 15-1" uniFE91 dx=-70 dy=0 dh=-70 dv=0 dx=0 dy=0 dh=0 dv=0
PairPos2: "'kern' Horizontal Kerning lookup 15-1" uni0628 dx=-70 dy=0 dh=-70 dv=0 dx=0 dy=0 dh=0 dv=0
PairPos2: "'kern' Horizontal Kerning lookup 15-1" uni0627 dx=-70 dy=0 dh=-70 dv=0 dx=0 dy=0 dh=0 dv=0
PairPos2: "'kern' Horizontal Kerning lookup 15-1" uni0622 dx=-70 dy=0 dh=-70 dv=0 dx=0 dy=0 dh=0 dv=0
PairPos2: "'kern' Horizontal Kerning lookup 15-1" uniFB94 dx=-70 dy=0 dh=-70 dv=0 dx=0 dy=0 dh=0 dv=0
PairPos2: "'kern' Horizontal Kerning lookup 15-1" afii57509 dx=-70 dy=0 dh=-70 dv=0 dx=0 dy=0 dh=0 dv=0
PairPos2: "'kern' Horizontal Kerning lookup 15-1" uniFB56 dx=-70 dy=0 dh=-70 dv=0 dx=0 dy=0 dh=0 dv=0
PairPos2: "'kern' Horizontal Kerning lookup 15-1" afii57506 dx=-70 dy=0 dh=-70 dv=0 dx=0 dy=0 dh=0 dv=0
Substitution2: "'fina' Terminal Forms in Arabic lookup 9 subtable" uniFEAE
EndChar

StartChar: uni0633
Encoding: 1587 1587 56
Width: 2401
VWidth: 2237
GlyphClass: 2
Flags: W
AnchorPoint: "Anchor-10" 488.51 902.5 basechar 0
AnchorPoint: "Anchor-7" 373.5 -642.03 basechar 0
LayerCount: 2
Fore
SplineSet
1388.59 0.00195312 m 0,0,1
 1300.52 0.988281 1300.52 0.988281 1241.29 29.0049 c 1,2,3
 1220.17 -168.69 1220.17 -168.69 1080.24 -272.823 c 128,-1,4
 940.307 -376.957 940.307 -376.957 698.833 -384.344 c 2,5,-1
 681.681 -384.869 l 1,6,-1
 657.601 -384.869 l 2,7,8
 378.389 -384.869 378.389 -384.869 228.181 -262.303 c 128,-1,9
 77.9727 -139.736 77.9727 -139.736 77.9727 97.6299 c 2,10,-1
 77.9727 330.131 l 2,11,12
 77.9727 404.279 77.9727 404.279 115.788 452.455 c 128,-1,13
 153.604 500.63 153.604 500.63 222.901 500.63 c 2,14,-1
 349.973 500.63 l 1,15,-1
 349.973 98.6299 l 2,16,17
 349.973 -3.66113 349.973 -3.66113 421.139 -53.7754 c 128,-1,18
 492.305 -103.889 492.305 -103.889 659.451 -103.889 c 2,19,-1
 680.357 -103.889 l 1,20,-1
 703.337 -103.399 l 2,21,22
 849.945 -100.275 849.945 -100.275 912.423 -50.374 c 128,-1,23
 974.9 -0.47168 974.9 -0.47168 974.9 102.131 c 2,24,-1
 974.9 143.131 l 2,25,26
 974.9 563.294 974.9 563.294 974.528 583.197 c 2,27,-1
 972.504 635.865 l 1,28,-1
 1256.33 636.115 l 1,29,-1
 1256.99 371.97 l 2,30,31
 1257.05 346.189 1257.05 346.189 1264.29 328.099 c 0,32,33
 1286.18 273.419 1286.18 273.419 1395.64 272.188 c 0,34,35
 1454.06 271.498 1454.06 271.498 1486.65 281.804 c 128,-1,36
 1519.24 292.109 1519.24 292.109 1529.22 308.354 c 128,-1,37
 1539.2 324.599 1539.2 324.599 1539.13 351.562 c 2,38,-1
 1538.39 636.07 l 1,39,-1
 1806.28 636.07 l 1,40,-1
 1806.99 373.888 l 2,41,42
 1807.14 317.194 1807.14 317.194 1830.52 295.974 c 128,-1,43
 1853.9 274.753 1853.9 274.753 1918.48 276.252 c 2,44,-1
 1938.01 276.734 l 2,45,46
 1992.06 278.071 1992.06 278.071 2014.86 305.625 c 128,-1,47
 2037.66 333.179 2037.66 333.179 2037.66 406.5 c 2,48,-1
 2037.66 730.5 l 1,49,-1
 2309.66 730.5 l 1,50,-1
 2309.66 417.5 l 2,51,52
 2309.66 219.058 2309.66 219.058 2218.36 109.529 c 128,-1,53
 2127.07 0 2127.07 0 1953.04 0 c 2,54,-1
 1882.04 0 l 2,55,56
 1756.16 0 1756.16 0 1684.64 65.3516 c 0,57,58
 1674.65 74.4824 1674.65 74.4824 1665.53 84.832 c 1,59,60
 1580.79 -1.27051 1580.79 -1.27051 1388.59 0.00195312 c 0,0,1
EndSplineSet
Substitution2: "'fina' Terminal Forms in Arabic lookup 9 subtable" uniFEB2
Substitution2: "'medi' Medial Forms in Arabic lookup 11 subtable" uniFEB4
Substitution2: "'init' Initial Forms in Arabic lookup 13 subtable" uniFEB3
EndChar

StartChar: uni0635
Encoding: 1589 1589 58
Width: 2346
VWidth: 2237
GlyphClass: 2
Flags: W
AnchorPoint: "Anchor-10" 481.84 902.5 basechar 0
AnchorPoint: "Anchor-7" 431.84 -616.5 basechar 0
LayerCount: 2
Fore
SplineSet
1502.94 292.069 m 1,0,-1
 1715.41 292.069 l 2,1,2
 1834.39 292.069 1834.39 292.069 1903.75 321.477 c 0,3,4
 1944.08 338.584 1944.08 338.584 1961.29 369.278 c 128,-1,5
 1978.49 399.972 1978.49 399.972 1975.65 455.575 c 0,6,7
 1972.71 511.511 1972.71 511.511 1948.93 532.872 c 128,-1,8
 1925.16 554.234 1925.16 554.234 1864.92 553.243 c 0,9,10
 1793.91 551.697 1793.91 551.697 1686.67 460.646 c 0,11,12
 1569.71 361.354 1569.71 361.354 1502.94 292.069 c 1,0,-1
1210.9 470.251 m 1,13,14
 1214.15 436.835 1214.15 436.835 1224.76 426.736 c 128,-1,15
 1235.38 416.637 1235.38 416.637 1265.29 415.999 c 1,16,17
 1301.06 454.373 1301.06 454.373 1431.64 584.633 c 0,18,19
 1564.5 717.152 1564.5 717.152 1685.19 776.17 c 0,20,21
 1842.96 853.322 1842.96 853.322 2023.92 803.402 c 0,22,23
 2137.63 772.368 2137.63 772.368 2195.13 673.998 c 128,-1,24
 2252.64 575.627 2252.64 575.627 2254.71 424.456 c 0,25,26
 2255.9 313.048 2255.9 313.048 2205.68 222.064 c 128,-1,27
 2155.45 131.082 2155.45 131.082 2058 66.127 c 0,28,29
 1959.23 -0.24707 1959.23 -0.24707 1819.79 0 c 2,30,-1
 1441.62 0.668945 l 2,31,32
 1293.5 0.931641 1293.5 0.931641 1205 46.2188 c 1,33,34
 1189.38 -159.228 1189.38 -159.228 1048.81 -268.001 c 128,-1,35
 908.241 -376.775 908.241 -376.775 660.833 -384.344 c 2,36,-1
 643.681 -384.869 l 1,37,-1
 619.601 -384.869 l 2,38,39
 340.389 -384.869 340.389 -384.869 190.181 -262.303 c 128,-1,40
 39.9727 -139.736 39.9727 -139.736 39.9727 97.6299 c 2,41,-1
 39.9727 330.131 l 2,42,43
 39.9727 404.279 39.9727 404.279 77.7881 452.455 c 128,-1,44
 115.604 500.63 115.604 500.63 184.901 500.63 c 2,45,-1
 311.973 500.63 l 1,46,-1
 311.973 98.6299 l 2,47,48
 311.973 -3.66113 311.973 -3.66113 383.139 -53.7754 c 128,-1,49
 454.305 -103.889 454.305 -103.889 621.451 -103.889 c 2,50,-1
 642.357 -103.889 l 1,51,-1
 665.337 -103.399 l 2,52,53
 811.946 -100.275 811.946 -100.275 874.424 -50.374 c 128,-1,54
 936.901 -0.47168 936.901 -0.47168 936.901 102.131 c 2,55,-1
 936.901 143.131 l 2,56,57
 936.901 563.247 936.901 563.247 936.528 583.194 c 2,58,-1
 934.498 635.885 l 1,59,-1
 1210.9 636.026 l 1,60,-1
 1210.9 470.251 l 1,13,14
EndSplineSet
Substitution2: "'fina' Terminal Forms in Arabic lookup 9 subtable" uniFEBA
Substitution2: "'medi' Medial Forms in Arabic lookup 11 subtable" uniFEBC
Substitution2: "'init' Initial Forms in Arabic lookup 13 subtable" uniFEBB
EndChar

StartChar: uni0637
Encoding: 1591 1591 60
Width: 1464
VWidth: 2237
GlyphClass: 2
Flags: W
AnchorPoint: "Anchor-10" 278.72 1578.47 basechar 0
AnchorPoint: "Anchor-7" 568.72 -266 basechar 0
LayerCount: 2
Fore
SplineSet
621.164 292.071 m 1,0,-1
 833.638 292.071 l 2,1,2
 952.613 292.071 952.613 292.071 1021.96 321.479 c 0,3,4
 1062.28 338.578 1062.28 338.578 1079.5 369.288 c 128,-1,5
 1096.72 399.999 1096.72 399.999 1093.88 455.483 c 0,6,7
 1090.94 511.522 1090.94 511.522 1067.17 532.88 c 128,-1,8
 1043.4 554.236 1043.4 554.236 983.146 553.245 c 0,9,10
 912.142 551.7 912.142 551.7 804.892 460.649 c 0,11,12
 687.905 361.328 687.905 361.328 621.164 292.071 c 1,0,-1
455.01 491.786 m 1,13,14
 494.642 530.899 494.642 530.899 550.259 585.021 c 0,15,16
 687.763 719.625 687.763 719.625 803.408 776.171 c 0,17,18
 961.188 853.323 961.188 853.323 1142.14 803.404 c 0,19,20
 1255.86 772.368 1255.86 772.368 1313.36 674.002 c 128,-1,21
 1370.86 575.637 1370.86 575.637 1372.93 424.417 c 0,22,23
 1374.12 313.072 1374.12 313.072 1323.89 222.066 c 128,-1,24
 1273.65 131.061 1273.65 131.061 1176.25 66.1475 c 0,25,26
 1077.9 0.0449219 1077.9 0.0449219 938.614 0.000976562 c 2,27,-1
 559.929 0.670898 l 1,28,-1
 30.5996 -0.0712891 l 1,29,-1
 30.5996 280.98 l 1,30,-1
 186.13 280.98 l 1,31,-1
 186.13 1302.89 l 1,32,-1
 455.01 1302.89 l 1,33,-1
 455.01 491.786 l 1,13,14
EndSplineSet
Substitution2: "'fina' Terminal Forms in Arabic lookup 9 subtable" uniFEC2
Substitution2: "'medi' Medial Forms in Arabic lookup 11 subtable" uniFEC4
Substitution2: "'init' Initial Forms in Arabic lookup 13 subtable" uniFEC3
EndChar

StartChar: uni0639
Encoding: 1593 1593 62
Width: 1362
VWidth: 2237
GlyphClass: 2
Flags: W
AnchorPoint: "Anchor-10" 520.325 1403.51 basechar 0
AnchorPoint: "Anchor-7" 345.235 -674.76 basechar 0
LayerCount: 2
Fore
SplineSet
665.802 -238.473 m 0,0,1
 918.222 -226.565 918.222 -226.565 1110.13 -127.533 c 2,2,-1
 1169.46 -96.918 l 1,3,-1
 1226.65 -364.833 l 1,4,-1
 1190.62 -382.254 l 2,5,6
 1005.73 -471.645 1005.73 -471.645 778.889 -496.858 c 0,7,8
 641.748 -512.418 641.748 -512.418 522.382 -500.749 c 0,9,10
 272.271 -477.321 272.271 -477.321 143.234 -320.678 c 0,11,12
 7.73274 -156.505 7.73274 -156.505 31.5117 78.041 c 0,13,14
 59.859 357.648 59.859 357.648 315.801 521.219 c 1,15,16
 296.555 532.723 296.555 532.723 277.224 547.545 c 0,17,18
 153.561 642.357 153.561 642.357 147.282 817.304 c 0,19,20
 142.733 962.399 142.733 962.399 212.472 1061.36 c 128,-1,21
 282.21 1160.31 282.21 1160.31 418.98 1201.97 c 0,22,23
 610.412 1259.43 610.412 1259.43 853.28 1136.53 c 2,24,-1
 891.173 1117.35 l 1,25,-1
 821.376 880.311 l 1,26,-1
 767.167 906.688 l 2,27,28
 630.128 973.36 630.128 973.36 536.139 958.677 c 0,29,30
 465.012 947.565 465.012 947.565 436.446 917.648 c 128,-1,31
 407.88 887.732 407.88 887.732 407.88 829.72 c 0,32,33
 407.88 781.929 407.88 781.929 422.769 754.662 c 128,-1,34
 437.658 727.395 437.658 727.395 469.131 711.6 c 0,35,36
 502.986 694.608 502.986 694.608 525.065 690.386 c 1,37,-1
 999.04 733.75 l 1,38,-1
 999.04 461.021 l 1,39,-1
 953.078 456.457 l 2,40,41
 687.314 430.075 687.314 430.075 538.33 345.028 c 0,42,43
 313.843 215.34 313.843 215.34 306.54 49.7842 c 0,44,45
 300.487 -95.3037 300.487 -95.3037 392.986 -165.175 c 0,46,47
 501.444 -245.909 501.444 -245.909 665.802 -238.473 c 0,0,1
EndSplineSet
Substitution2: "'fina' Terminal Forms in Arabic lookup 9 subtable" uniFECA
Substitution2: "'medi' Medial Forms in Arabic lookup 11 subtable" uniFECC
Substitution2: "'init' Initial Forms in Arabic lookup 13 subtable" uniFECB
EndChar

StartChar: afii57440
Encoding: 1600 1600 64
Width: 642
VWidth: 2237
GlyphClass: 2
Flags: W
AnchorPoint: "Anchor-10" 321 1330.5 basechar 0
AnchorPoint: "Anchor-7" 321 -60.5 basechar 0
LayerCount: 2
Fore
SplineSet
-59.4004 0 m 5,0,-1
 -59.4004 280.979 l 5,1,-1
 701.4 280.979 l 1,2,-1
 701.4 0 l 1,3,-1
 -59.4004 0 l 5,0,-1
EndSplineSet
EndChar

StartChar: uni0643
Encoding: 1603 1603 67
Width: 1698
VWidth: 2237
GlyphClass: 2
Flags: W
AnchorPoint: "Anchor-10" 531 1450.5 basechar 0
AnchorPoint: "Anchor-7" 509 -191.5 basechar 0
LayerCount: 2
Fore
SplineSet
1184.86 0 m 2,0,-1
 416.605 0 l 2,1,2
 232.824 0.0654297 232.824 0.0654297 136.411 114.249 c 128,-1,3
 39.998 228.432 39.998 228.432 39.9971 436.499 c 2,4,-1
 39.9961 730.499 l 1,5,-1
 311.996 730.499 l 1,6,-1
 311.996 445.499 l 2,7,8
 311.996 351.388 311.996 351.388 338.098 316.184 c 128,-1,9
 364.199 280.98 364.199 280.98 420.475 280.98 c 2,10,-1
 1191.01 280.98 l 2,11,12
 1247.36 280.98 1247.36 280.98 1273.43 315.966 c 128,-1,13
 1299.49 350.951 1299.49 350.951 1299.49 444.499 c 2,14,-1
 1299.49 1302.5 l 1,15,-1
 1571.49 1302.5 l 1,16,-1
 1571.49 467.499 l 2,17,18
 1571.49 244.524 1571.49 244.524 1473.01 122.263 c 128,-1,19
 1374.53 -0 1374.53 -0 1184.86 0 c 2,0,-1
1023.9 1259.33 m 1,20,-1
 1023.9 1095.87 l 1,21,-1
 976.351 1092.65 l 2,22,23
 911.437 1088.25 911.437 1088.25 879.269 1076.4 c 0,24,25
 830.646 1058.16 830.646 1058.16 818.493 1042.28 c 1,26,27
 818.953 1028.69 818.953 1028.69 823.983 1020.77 c 1,28,29
 840.537 1011.94 840.537 1011.94 886.57 1005.17 c 0,30,31
 952.93 995.415 952.93 995.415 990.512 961.085 c 0,32,33
 1033.18 922.117 1033.18 922.117 1033.18 857.369 c 0,34,35
 1033.18 794.777 1033.18 794.777 1002.53 744.356 c 128,-1,36
 971.873 693.936 971.873 693.936 915.536 662.077 c 0,37,38
 834.079 616.012 834.079 616.012 725.053 615 c 0,39,40
 657.372 615 657.372 615 598.46 625.339 c 2,41,-1
 556.277 632.743 l 1,42,-1
 556.277 802.37 l 1,43,-1
 614.159 794.486 l 2,44,45
 674.789 786.229 674.789 786.229 715.188 786.229 c 0,46,47
 779.371 786.229 779.371 786.229 817.952 801.419 c 0,48,49
 839.911 809.852 839.911 809.852 851.982 818.637 c 128,-1,50
 864.053 827.421 864.053 827.421 865.316 830.493 c 128,-1,51
 866.58 833.565 866.58 833.565 866.58 835.969 c 2,52,-1
 864.666 841.348 l 1,53,54
 855.647 850.674 855.647 850.674 815.92 857.147 c 0,55,56
 740.897 868.578 740.897 868.578 697.054 913.421 c 0,57,58
 649.77 961.783 649.77 961.783 651.519 1042.28 c 0,59,60
 652.82 1094.91 652.82 1094.91 679.891 1136.67 c 128,-1,61
 706.96 1178.43 706.96 1178.43 754.611 1202.58 c 0,62,63
 847.53 1249.59 847.53 1249.59 970.086 1256.36 c 2,64,-1
 1023.9 1259.33 l 1,20,-1
EndSplineSet
Substitution2: "'fina' Terminal Forms in Arabic lookup 9 subtable" uniFEDA
Substitution2: "'medi' Medial Forms in Arabic lookup 11 subtable" uniFEDC
Substitution2: "'init' Initial Forms in Arabic lookup 13 subtable" uniFEDB
EndChar

StartChar: uni0644
Encoding: 1604 1604 68
Width: 1300
VWidth: 2237
GlyphClass: 2
Flags: W
AnchorPoint: "Anchor-10" 401.01 1125.5 basechar 0
AnchorPoint: "Anchor-7" 369.15 -460.616 basechar 0
LayerCount: 2
Fore
SplineSet
1207.46 145.864 m 1,0,-1
 1206.9 97.5381 l 2,1,2
 1204.25 -131.048 1204.25 -131.048 1063.04 -253.703 c 128,-1,3
 921.831 -376.359 921.831 -376.359 660.833 -384.344 c 2,4,-1
 643.681 -384.869 l 1,5,-1
 619.601 -384.869 l 2,6,7
 340.389 -384.869 340.389 -384.869 190.181 -262.303 c 128,-1,8
 39.9727 -139.736 39.9727 -139.736 39.9727 97.6299 c 2,9,-1
 39.9727 330.131 l 2,10,11
 39.9727 404.279 39.9727 404.279 77.7881 452.455 c 128,-1,12
 115.604 500.63 115.604 500.63 184.901 500.63 c 2,13,-1
 311.973 500.63 l 1,14,-1
 311.973 98.6299 l 2,15,16
 311.973 -3.66113 311.973 -3.66113 383.139 -53.7754 c 128,-1,17
 454.305 -103.889 454.305 -103.889 621.451 -103.889 c 2,18,-1
 642.357 -103.889 l 1,19,-1
 665.337 -103.399 l 2,20,21
 811.774 -100.281 811.774 -100.281 875.131 -50.1484 c 128,-1,22
 938.487 -0.0146484 938.487 -0.0146484 939.906 102.837 c 2,23,-1
 940.462 143.008 l 2,24,25
 939.91 169.286 939.91 169.286 939.91 430.32 c 2,26,-1
 939.91 1302.03 l 1,27,-1
 1207.79 1302.03 l 1,28,-1
 1207.79 430.259 l 2,29,30
 1207.62 289.302 1207.62 289.302 1207.46 145.864 c 1,0,-1
EndSplineSet
Substitution2: "'fina' Terminal Forms in Arabic lookup 9 subtable" uniFEDE
Substitution2: "'medi' Medial Forms in Arabic lookup 11 subtable" uniFEE0
Substitution2: "'init' Initial Forms in Arabic lookup 13 subtable" uniFEDF
EndChar

StartChar: uni0645
Encoding: 1605 1605 69
Width: 1187
VWidth: 2237
GlyphClass: 2
Flags: W
AnchorPoint: "Anchor-10" 544.5 1154.31 basechar 0
AnchorPoint: "Anchor-7" 127.631 -633.952 basechar 0
LayerCount: 2
Fore
SplineSet
732.581 489.382 m 0,0,1
 671.636 487.979 671.636 487.979 637.583 486.284 c 5,2,3
 633.562 435.998 633.562 435.998 636.336 396.231 c 0,4,5
 642.336 310.202 642.336 310.202 672.807 279.193 c 128,-1,6
 703.276 248.185 703.276 248.185 768.972 252.869 c 0,7,8
 829.685 257.224 829.685 257.224 833.023 401.516 c 0,9,10
 833.136 406.67 833.136 406.67 832.995 411.56 c 0,11,12
 831.678 457.269 831.678 457.269 811.364 474.187 c 128,-1,13
 791.051 491.104 791.051 491.104 732.581 489.382 c 0,0,1
1050.6 168.575 m 0,14,15
 1011.2 87.5938 1011.2 87.5938 941.581 43.4551 c 0,16,17
 872.497 -0.348633 872.497 -0.348633 780.003 -3.61035 c 0,18,19
 669.329 -7.17188 669.329 -7.17188 593.727 21.293 c 0,20,21
 477.01 65.5742 477.01 65.5742 420.956 173.85 c 128,-1,22
 364.902 282.124 364.902 282.124 368.041 441.082 c 1,23,24
 306.202 381.216 306.202 381.216 307 193.108 c 2,25,-1
 307 -427 l 1,26,-1
 39 -427 l 1,27,-1
 39 273.734 l 1,28,-1
 39.1182 275.466 l 2,29,30
 53.417 485.395 53.417 485.395 154.086 607.682 c 128,-1,31
 254.756 729.969 254.756 729.969 435.373 749.663 c 2,32,-1
 438.534 750.002 l 1,33,-1
 812.491 750.001 l 1,34,35
 938.987 748.858 938.987 748.858 1012.02 671.58 c 128,-1,36
 1085.05 594.302 1085.05 594.302 1095.31 457.125 c 0,37,38
 1107.68 285.862 1107.68 285.862 1050.6 168.575 c 0,14,15
EndSplineSet
Substitution2: "'init' Initial Forms in Arabic lookup 13 subtable" uniFEE3
Substitution2: "'medi' Medial Forms in Arabic lookup 11 subtable" uniFEE4
Substitution2: "'fina' Terminal Forms in Arabic lookup 9 subtable" uniFEE2
EndChar

StartChar: uni0647
Encoding: 1607 1607 71
Width: 951
VWidth: 2237
GlyphClass: 2
Flags: W
AnchorPoint: "Anchor-10" 438.924 1205.58 basechar 0
AnchorPoint: "Anchor-7" 337.864 -189.56 basechar 0
LayerCount: 2
Fore
SplineSet
324.955 350.809 m 1,0,1
 318.232 319.498 318.232 319.498 329.51 301.746 c 128,-1,2
 340.788 283.995 340.788 283.995 382.921 267.95 c 0,3,4
 451.923 241.674 451.923 241.674 537.98 260.463 c 0,5,6
 586.351 271.059 586.351 271.059 593.81 296.563 c 0,7,8
 602.033 324.903 602.033 324.903 586.075 371.347 c 1,9,10
 534.827 468.473 534.827 468.473 458.445 545.307 c 1,11,12
 354.496 433.576 354.496 433.576 324.955 350.809 c 1,0,1
119.939 531.103 m 0,13,14
 181.301 630.918 181.301 630.918 265.994 723.066 c 1,15,-1
 228.857 754.999 l 1,16,-1
 397.855 935.774 l 1,17,-1
 434.286 909.451 l 2,18,19
 738.025 689.972 738.025 689.972 819.079 493.235 c 0,20,21
 857.616 399.129 857.616 399.129 860.706 317.638 c 128,-1,22
 863.797 236.146 863.797 236.146 828.412 168.856 c 128,-1,23
 793.027 101.567 793.027 101.567 719.245 56.8447 c 0,24,25
 628.828 2.03906 628.828 2.03906 467.821 3.53223 c 0,26,27
 318.651 4.93555 318.651 4.93555 233.76 45.499 c 0,28,29
 69.0859 124.324 69.0859 124.324 46.8848 269.516 c 0,30,31
 29.8564 386.381 29.8564 386.381 119.939 531.103 c 0,13,14
EndSplineSet
Substitution2: "'fina' Terminal Forms in Arabic lookup 9 subtable" uniFEEA
Substitution2: "'medi' Medial Forms in Arabic lookup 11 subtable" uniFEEC
Substitution2: "'init' Initial Forms in Arabic lookup 13 subtable" uniFEEB
EndChar

StartChar: uni0648
Encoding: 1608 1608 72
Width: 836
VWidth: 2237
GlyphClass: 2
Flags: W
AnchorPoint: "Anchor-10" 331.282 1088.17 basechar 0
AnchorPoint: "Anchor-7" 422.191 -530.443 basechar 0
LayerCount: 2
Fore
SplineSet
407.474 494.703 m 0,0,1
 368.007 496.369 368.007 496.369 346.187 486.378 c 128,-1,2
 324.367 476.386 324.367 476.386 311.506 454.67 c 0,3,4
 301.021 436.967 301.021 436.967 296.193 369.152 c 0,5,6
 291.504 303.256 291.504 303.256 311.169 287.719 c 0,7,8
 325.589 277.314 325.589 277.314 364.11 273.332 c 128,-1,9
 402.632 269.351 402.632 269.351 476.369 276.397 c 1,10,11
 478.876 353.694 478.876 353.694 472.948 406.05 c 128,-1,12
 467.02 458.405 467.02 458.405 458.234 473.937 c 0,13,14
 447.44 493.017 447.44 493.017 407.474 494.703 c 0,0,1
743.767 305.549 m 0,15,16
 742.634 273.793 742.634 273.793 742.634 57 c 2,17,-1
 742.634 36 l 2,18,19
 742.634 -195.13 742.634 -195.13 632.026 -320.114 c 128,-1,20
 521.418 -445.1 521.418 -445.1 310.954 -445.042 c 2,21,-1
 83.0752 -444.979 l 1,22,-1
 82.9219 -164.952 l 1,23,-1
 274.992 -165.042 l 2,24,25
 379.814 -165.092 379.814 -165.092 422.224 -128.926 c 128,-1,26
 464.634 -92.7598 464.634 -92.7598 464.634 -11.0088 c 2,27,-1
 464.634 -1.5791 l 1,28,29
 436.914 -2.10645 436.914 -2.10645 397.108 -2.20703 c 0,30,31
 202.046 -3.28125 202.046 -3.28125 113.322 91.8799 c 0,32,33
 31.9932 179.109 31.9932 179.109 40.4209 395.998 c 0,34,35
 45.7871 522.867 45.7871 522.867 101.596 610.526 c 0,36,37
 150.941 688.085 150.941 688.085 228.779 726.854 c 128,-1,38
 306.617 765.624 306.617 765.624 405.626 763.617 c 0,39,40
 536.811 760.942 536.811 760.942 620.148 687.609 c 128,-1,41
 703.486 614.276 703.486 614.276 728.448 481.173 c 0,42,43
 746.582 384.479 746.582 384.479 743.767 305.549 c 0,15,16
EndSplineSet
Substitution2: "'fina' Terminal Forms in Arabic lookup 9 subtable" uniFEEE
EndChar

StartChar: uni0649
Encoding: 1609 1609 73
Width: 1343
VWidth: 2237
GlyphClass: 2
Flags: W
AnchorPoint: "Anchor-10" 401.847 1107.66 basechar 0
AnchorPoint: "Anchor-7" 230.548 -504.146 basechar 0
LayerCount: 2
Fore
SplineSet
679.271 -433 m 1,0,-1
 611.699 -433 l 2,1,2
 334.363 -433 334.363 -433 187.217 -294.383 c 128,-1,3
 40.0713 -155.767 40.0713 -155.767 40.0713 108.499 c 2,4,-1
 40.0713 375 l 2,5,6
 40.0713 449.148 40.0713 449.148 77.8867 497.324 c 128,-1,7
 115.703 545.499 115.703 545.499 185 545.499 c 2,8,-1
 312.07 545.499 l 1,9,-1
 312.07 109.499 l 2,10,11
 312.07 -26.6709 312.07 -26.6709 382.731 -89.3467 c 128,-1,12
 453.393 -152.021 453.393 -152.021 613.55 -152.02 c 2,13,-1
 678.766 -152.02 l 1,14,-1
 733.053 -151.521 l 2,15,16
 873.332 -150.232 873.332 -150.232 933.166 -100.372 c 128,-1,17
 993 -50.5127 993 -50.5127 993 56 c 2,18,-1
 993 66 l 2,19,20
 993 69.3262 993 69.3262 992.623 72.1416 c 1,21,22
 989.533 72.5928 989.533 72.5928 985.842 72.6035 c 2,23,-1
 822.842 73.1094 l 2,24,25
 727.308 73.4062 727.308 73.4062 671.455 127.321 c 128,-1,26
 615.603 181.237 615.603 181.237 615.603 275.109 c 2,27,-1
 615.603 398.109 l 2,28,29
 615.603 586.155 615.603 586.155 705.788 689.882 c 128,-1,30
 795.975 793.608 795.975 793.608 966.231 793.608 c 2,31,-1
 1100.8 793.608 l 2,32,33
 1151.83 793.608 1151.83 793.608 1181.91 763.925 c 0,34,35
 1212.53 733.707 1212.53 733.707 1212.53 681.639 c 2,36,-1
 1212.53 512.628 l 1,37,-1
 931.081 512.628 l 2,38,39
 921.884 512.628 921.884 512.628 915.751 509.874 c 128,-1,40
 909.617 507.12 909.617 507.12 902.348 497.692 c 128,-1,41
 895.078 488.265 895.078 488.265 891.341 465.452 c 128,-1,42
 887.603 442.64 887.603 442.64 887.603 407.109 c 2,43,-1
 887.603 396.109 l 2,44,45
 887.603 367.148 887.603 367.148 887.532 345 c 1,46,-1
 1012 345 l 2,47,48
 1129.83 345 1129.83 345 1196.42 279.083 c 128,-1,49
 1263 213.166 1263 213.166 1263 96 c 2,50,-1
 1263 71 l 2,51,52
 1263 -171.969 1263 -171.969 1124.65 -300.858 c 128,-1,53
 986.304 -429.749 986.304 -429.749 726.911 -432.496 c 2,54,-1
 679.271 -433 l 1,0,-1
EndSplineSet
Substitution2: "'fina' Terminal Forms in Arabic lookup 9 subtable" uniFEF0
Substitution2: "'medi' Medial Forms in Arabic lookup 11 subtable" uniFBE9
Substitution2: "'init' Initial Forms in Arabic lookup 13 subtable" uniFBE8
EndChar

StartChar: uni064B
Encoding: 1611 1611 75
Width: 0
VWidth: 2186
GlyphClass: 4
Flags: W
AnchorPoint: "Anchor-10" 547.84 1041.5 mark 0
AnchorPoint: "Anchor-9" 547.84 1041.5 mark 0
AnchorPoint: "Anchor-1" 547.84 1576.5 basemark 0
AnchorPoint: "Anchor-1" 547.84 1041.5 mark 0
LayerCount: 2
Fore
SplineSet
269.4 977.41 m 5,0,-1
 269.4 1104.48 l 5,1,-1
 827.28 1332.79 l 5,2,-1
 827.28 1205.72 l 5,3,-1
 269.4 977.41 l 5,0,-1
269.4 1234.21 m 5,4,-1
 269.4 1361.28 l 5,5,-1
 827.28 1589.59 l 5,6,-1
 827.28 1462.52 l 5,7,-1
 269.4 1234.21 l 5,4,-1
EndSplineSet
EndChar

StartChar: uni064C
Encoding: 1612 1612 76
Width: 0
VWidth: 2186
GlyphClass: 4
Flags: W
AnchorPoint: "Anchor-10" 554.386 1155.44 mark 0
AnchorPoint: "Anchor-9" 554.386 1155.44 mark 0
AnchorPoint: "Anchor-1" 546.386 1810.94 basemark 0
AnchorPoint: "Anchor-1" 554.386 1155.44 mark 0
LayerCount: 2
Fore
SplineSet
567.219 1298.72 m 0,0,1
 608.391 1338.78 608.391 1338.78 631.845 1385.69 c 2,2,-1
 639.364 1400.73 l 1,3,-1
 622.913 1404.22 l 2,4,5
 589.558 1411.29 589.558 1411.29 566.532 1424.31 c 0,6,7
 457.736 1481.73 457.736 1481.73 457.736 1574.47 c 0,8,9
 457.736 1661.08 457.736 1661.08 526.365 1712.8 c 0,10,11
 552.86 1732.67 552.86 1732.67 615.937 1732.67 c 0,12,13
 688.759 1732.67 688.759 1732.67 727.738 1694.66 c 0,14,15
 782.696 1640.71 782.696 1640.71 782.696 1561.63 c 0,16,17
 782.696 1521.9 782.696 1521.9 770.46 1483.15 c 2,18,-1
 765.402 1467.14 l 1,19,-1
 782.175 1466.26 l 2,20,21
 802.247 1465.2 802.247 1465.2 817.806 1465.17 c 0,22,23
 831.205 1464.45 831.205 1464.45 845.826 1464.2 c 1,24,-1
 845.826 1372.44 l 1,25,26
 806.232 1372.69 806.232 1372.69 788.381 1374.48 c 2,27,-1
 723.27 1380.74 l 1,28,-1
 719.537 1371.99 l 2,29,30
 692.652 1308.91 692.652 1308.91 614.12 1227.24 c 1,31,32
 527.043 1139.14 527.043 1139.14 431.896 1139.14 c 0,33,34
 319.02 1139.14 319.02 1139.14 262.205 1295.39 c 0,35,36
 247.89 1334.51 247.89 1334.51 246.994 1442.7 c 1,37,-1
 317.299 1442.7 l 1,38,39
 318.143 1347.11 318.143 1347.11 331.307 1318.59 c 0,40,41
 372.26 1230.84 372.26 1230.84 431.896 1230.84 c 0,42,43
 497.076 1230.84 497.076 1230.84 567.219 1298.72 c 0,0,1
669.292 1482.64 m 1,44,-1
 680.316 1508.36 l 2,45,46
 690.996 1533.28 690.996 1533.28 690.996 1561.63 c 0,47,48
 690.996 1604.15 690.996 1604.15 668.07 1623.02 c 0,49,50
 646.28 1640.97 646.28 1640.97 620.217 1640.97 c 0,51,52
 591.787 1640.97 591.787 1640.97 575.875 1628.63 c 0,53,54
 551.576 1610.34 551.576 1610.34 551.576 1574.47 c 0,55,56
 551.576 1526.08 551.576 1526.08 607.898 1503.55 c 0,57,58
 629.803 1494.79 629.803 1494.79 658.123 1486.08 c 2,59,-1
 669.292 1482.64 l 1,44,-1
EndSplineSet
EndChar

StartChar: uni064D
Encoding: 1613 1613 77
Width: 0
VWidth: 2186
GlyphClass: 4
Flags: W
AnchorPoint: "Anchor-7" 531.84 75.5 mark 0
AnchorPoint: "Anchor-6" 531.84 75.5 mark 0
AnchorPoint: "Anchor-0" 547.84 -439.5 basemark 0
AnchorPoint: "Anchor-0" 531.84 75.5 mark 0
LayerCount: 2
Fore
SplineSet
270.96 -512.18 m 5,0,-1
 270.96 -385.109 l 5,1,-1
 828.84 -156.8 l 5,2,-1
 828.84 -283.87 l 5,3,-1
 270.96 -512.18 l 5,0,-1
270.96 -255.38 m 5,4,-1
 270.96 -128.31 l 5,5,-1
 828.84 100 l 5,6,-1
 828.84 -27.0703 l 5,7,-1
 270.96 -255.38 l 5,4,-1
EndSplineSet
EndChar

StartChar: uni064E
Encoding: 1614 1614 78
Width: 0
VWidth: 2186
GlyphClass: 4
Flags: W
AnchorPoint: "Anchor-10" 517.84 1279.5 mark 0
AnchorPoint: "Anchor-9" 517.84 1279.5 mark 0
AnchorPoint: "Anchor-1" 517.84 1600.5 basemark 0
AnchorPoint: "Anchor-1" 517.84 1279.5 mark 0
LayerCount: 2
Fore
SplineSet
237.4 1237.41 m 1,0,-1
 237.4 1364.48 l 1,1,-1
 795.28 1592.79 l 5,2,-1
 795.28 1465.72 l 1,3,-1
 237.4 1237.41 l 1,0,-1
EndSplineSet
EndChar

StartChar: uni064F
Encoding: 1615 1615 79
Width: 0
VWidth: 2186
GlyphClass: 4
Flags: W
AnchorPoint: "Anchor-10" 531.84 1205.5 mark 0
AnchorPoint: "Anchor-9" 531.84 1205.5 mark 0
AnchorPoint: "Anchor-1" 547.84 1825 basemark 0
AnchorPoint: "Anchor-1" 531.84 1205.5 mark 0
LayerCount: 2
Fore
SplineSet
594.529 1426.81 m 6,0,1
 586.598 1428.57 586.598 1428.57 567.734 1438.5 c 4,2,3
 459.19 1494.78 459.19 1494.78 459.19 1588.53 c 4,4,5
 459.19 1675.14 459.19 1675.14 527.819 1726.86 c 4,6,7
 554.314 1746.73 554.314 1746.73 617.39 1746.73 c 4,8,9
 690.212 1746.73 690.212 1746.73 729.192 1708.72 c 4,10,11
 784.15 1654.77 784.15 1654.77 784.15 1575.69 c 4,12,13
 784.15 1543.43 784.15 1543.43 769.757 1497.16 c 6,14,-1
 764.821 1481.3 l 5,15,-1
 781.407 1480.32 l 6,16,17
 799.81 1479.24 799.81 1479.24 819.259 1478.7 c 4,18,19
 832.229 1478.34 832.229 1478.34 847.28 1478.21 c 5,20,-1
 847.28 1386.53 l 5,21,22
 817.029 1386.85 817.029 1386.85 789.455 1388.57 c 4,23,24
 757.6 1390.7 757.6 1390.7 727.915 1393.88 c 6,25,-1
 720.312 1394.69 l 5,26,-1
 715.905 1388.44 l 6,27,28
 671.45 1325.37 671.45 1325.37 599.88 1281.81 c 4,29,30
 398.294 1157.85 398.294 1157.85 248.4 1152.36 c 5,31,-1
 248.4 1244.01 l 5,32,33
 408.671 1248.65 408.671 1248.65 554.781 1363.22 c 4,34,35
 580.142 1383.07 580.142 1383.07 601.135 1405.16 c 6,36,-1
 616.962 1421.83 l 5,37,-1
 594.529 1426.81 l 6,0,1
670.746 1496.7 m 5,38,-1
 681.77 1522.42 l 6,39,40
 692.45 1547.34 692.45 1547.34 692.45 1575.69 c 4,41,42
 692.45 1618.21 692.45 1618.21 669.524 1637.08 c 4,43,44
 647.734 1655.03 647.734 1655.03 621.67 1655.03 c 4,45,46
 593.241 1655.03 593.241 1655.03 577.329 1642.69 c 4,47,48
 553.03 1624.4 553.03 1624.4 553.03 1588.53 c 4,49,50
 553.03 1540.14 553.03 1540.14 609.352 1517.61 c 4,51,52
 631.256 1508.85 631.256 1508.85 659.577 1500.14 c 6,53,-1
 670.746 1496.7 l 5,38,-1
EndSplineSet
EndChar

StartChar: uni0650
Encoding: 1616 1616 80
Width: 0
VWidth: 2186
GlyphClass: 4
Flags: W
AnchorPoint: "Anchor-7" 467.84 -12.5 mark 0
AnchorPoint: "Anchor-6" 467.84 -12.5 mark 0
AnchorPoint: "Anchor-0" 556.84 -311.5 basemark 0
AnchorPoint: "Anchor-0" 467.84 -12.5 mark 0
LayerCount: 2
Fore
SplineSet
267.96 -356.836 m 1,0,-1
 267.96 -229.766 l 1,1,-1
 825.84 -1.45605 l 1,2,-1
 825.84 -128.526 l 1,3,-1
 267.96 -356.836 l 1,0,-1
EndSplineSet
EndChar

StartChar: uni0651
Encoding: 1617 1617 81
Width: 0
VWidth: 2186
GlyphClass: 4
Flags: W
AnchorPoint: "Anchor-10" 547.84 1316.5 mark 0
AnchorPoint: "Anchor-9" 547.84 1316.5 mark 0
AnchorPoint: "Anchor-1" 535.84 1818.5 basemark 0
AnchorPoint: "Anchor-1" 547.84 1316.5 mark 0
LayerCount: 2
Fore
SplineSet
507.838 1339.09 m 128,-1,1
 469.58 1294.39 469.58 1294.39 378.78 1294.39 c 0,2,3
 301.302 1294.39 301.302 1294.39 261.261 1355.91 c 0,4,5
 227 1408.31 227 1408.31 227 1486.07 c 0,6,7
 227 1527.41 227 1527.41 242.222 1626.56 c 1,8,-1
 320.73 1626.56 l 1,9,10
 310.14 1502.98 310.14 1502.98 310.14 1459.89 c 0,11,12
 310.14 1394.86 310.14 1394.86 398.84 1393.09 c 0,13,14
 497.128 1391.16 497.128 1391.16 506.266 1518.54 c 0,15,16
 508.184 1545.08 508.184 1545.08 508.4 1680.83 c 1,17,-1
 586.06 1680.83 l 1,18,19
 588.34 1645.85 588.34 1645.85 588.34 1597.53 c 0,20,21
 588.34 1452.09 588.34 1452.09 700.84 1452.09 c 4,22,23
 785.54 1452.09 785.54 1452.09 785.54 1599.06 c 4,24,25
 785.54 1708.64 785.54 1708.64 774.521 1770.1 c 5,26,-1
 857.705 1770.1 l 5,27,28
 868.68 1694.87 868.68 1694.87 868.68 1580.87 c 4,29,30
 868.68 1511.69 868.68 1511.69 841.188 1456.65 c 4,31,32
 796.118 1367.27 796.118 1367.27 722.84 1358.99 c 4,33,34
 657.525 1351.76 657.525 1351.76 616.258 1379.33 c 4,35,36
 556.63 1418.62 556.63 1418.62 554.84 1431.09 c 1,37,38
 546.096 1383.79 546.096 1383.79 507.838 1339.09 c 128,-1,1
EndSplineSet
EndChar

StartChar: uni0652
Encoding: 1618 1618 82
Width: 0
VWidth: 2186
GlyphClass: 4
Flags: W
AnchorPoint: "Anchor-10" 565.84 1128.5 mark 0
AnchorPoint: "Anchor-9" 565.84 1128.5 mark 0
AnchorPoint: "Anchor-1" 551.84 1702 basemark 0
AnchorPoint: "Anchor-1" 565.84 1128.5 mark 0
LayerCount: 2
Fore
SplineSet
674.569 1383.62 m 0,0,1
 674.569 1428.15 674.569 1428.15 643.439 1459.28 c 128,-1,2
 612.312 1490.41 612.312 1490.41 567.126 1490.41 c 0,3,4
 521.285 1490.41 521.285 1490.41 490.485 1459.61 c 128,-1,5
 459.685 1428.81 459.685 1428.81 459.685 1383.62 c 0,6,7
 459.685 1337.78 459.685 1337.78 490.485 1306.98 c 128,-1,8
 521.285 1276.18 521.285 1276.18 567.126 1276.18 c 0,9,10
 612.314 1276.18 612.314 1276.18 643.439 1307.31 c 128,-1,11
 674.569 1338.44 674.569 1338.44 674.569 1383.62 c 0,0,1
750.396 1383.73 m 128,-1,13
 750.396 1306.88 750.396 1306.88 697.316 1253.46 c 128,-1,14
 644.259 1200.07 644.259 1200.07 567.436 1200.07 c 128,-1,15
 490.613 1200.07 490.613 1200.07 437.557 1253.46 c 128,-1,16
 384.476 1306.88 384.476 1306.88 384.476 1383.73 c 128,-1,17
 384.476 1460.56 384.476 1460.56 437.537 1513.63 c 128,-1,18
 490.596 1566.69 490.596 1566.69 567.436 1566.69 c 128,-1,19
 644.276 1566.69 644.276 1566.69 697.335 1513.63 c 128,-1,12
 750.396 1460.56 750.396 1460.56 750.396 1383.73 c 128,-1,13
EndSplineSet
EndChar

StartChar: uni0653
Encoding: 1619 1619 83
Width: 0
VWidth: 2186
GlyphClass: 4
Flags: W
AnchorPoint: "Anchor-10" 442.84 1264.52 mark 0
AnchorPoint: "Anchor-9" 442.84 1264.52 mark 0
AnchorPoint: "Anchor-1" 442.84 1600.5 basemark 0
AnchorPoint: "Anchor-1" 442.84 1264.52 mark 0
LayerCount: 2
Fore
SplineSet
109.638 1365.05 m 5,0,1
 212.289 1479.87 212.289 1479.87 287.73 1453.49 c 4,2,3
 442.183 1397.9 442.183 1397.9 515.207 1405.97 c 4,4,5
 587.354 1413.79 587.354 1413.79 656.914 1479.92 c 5,6,-1
 704.93 1408.22 l 5,7,8
 617.699 1349.9 617.699 1349.9 559.504 1324.21 c 4,9,10
 491.236 1295.05 491.236 1295.05 293.235 1356.78 c 4,11,12
 239.766 1372.07 239.766 1372.07 165.102 1302.38 c 5,13,-1
 109.638 1365.05 l 5,0,1
EndSplineSet
EndChar

StartChar: uni0657
Encoding: 1623 1623 86
Width: 0
VWidth: 2186
GlyphClass: 4
Flags: W
AnchorPoint: "Anchor-10" 547.84 1279.5 mark 0
AnchorPoint: "Anchor-9" 547.84 1279.5 mark 0
AnchorPoint: "Anchor-1" 547.84 1975 basemark 0
AnchorPoint: "Anchor-1" 547.84 1279.5 mark 0
LayerCount: 2
Fore
SplineSet
501.148 1675.55 m 2,0,1
 509.083 1673.79 509.083 1673.79 527.945 1663.86 c 0,2,3
 636.49 1607.58 636.49 1607.58 636.49 1513.83 c 0,4,5
 636.49 1427.22 636.49 1427.22 567.86 1375.5 c 0,6,7
 541.366 1355.63 541.366 1355.63 478.29 1355.63 c 0,8,9
 405.468 1355.63 405.468 1355.63 366.487 1393.64 c 0,10,11
 311.53 1447.59 311.53 1447.59 311.53 1526.67 c 0,12,13
 311.53 1558.94 311.53 1558.94 325.923 1605.2 c 2,14,-1
 330.858 1621.06 l 1,15,-1
 314.272 1622.04 l 2,16,17
 295.871 1623.12 295.871 1623.12 276.421 1623.66 c 0,18,19
 263.452 1624.02 263.452 1624.02 248.4 1624.15 c 1,20,-1
 248.4 1715.83 l 1,21,22
 278.631 1715.51 278.631 1715.51 306.226 1713.79 c 0,23,24
 338.082 1711.66 338.082 1711.66 367.766 1708.48 c 2,25,-1
 375.369 1707.67 l 1,26,-1
 379.775 1713.92 l 2,27,28
 424.231 1776.99 424.231 1776.99 495.801 1820.55 c 0,29,30
 697.387 1944.51 697.387 1944.51 847.28 1950 c 1,31,-1
 847.28 1858.35 l 1,32,33
 687.009 1853.71 687.009 1853.71 540.898 1739.14 c 0,34,35
 515.54 1719.29 515.54 1719.29 494.545 1697.2 c 2,36,-1
 478.72 1680.54 l 1,37,-1
 501.148 1675.55 l 2,0,1
424.935 1605.66 m 1,38,-1
 413.911 1579.94 l 2,39,40
 403.23 1555.02 403.23 1555.02 403.23 1526.67 c 0,41,42
 403.23 1484.16 403.23 1484.16 426.155 1465.28 c 0,43,44
 447.946 1447.33 447.946 1447.33 474.01 1447.33 c 0,45,46
 502.438 1447.33 502.438 1447.33 518.352 1459.67 c 0,47,48
 542.65 1477.96 542.65 1477.96 542.65 1513.83 c 0,49,50
 542.65 1562.22 542.65 1562.22 486.328 1584.75 c 0,51,52
 464.442 1593.51 464.442 1593.51 436.104 1602.22 c 2,53,-1
 424.935 1605.66 l 1,38,-1
EndSplineSet
EndChar

StartChar: uni065A
Encoding: 1626 1626 87
Width: 1095
VWidth: 2186
GlyphClass: 4
Flags: W
AnchorPoint: "Anchor-10" 547.84 1279.5 mark 0
AnchorPoint: "Anchor-9" 547.84 1279.5 mark 0
AnchorPoint: "Anchor-1" 545.7 1761 basemark 0
AnchorPoint: "Anchor-1" 547.84 1279.5 mark 0
LayerCount: 2
Fore
SplineSet
476.032 1358.84 m 1,0,-1
 282.934 1681.66 l 1,1,-1
 401.783 1681.66 l 1,2,-1
 547.84 1462.57 l 1,3,-1
 693.896 1681.66 l 1,4,-1
 812.746 1681.66 l 1,5,-1
 619.646 1358.84 l 1,6,-1
 476.032 1358.84 l 1,0,-1
EndSplineSet
EndChar

StartChar: afii57392
Encoding: 1632 1632 88
Width: 1177
VWidth: 2237
GlyphClass: 2
Flags: W
LayerCount: 2
Fore
SplineSet
522.072 657.195 m 132,-1,1
 522.072 623.708 522.072 623.708 546.472 599.312 c 132,-1,2
 570.868 574.912 570.868 574.912 604.355 574.912 c 132,-1,3
 637.84 574.912 637.84 574.912 662.239 599.312 c 132,-1,4
 686.638 623.708 686.638 623.708 686.638 657.195 c 132,-1,5
 686.638 690.678 686.638 690.678 662.239 715.079 c 132,-1,6
 637.839 739.478 637.839 739.478 604.355 739.478 c 132,-1,7
 570.87 739.478 570.87 739.478 546.472 715.079 c 132,-1,0
 522.072 690.68 522.072 690.68 522.072 657.195 c 132,-1,1
301.267 656.562 m 128,-1,9
 301.267 781.415 301.267 781.415 389.389 870.052 c 128,-1,10
 477.597 958.775 477.597 958.775 601.947 958.775 c 128,-1,11
 726.302 958.775 726.302 958.775 814.507 870.051 c 128,-1,12
 902.626 781.413 902.626 781.413 902.626 656.562 c 128,-1,13
 902.626 531.701 902.626 531.701 814.506 443.073 c 128,-1,14
 726.291 354.351 726.291 354.351 601.947 354.351 c 128,-1,15
 477.596 354.351 477.596 354.351 389.39 443.073 c 128,-1,8
 301.267 531.707 301.267 531.707 301.267 656.562 c 128,-1,9
EndSplineSet
EndChar

StartChar: afii57393
Encoding: 1633 1633 89
Width: 1177
VWidth: 2237
GlyphClass: 2
Flags: W
LayerCount: 2
Fore
SplineSet
787.039 8.5 m 1,0,-1
 518.459 8.5 l 1,1,-1
 518.393 59.4346 l 2,2,3
 517.826 501.46 517.826 501.46 479.339 730.332 c 0,4,5
 428.908 1027.74 428.908 1027.74 270.091 1404.7 c 2,6,-1
 240.264 1475.5 l 1,7,-1
 532.635 1475.5 l 1,8,-1
 545.645 1443.93 l 2,9,10
 674.236 1131.92 674.236 1131.92 752.005 744.185 c 0,11,12
 786.553 576.858 786.553 576.858 786.995 59.5439 c 2,13,-1
 787.039 8.5 l 1,0,-1
EndSplineSet
EndChar

StartChar: afii57394
Encoding: 1634 1634 90
Width: 1177
VWidth: 2237
GlyphClass: 2
Flags: W
LayerCount: 2
Fore
SplineSet
508.344 899.818 m 1,0,1
 526.259 823.606 526.259 823.606 542.28 744.216 c 0,2,3
 576.833 576.812 576.833 576.812 577.275 59.5439 c 2,4,-1
 577.318 8.5 l 1,5,-1
 308.736 8.5 l 1,6,-1
 308.672 59.4365 l 2,7,8
 308.119 501.428 308.119 501.428 269.622 730.311 c 0,9,10
 219.188 1027.74 219.188 1027.74 60.3701 1404.7 c 2,11,-1
 30.543 1475.5 l 1,12,-1
 325.787 1475.5 l 1,13,-1
 338.997 1444.49 l 2,14,15
 400.223 1300.74 400.223 1300.74 408.197 1283.87 c 1,16,17
 448.202 1210.57 448.202 1210.57 507.755 1176.12 c 128,-1,18
 567.307 1141.66 567.307 1141.66 655.088 1141.66 c 1,19,20
 742.504 1140.54 742.504 1140.54 784.303 1166.97 c 128,-1,21
 826.101 1193.4 826.101 1193.4 838.74 1248.78 c 1,22,23
 840.866 1272.87 840.866 1272.87 847.463 1426.69 c 2,24,-1
 849.557 1475.5 l 1,25,-1
 1119.68 1475.5 l 1,26,-1
 1115.37 1420.52 l 2,27,28
 1100.04 1224.9 1100.04 1224.9 1072.9 1143.06 c 0,29,30
 1029.16 1010.04 1029.16 1010.04 922.979 941.552 c 128,-1,31
 816.799 873.061 816.799 873.061 660.19 873.061 c 0,32,33
 578.907 873.061 578.907 873.061 508.344 899.818 c 1,0,1
EndSplineSet
EndChar

StartChar: afii57395
Encoding: 1635 1635 91
Width: 1177
VWidth: 2237
GlyphClass: 2
Flags: W
LayerCount: 2
Fore
SplineSet
536.088 742.99 m 0,0,1
 570.355 539.522 570.355 539.522 570.854 59.5527 c 2,2,-1
 570.907 8.5 l 1,3,-1
 302.315 8.5 l 1,4,-1
 302.252 59.4365 l 2,5,6
 301.699 501.428 301.699 501.428 263.202 730.311 c 0,7,8
 212.769 1027.74 212.769 1027.74 53.9502 1404.7 c 2,9,-1
 24.123 1475.5 l 1,10,-1
 316.564 1475.5 l 1,11,-1
 329.528 1443.81 l 2,12,13
 378.439 1324.24 378.439 1324.24 420.295 1194.5 c 0,14,15
 425.216 1179.25 425.216 1179.25 433.592 1172.45 c 128,-1,16
 441.967 1165.65 441.967 1165.65 461.62 1162.61 c 0,17,18
 470.268 1161.28 470.268 1161.28 478.004 1160.79 c 0,19,20
 507.486 1158.95 507.486 1158.95 520.453 1170.13 c 0,21,22
 532.855 1180.83 532.855 1180.83 534.506 1208.44 c 0,23,24
 540.459 1330.52 540.459 1330.52 540.845 1424.71 c 2,25,-1
 541.053 1475.5 l 1,26,-1
 809.381 1475.5 l 1,27,-1
 809.48 1424.6 l 2,28,29
 809.721 1301.76 809.721 1301.76 812.91 1245.24 c 0,30,31
 815.182 1204.99 815.182 1204.99 819.973 1191.23 c 1,32,33
 827.292 1179.82 827.292 1179.82 836.093 1175.05 c 128,-1,34
 844.894 1170.29 844.894 1170.29 861.748 1169.45 c 0,35,36
 878.221 1169 878.221 1169 886.949 1171.48 c 128,-1,37
 895.679 1173.97 895.679 1173.97 898.095 1177.19 c 128,-1,38
 900.511 1180.42 900.511 1180.42 903.293 1188.12 c 0,39,40
 914.964 1229.25 914.964 1229.25 915.357 1424.6 c 2,41,-1
 915.46 1475.5 l 1,42,-1
 1163.1 1475.5 l 1,43,-1
 1162.95 1424.35 l 2,44,45
 1162.46 1257.37 1162.46 1257.37 1150.94 1161.88 c 128,-1,46
 1139.41 1066.38 1139.41 1066.38 1108.03 1016.54 c 0,47,48
 1029.57 894.46 1029.57 894.46 862.42 894.46 c 0,49,50
 759.153 894.46 759.153 894.46 688.841 950.03 c 1,51,52
 642.643 910.787 642.643 910.787 588.181 897.393 c 0,53,54
 556.005 889.479 556.005 889.479 509.731 889.623 c 1,55,56
 520.319 835.639 520.319 835.639 536.088 742.99 c 0,0,1
EndSplineSet
EndChar

StartChar: afii57396
Encoding: 1636 1636 92
Width: 1177
VWidth: 2237
GlyphClass: 2
Flags: W
LayerCount: 2
Fore
SplineSet
815.154 1481.79 m 1,0,-1
 799.449 1230.18 l 1,1,-1
 746.599 1235.66 l 2,2,3
 634.189 1247.32 634.189 1247.32 562.487 1215.44 c 0,4,5
 521.069 1196.12 521.069 1196.12 505.843 1171.49 c 128,-1,6
 490.617 1146.87 490.617 1146.87 493.703 1107.5 c 0,7,8
 497.092 1064.85 497.092 1064.85 518.386 1038.01 c 128,-1,9
 539.68 1011.18 539.68 1011.18 585.904 993.678 c 0,10,11
 618.43 981.364 618.43 981.364 752.819 967.994 c 2,12,-1
 798.77 963.423 l 1,13,-1
 798.77 722.773 l 1,14,-1
 757.084 715.03 l 2,15,16
 611.187 687.931 611.187 687.931 529.16 634.087 c 0,17,18
 431.277 569.042 431.277 569.042 417.598 450.871 c 0,19,20
 413.46 415.116 413.46 415.116 417.391 386.461 c 0,21,22
 422.468 349.455 422.468 349.455 441.047 324.023 c 128,-1,23
 459.626 298.591 459.626 298.591 498.045 281.192 c 128,-1,24
 536.463 263.794 536.463 263.794 596.589 262.141 c 128,-1,25
 656.715 260.487 656.715 260.487 744.886 271.039 c 1,26,27
 821.354 281.57 821.354 281.57 941.717 339.748 c 2,28,-1
 1014.91 375.125 l 1,29,-1
 1014.91 79.2754 l 1,30,-1
 982.528 66.2285 l 2,31,32
 849.752 12.9287 849.752 12.9287 675.622 0.883789 c 0,33,34
 471.509 -12.7354 471.509 -12.7354 340.745 54.2412 c 128,-1,35
 209.98 121.217 209.98 121.217 169.81 270.758 c 0,36,37
 149.25 347.299 149.25 347.299 149.25 455.24 c 0,38,39
 149.25 612.415 149.25 612.415 272.724 760.118 c 0,40,41
 318.045 813.107 318.045 813.107 373.462 845.119 c 1,42,43
 266.793 913.759 266.793 913.759 239.953 1040.15 c 0,44,45
 211.609 1174.84 211.609 1174.84 258.955 1274.62 c 128,-1,46
 306.3 1374.39 306.3 1374.39 425.081 1424.19 c 0,47,48
 556.63 1479.33 556.63 1479.33 760.352 1481.27 c 2,49,-1
 815.154 1481.79 l 1,0,-1
EndSplineSet
EndChar

StartChar: afii57397
Encoding: 1637 1637 93
Width: 1177
VWidth: 2237
GlyphClass: 2
Flags: W
LayerCount: 2
Fore
SplineSet
571.062 1026.75 m 1,0,1
 472.003 957.114 472.003 957.114 397.12 810.336 c 0,2,3
 323.008 665.067 323.008 665.067 317.907 555.219 c 0,4,5
 311.165 410.021 311.165 410.021 385.188 349.147 c 0,6,7
 458.475 288.861 458.475 288.861 613.114 288.155 c 0,8,9
 775.438 287.415 775.438 287.415 826.416 373.824 c 1,10,11
 874.014 457.173 874.014 457.173 863.616 584.836 c 0,12,13
 853.018 722.022 853.018 722.022 734.854 878.792 c 0,14,15
 656.011 983.403 656.011 983.403 571.062 1026.75 c 1,0,1
282.318 1185.22 m 1,16,-1
 399.952 1404.79 l 1,17,-1
 438.278 1395.52 l 2,18,19
 626.815 1349.89 626.815 1349.89 754.537 1264.42 c 1,20,21
 924.746 1147.41 924.746 1147.41 1028.56 959.771 c 1,22,23
 1133.29 774.734 1133.29 774.734 1142.93 576.569 c 0,24,25
 1156.75 298.673 1156.75 298.673 1036.76 171.159 c 0,26,27
 890.215 16.8262 890.215 16.8262 594.156 17.958 c 1,28,29
 293.808 17.958 293.808 17.958 151.405 171.521 c 0,30,31
 4.0127 331.526 4.0127 331.526 34.9072 580.319 c 0,32,33
 58.7588 770.29 58.7588 770.29 154.282 932.849 c 0,34,35
 238.166 1075.6 238.166 1075.6 329.849 1167.4 c 1,36,-1
 282.318 1185.22 l 1,16,-1
EndSplineSet
EndChar

StartChar: afii57398
Encoding: 1638 1638 94
Width: 1177
VWidth: 2237
GlyphClass: 2
Flags: W
LayerCount: 2
Fore
SplineSet
943.247 1421.22 m 2,0,1
 944.307 1116.68 944.307 1116.68 982.604 751.307 c 0,2,3
 1012.69 463.963 1012.69 463.963 1113.32 72.1875 c 2,4,-1
 1129.68 8.5 l 1,5,-1
 841.573 8.5 l 1,6,-1
 831.658 46.6816 l 2,7,8
 741.976 392.042 741.976 392.042 709.027 743.793 c 0,9,10
 683.361 1016.9 683.361 1016.9 678.024 1161.07 c 1,11,12
 584.076 1141.4 584.076 1141.4 460.1 1141.4 c 0,13,14
 269.34 1141.4 269.34 1141.4 89.7051 1193.65 c 2,15,-1
 52.9502 1204.34 l 1,16,-1
 52.9502 1486.88 l 1,17,-1
 117.1 1469.77 l 2,18,19
 296.107 1422 296.107 1422 460.1 1422 c 0,20,21
 671.984 1422 671.984 1422 880.656 1470.71 c 2,22,-1
 943.024 1485.26 l 1,23,-1
 943.247 1421.22 l 2,0,1
EndSplineSet
EndChar

StartChar: afii57399
Encoding: 1639 1639 95
Width: 1177
VWidth: 2237
GlyphClass: 2
Flags: W
LayerCount: 2
Fore
SplineSet
453.438 55.6289 m 2,0,1
 434.064 310.148 434.064 310.148 332.873 634.389 c 0,2,3
 170.38 1155.57 170.38 1155.57 40.8662 1400.67 c 2,4,-1
 1.32617 1475.5 l 1,5,-1
 297.533 1475.5 l 1,6,-1
 311.572 1447.1 l 2,7,8
 475.403 1115.67 475.403 1115.67 571.538 779.189 c 0,9,10
 580.544 747.742 580.544 747.742 588.5 719.687 c 1,11,12
 596.47 747.7 596.47 747.7 605.462 779.189 c 0,13,14
 701.612 1115.73 701.612 1115.73 865.428 1447.1 c 2,15,-1
 879.467 1475.5 l 1,16,-1
 1176.17 1475.5 l 1,17,18
 1169.25 1462.95 1169.25 1462.95 1155.76 1437.84 c 128,-1,19
 1142.27 1412.72 1142.27 1412.72 1135.91 1400.4 c 0,20,21
 967.866 1086.98 967.866 1086.98 844.493 635.639 c 0,22,23
 756.351 314.139 756.351 314.139 723.9 53.2061 c 2,24,-1
 718.341 8.5 l 1,25,-1
 457.024 8.5 l 1,26,-1
 453.438 55.6289 l 2,0,1
EndSplineSet
EndChar

StartChar: afii57400
Encoding: 1640 1640 96
Width: 1177
VWidth: 2237
GlyphClass: 2
Flags: W
LayerCount: 2
Fore
SplineSet
457.024 1475.5 m 1,0,-1
 718.34 1475.5 l 1,1,-1
 723.9 1430.79 l 2,2,3
 756.353 1169.85 756.353 1169.85 844.497 848.351 c 0,4,5
 967.874 396.995 967.874 396.995 1135.91 83.5986 c 2,6,-1
 1176.17 8.5 l 1,7,-1
 879.467 8.5 l 1,8,-1
 865.428 36.8984 l 2,9,10
 701.625 368.23 701.625 368.23 605.462 704.811 c 0,11,12
 596.493 736.211 596.493 736.211 588.5 764.313 c 1,13,14
 580.541 736.314 580.541 736.314 571.538 704.811 c 0,15,16
 475.375 368.23 475.375 368.23 311.572 36.8984 c 2,17,-1
 297.533 8.5 l 1,18,-1
 1.32422 8.5 l 1,19,-1
 40.8672 83.3281 l 2,20,21
 170.372 328.399 170.372 328.399 332.877 849.62 c 0,22,23
 434.062 1173.85 434.062 1173.85 453.438 1428.37 c 2,24,-1
 457.024 1475.5 l 1,0,-1
EndSplineSet
EndChar

StartChar: afii57401
Encoding: 1641 1641 97
Width: 1177
VWidth: 2237
GlyphClass: 2
Flags: W
LayerCount: 2
Fore
SplineSet
718.404 647.432 m 1,0,1
 541.163 648.99 541.163 648.99 459.073 667.247 c 0,2,3
 260.062 711.939 260.062 711.939 170.179 811.1 c 0,4,5
 69 922.719 69 922.719 69 1057.65 c 0,6,7
 69 1232.45 69 1232.45 179.773 1343.31 c 0,8,9
 325.579 1490.35 325.579 1490.35 499.855 1489.2 c 1,10,11
 703.526 1489.2 703.526 1489.2 803.216 1393.08 c 0,12,13
 937.286 1262.66 937.286 1262.66 952.746 1055.11 c 0,14,15
 963.372 911.607 963.372 911.607 982.538 751.896 c 0,16,17
 1020.94 433.191 1020.94 433.191 1113.34 72.1436 c 2,18,-1
 1129.62 8.5 l 1,19,-1
 840.437 8.5 l 1,20,-1
 831.62 48.5303 l 2,21,22
 743.678 447.826 743.678 447.826 718.404 647.432 c 1,0,1
688.53 917.21 m 1,23,-1
 688.53 972.05 l 2,24,25
 688.53 1082.26 688.53 1082.26 651.603 1132.62 c 0,26,27
 590.55 1218.36 590.55 1218.36 505.266 1217.6 c 0,28,29
 435.857 1217.6 435.857 1217.6 385.896 1169.4 c 0,30,31
 337.6 1122.83 337.6 1122.83 337.6 1063 c 0,32,33
 337.6 1019.4 337.6 1019.4 388.562 975.908 c 1,34,35
 420.593 950.808 420.593 950.808 490.349 934.106 c 0,36,37
 552.968 919.113 552.968 919.113 688.53 917.21 c 1,23,-1
EndSplineSet
EndChar

StartChar: afii57381
Encoding: 1642 1642 98
Width: 1177
VWidth: 2237
GlyphClass: 2
Flags: W
LayerCount: 2
Fore
SplineSet
788.04 352 m 1,0,-1
 1056.64 352 l 1,1,-1
 1056.64 8.5 l 1,2,-1
 788.04 8.5 l 1,3,-1
 788.04 352 l 1,0,-1
119.29 1475.5 m 1,4,-1
 387.89 1475.5 l 1,5,-1
 387.89 1132 l 1,6,-1
 119.29 1132 l 1,7,-1
 119.29 1475.5 l 1,4,-1
840.389 1475.5 m 1,8,-1
 1097.2 1475.5 l 1,9,-1
 336.611 8.5 l 1,10,-1
 79.8047 8.5 l 1,11,-1
 840.389 1475.5 l 1,8,-1
EndSplineSet
EndChar

StartChar: uni066B
Encoding: 1643 1643 99
Width: 711
VWidth: 2186
GlyphClass: 2
Flags: W
LayerCount: 2
Fore
SplineSet
443.218 502.139 m 1,0,-1
 568.799 501.203 l 1,1,2
 342.799 113.203 342.799 113.203 130 -230.265 c 1,3,-1
 1.59766 -228.502 l 1,4,5
 94.7988 -78.7969 94.7988 -78.7969 443.218 502.139 c 1,0,-1
EndSplineSet
EndChar

StartChar: uni066C
Encoding: 1644 1644 100
Width: 696
VWidth: 2186
GlyphClass: 2
Flags: W
LayerCount: 2
Fore
SplineSet
291.2 1580.01 m 1,0,-1
 490.97 1580.01 l 1,1,-1
 490.97 1433.52 l 1,2,-1
 320.557 1102.04 l 1,3,-1
 207.225 1102.04 l 1,4,-1
 291.2 1428.73 l 1,5,-1
 291.2 1580.01 l 1,0,-1
EndSplineSet
EndChar

StartChar: afii63167
Encoding: 1645 1645 101
Width: 1194
VWidth: 2237
GlyphClass: 2
Flags: W
LayerCount: 2
Fore
SplineSet
-23.2812 896.63 m 1,0,-1
 449.703 896.63 l 1,1,-1
 597.062 1345.28 l 1,2,-1
 744.417 896.63 l 1,3,-1
 1217.4 896.63 l 1,4,-1
 835.389 617.365 l 1,5,-1
 981.707 167.859 l 1,6,-1
 597.061 445.808 l 1,7,-1
 212.413 167.86 l 1,8,-1
 358.731 617.365 l 1,9,-1
 -23.2812 896.63 l 1,0,-1
EndSplineSet
EndChar

StartChar: uni066E
Encoding: 1646 1646 102
Width: 1667
VWidth: 2237
GlyphClass: 2
Flags: W
AnchorPoint: "Anchor-10" 763.22 1107.5 basechar 0
AnchorPoint: "Anchor-7" 763.22 -123 basechar 0
LayerCount: 2
Fore
SplineSet
1271.62 0 m 2,0,-1
 416.654 0 l 2,1,2
 232.857 -0.1875 232.857 -0.1875 136.428 114.017 c 128,-1,3
 39.998 228.221 39.998 228.221 39.9971 436.499 c 2,4,-1
 39.9961 730.499 l 1,5,-1
 311.996 730.499 l 1,6,-1
 311.996 445.499 l 2,7,8
 311.996 351.388 311.996 351.388 338.098 316.184 c 128,-1,9
 364.199 280.98 364.199 280.98 420.475 280.98 c 2,10,-1
 1268.77 280.98 l 2,11,12
 1325.12 280.98 1325.12 280.98 1351.19 315.966 c 128,-1,13
 1377.25 350.952 1377.25 350.952 1377.25 444.499 c 2,14,-1
 1377.25 730.499 l 1,15,-1
 1649.25 730.499 l 1,16,-1
 1649.25 441.499 l 2,17,18
 1649.25 231.015 1649.25 231.015 1552.67 115.507 c 128,-1,19
 1456.1 -0 1456.1 -0 1271.62 0 c 2,0,-1
EndSplineSet
Substitution2: "'init' Initial Forms in Arabic lookup 13 subtable" uni066E.init
Substitution2: "'medi' Medial Forms in Arabic lookup 11 subtable" uni066E.medi
Substitution2: "'fina' Terminal Forms in Arabic lookup 9 subtable" uni066E.fina
EndChar

StartChar: uni066F
Encoding: 1647 1647 103
Width: 1327
VWidth: 2237
GlyphClass: 2
Flags: W
AnchorPoint: "Anchor-10" 315 1101.5 basechar 0
AnchorPoint: "Anchor-7" 376 -496 basechar 0
LayerCount: 2
Fore
SplineSet
1285.28 133.155 m 1,0,-1
 1284.9 98.5654 l 2,1,2
 1282.12 -151.11 1282.12 -151.11 1140.36 -281.451 c 128,-1,3
 998.602 -411.791 998.602 -411.791 734.997 -410.367 c 2,4,-1
 642.761 -409.869 l 1,5,-1
 619.601 -409.869 l 2,6,7
 339.595 -409.869 339.595 -409.869 189.783 -280.532 c 128,-1,8
 39.9727 -151.194 39.9727 -151.194 39.9727 97.6299 c 2,9,-1
 39.9727 330.131 l 2,10,11
 39.9727 404.279 39.9727 404.279 77.7881 452.455 c 128,-1,12
 115.604 500.63 115.604 500.63 184.901 500.63 c 2,13,-1
 311.973 500.63 l 1,14,-1
 311.973 98.6299 l 2,15,16
 311.973 -17.9775 311.973 -17.9775 383.683 -73.4336 c 128,-1,17
 455.393 -128.889 455.393 -128.889 621.451 -128.889 c 2,18,-1
 642.771 -128.889 l 1,19,-1
 742.167 -128.389 l 2,20,21
 884.144 -127.676 884.144 -127.676 947.074 -73.7832 c 128,-1,22
 1010 -19.8906 1010 -19.8906 1012.79 95.6797 c 1,23,24
 985.151 95.3066 985.151 95.3066 944.971 95.2051 c 0,25,26
 749.908 94.1299 749.908 94.1299 661.182 189.291 c 0,27,28
 579.855 276.518 579.855 276.518 588.282 493.414 c 0,29,30
 593.645 620.272 593.645 620.272 649.456 707.938 c 0,31,32
 698.803 785.495 698.803 785.495 776.642 824.266 c 128,-1,33
 854.48 863.036 854.48 863.036 953.479 861.029 c 0,34,35
 1081.63 858.433 1081.63 858.433 1162.84 780.504 c 128,-1,36
 1244.05 702.575 1244.05 702.575 1270.31 562.588 c 0,37,38
 1286.12 478.268 1286.12 478.268 1285.66 388.563 c 0,39,40
 1285.17 255.928 1285.17 255.928 1285.28 133.155 c 1,0,-1
955.334 592.114 m 0,41,42
 915.866 593.78 915.866 593.78 894.047 583.789 c 128,-1,43
 872.228 573.797 872.228 573.797 859.365 552.08 c 0,44,45
 848.881 534.378 848.881 534.378 844.056 466.563 c 0,46,47
 839.365 400.666 839.365 400.666 859.03 385.13 c 0,48,49
 873.45 374.726 873.45 374.726 911.973 370.743 c 128,-1,50
 950.494 366.762 950.494 366.762 1024.23 373.809 c 1,51,52
 1026.73 451.124 1026.73 451.124 1020.8 503.469 c 128,-1,53
 1014.88 555.813 1014.88 555.813 1006.09 571.354 c 0,54,55
 995.301 590.427 995.301 590.427 955.334 592.114 c 0,41,42
EndSplineSet
Substitution2: "'init' Initial Forms in Arabic lookup 13 subtable" uni066F.init
Substitution2: "'medi' Medial Forms in Arabic lookup 11 subtable" uni066F.medi
Substitution2: "'fina' Terminal Forms in Arabic lookup 9 subtable" uni066F.fina
EndChar

StartChar: uni0670
Encoding: 1648 1648 104
Width: 0
VWidth: 2237
GlyphClass: 4
Flags: W
AnchorPoint: "Anchor-10" 547.84 1279.5 mark 0
AnchorPoint: "Anchor-9" 547.84 1279.5 mark 0
AnchorPoint: "Anchor-1" 547.84 1975 basemark 0
AnchorPoint: "Anchor-1" 547.84 1279.5 mark 0
LayerCount: 2
Fore
SplineSet
501.99 1327.81 m 1,0,-1
 501.99 1926.69 l 1,1,-1
 593.69 1926.69 l 1,2,-1
 593.69 1327.81 l 1,3,-1
 501.99 1327.81 l 1,0,-1
EndSplineSet
EndChar

StartChar: uni0674
Encoding: 1652 1652 105
Width: 639
VWidth: 2237
GlyphClass: 2
Flags: W
LayerCount: 2
Fore
SplineSet
143.54 1515.26 m 1,0,-1
 254.306 1540.82 l 1,1,-1
 219.379 1556.7 l 2,2,3
 176.794 1576.05 176.794 1576.05 161.706 1610 c 0,4,5
 145.68 1647.06 145.68 1647.06 145.68 1692.52 c 0,6,7
 145.68 1788.83 145.68 1788.83 200.568 1830.98 c 0,8,9
 259.108 1876.4 259.108 1876.4 353.1 1876.4 c 0,10,11
 411.842 1876.4 411.842 1876.4 462.08 1846.81 c 1,12,-1
 462.08 1769.8 l 1,13,14
 412.732 1795.4 412.732 1795.4 353.1 1795.4 c 0,15,16
 276.875 1795.4 276.875 1795.4 254.747 1771.97 c 0,17,18
 220.26 1733.92 220.26 1733.92 220.26 1701.08 c 0,19,20
 220.26 1608.9 220.26 1608.9 330.161 1577.33 c 0,21,22
 366.368 1566.36 366.368 1566.36 484.55 1593.69 c 1,23,-1
 484.55 1511.4 l 1,24,-1
 143.54 1434.84 l 1,25,-1
 143.54 1515.26 l 1,0,-1
EndSplineSet
EndChar

StartChar: uni06A1
Encoding: 1697 1697 109
Width: 1695
VWidth: 2237
GlyphClass: 2
Flags: W
AnchorPoint: "Anchor-10" 351.55 1281.28 basechar 0
AnchorPoint: "Anchor-7" 458.55 -96.8799 basechar 0
LayerCount: 2
Fore
SplineSet
870.917 281.729 m 1,0,-1
 1117.81 282 l 2,1,2
 1207.24 282.099 1207.24 282.099 1268.09 294.054 c 128,-1,3
 1328.95 306.009 1328.95 306.009 1354.93 324.379 c 1,4,5
 1333.74 324.199 1333.74 324.199 1308.23 324.136 c 0,6,7
 1113.15 323.058 1113.15 323.058 1024.44 418.221 c 0,8,9
 943.106 505.449 943.106 505.449 951.532 722.354 c 0,10,11
 956.903 849.209 956.903 849.209 1012.71 936.867 c 0,12,13
 1062.05 1014.43 1062.05 1014.43 1139.89 1053.2 c 128,-1,14
 1217.73 1091.97 1217.73 1091.97 1316.74 1089.96 c 0,15,16
 1447.93 1087.28 1447.93 1087.28 1531.27 1013.95 c 128,-1,17
 1614.6 940.619 1614.6 940.619 1639.57 807.512 c 0,18,19
 1655.37 723.194 1655.37 723.194 1654.91 633.494 c 0,20,21
 1654.42 500.904 1654.42 500.904 1654.53 378.384 c 2,22,-1
 1654.53 376.342 l 2,23,24
 1654.53 189.227 1654.53 189.227 1523.54 94.2998 c 128,-1,25
 1392.54 -0.62793 1392.54 -0.62793 1154.74 0 c 2,26,-1
 870.879 0.749023 l 1,27,-1
 416.971 0.749023 l 2,28,29
 233.179 0.561523 233.179 0.561523 136.749 114.766 c 128,-1,30
 40.3193 228.971 40.3193 228.971 40.3184 437.248 c 2,31,-1
 40.3174 731.248 l 1,32,-1
 312.317 731.248 l 1,33,-1
 312.317 446.248 l 2,34,35
 312.317 352.137 312.317 352.137 338.419 316.933 c 128,-1,36
 364.521 281.729 364.521 281.729 420.796 281.729 c 2,37,-1
 870.917 281.729 l 1,0,-1
1318.59 821.045 m 0,38,39
 1279.12 822.711 1279.12 822.711 1257.3 812.72 c 128,-1,40
 1235.48 802.728 1235.48 802.728 1222.62 781.011 c 0,41,42
 1212.13 763.304 1212.13 763.304 1207.31 695.493 c 0,43,44
 1202.62 629.599 1202.62 629.599 1222.28 614.061 c 0,45,46
 1236.7 603.656 1236.7 603.656 1275.23 599.675 c 128,-1,47
 1313.75 595.693 1313.75 595.693 1387.48 602.738 c 1,48,49
 1389.99 680.023 1389.99 680.023 1384.06 732.388 c 128,-1,50
 1378.13 784.753 1378.13 784.753 1369.35 800.276 c 0,51,52
 1358.55 819.358 1358.55 819.358 1318.59 821.045 c 0,38,39
EndSplineSet
Substitution2: "'init' Initial Forms in Arabic lookup 13 subtable" uni06A1.init
Substitution2: "'medi' Medial Forms in Arabic lookup 11 subtable" uni06A1.medi
Substitution2: "'fina' Terminal Forms in Arabic lookup 9 subtable" uni06A1.fina
EndChar

StartChar: uni06A9
Encoding: 1705 1705 110
Width: 1688
VWidth: 2237
GlyphClass: 2
Flags: W
AnchorPoint: "Anchor-10" 387 1258.34 basechar 0
AnchorPoint: "Anchor-7" 490 -199.68 basechar 0
LayerCount: 2
Fore
SplineSet
1175.72 0 m 2,0,-1
 431.651 0 l 2,1,2
 243.412 -0.186523 243.412 -0.186523 144.205 113.798 c 128,-1,3
 44.998 227.783 44.998 227.783 44.9971 436.499 c 2,4,-1
 44.9961 730.499 l 1,5,-1
 316.996 730.499 l 1,6,-1
 316.996 445.499 l 2,7,8
 316.996 351.388 316.996 351.388 343.098 316.184 c 128,-1,9
 369.199 280.98 369.199 280.98 425.475 280.98 c 2,10,-1
 1134.38 281.004 l 2,11,12
 1179.57 281.01 1179.57 281.01 1214.1 285.184 c 128,-1,13
 1248.63 289.357 1248.63 289.357 1267.71 295.398 c 128,-1,14
 1286.79 301.439 1286.79 301.439 1298.82 309.619 c 128,-1,15
 1310.85 317.798 1310.85 317.798 1314.58 324.348 c 128,-1,16
 1318.3 330.897 1318.3 330.897 1318.59 337.556 c 0,17,18
 1320.82 390.324 1320.82 390.324 1253.28 437.629 c 2,19,-1
 955.623 646.124 l 2,20,21
 850.58 719.707 850.58 719.707 843.709 805.042 c 0,22,23
 836.88 889.729 836.88 889.729 871.304 954.41 c 128,-1,24
 905.729 1019.09 905.729 1019.09 978.078 1052.7 c 2,25,-1
 1654.45 1366.91 l 1,26,-1
 1654.45 1078.15 l 1,27,-1
 1150.46 837.299 l 1,28,-1
 1419.42 645.579 l 1,29,30
 1507.78 583.899 1507.78 583.899 1548 496.173 c 128,-1,31
 1588.22 408.447 1588.22 408.447 1576.21 302.646 c 0,32,33
 1558.19 144.08 1558.19 144.08 1442.62 67.832 c 0,34,35
 1339.81 -0 1339.81 -0 1175.72 0 c 2,0,-1
EndSplineSet
Substitution2: "'init' Initial Forms in Arabic lookup 13 subtable" uniFB90
Substitution2: "'medi' Medial Forms in Arabic lookup 11 subtable" uniFB91
Substitution2: "'fina' Terminal Forms in Arabic lookup 9 subtable" uniFB8F
EndChar

StartChar: afii57514
Encoding: 1722 1722 112
Width: 1409
VWidth: 2237
GlyphClass: 2
Flags: W
AnchorPoint: "Anchor-10" 643.11 849 basechar 0
AnchorPoint: "Anchor-7" 665.58 -541.02 basechar 0
LayerCount: 2
Fore
SplineSet
1369.9 636.026 m 1,0,-1
 1369.9 94.1309 l 2,1,2
 1369.9 -168.982 1369.9 -168.982 1212.23 -308.052 c 128,-1,3
 1054.57 -447.122 1054.57 -447.122 758.174 -452.36 c 2,4,-1
 729.353 -452.869 l 1,5,-1
 691.601 -452.869 l 2,6,7
 376.132 -452.869 376.132 -452.869 208.052 -313.129 c 128,-1,8
 39.9717 -173.388 39.9717 -173.388 39.9717 97.6299 c 2,9,-1
 39.9717 330.131 l 2,10,11
 39.9717 404.279 39.9717 404.279 77.7871 452.455 c 128,-1,12
 115.604 500.63 115.604 500.63 184.9 500.63 c 2,13,-1
 311.973 500.63 l 1,14,-1
 311.973 98.6299 l 2,15,16
 311.973 -38.7373 311.973 -38.7373 401.448 -105.313 c 128,-1,17
 490.924 -171.889 490.924 -171.889 693.45 -171.889 c 2,18,-1
 728.54 -171.889 l 1,19,-1
 763.703 -171.393 l 2,20,21
 939.832 -168.909 939.832 -168.909 1017.87 -102.661 c 128,-1,22
 1095.9 -36.4131 1095.9 -36.4131 1095.9 102.131 c 2,23,-1
 1095.9 143.131 l 2,24,25
 1095.9 559.411 1095.9 559.411 1095.53 583.178 c 0,26,27
 1095.26 590.597 1095.26 590.597 1093.5 635.885 c 1,28,-1
 1369.9 636.026 l 1,0,-1
EndSplineSet
Substitution2: "'init' Initial Forms in Arabic lookup 13 subtable" uni06BA.init
Substitution2: "'medi' Medial Forms in Arabic lookup 11 subtable" uni06BA.medi
Substitution2: "'fina' Terminal Forms in Arabic lookup 9 subtable" uniFB9F
EndChar

StartChar: uni06F4
Encoding: 1780 1780 119
Width: 1177
VWidth: 2237
GlyphClass: 2
Flags: W
LayerCount: 2
Fore
SplineSet
395.47 1280.75 m 1,0,1
 473.312 1427.95 473.312 1427.95 603.15 1465.78 c 0,2,3
 764.57 1512.69 764.57 1512.69 973.429 1468.36 c 2,4,-1
 1013.84 1459.78 l 1,5,-1
 1013.84 1208.45 l 1,6,-1
 947.467 1229.43 l 2,7,8
 913.702 1240.11 913.702 1240.11 827.147 1251.08 c 0,9,10
 690.606 1268.38 690.606 1268.38 625.742 1202.19 c 0,11,12
 581.675 1157.5 581.675 1157.5 574.865 1120.36 c 128,-1,13
 568.055 1083.22 568.055 1083.22 592.49 1046.56 c 0,14,15
 606.729 1023.95 606.729 1023.95 655.751 1007.96 c 128,-1,16
 704.773 991.966 704.773 991.966 791.295 991.86 c 0,17,18
 841.894 991.813 841.894 991.813 1012.86 1017.09 c 2,19,-1
 1070.41 1025.59 l 1,20,-1
 1074.28 776.161 l 1,21,-1
 1029.26 770.213 l 2,22,23
 827.762 743.59 827.762 743.59 761.84 743.59 c 0,24,25
 632.477 743.59 632.477 743.59 536.177 781.386 c 1,26,27
 539.448 762.837 539.448 762.837 542.596 742.447 c 0,28,29
 581.08 493.085 581.08 493.085 577.398 59.0674 c 2,30,-1
 576.969 8.5 l 1,31,-1
 308.736 8.5 l 1,32,-1
 308.672 59.4365 l 2,33,34
 308.119 501.43 308.119 501.43 269.62 730.324 c 0,35,36
 219.188 1027.74 219.188 1027.74 60.3701 1404.7 c 2,37,-1
 30.543 1475.5 l 1,38,-1
 327.608 1475.5 l 1,39,-1
 339.578 1441.39 l 2,40,41
 373.419 1344.94 373.419 1344.94 395.47 1280.75 c 1,0,1
EndSplineSet
EndChar

StartChar: uni06F5
Encoding: 1781 1781 120
Width: 1177
VWidth: 2237
GlyphClass: 2
Flags: W
LayerCount: 2
Fore
SplineSet
704.146 377.229 m 2,0,1
 716.448 330.643 716.448 330.643 738.973 312.892 c 128,-1,2
 761.496 295.141 761.496 295.141 804.692 296.371 c 0,3,4
 835.979 297.117 835.979 297.117 857.162 304.5 c 0,5,6
 874.559 310.563 874.559 310.563 885.162 322.274 c 128,-1,7
 895.766 333.985 895.766 333.985 901.205 356.223 c 128,-1,8
 906.645 378.461 906.645 378.461 900.228 416.865 c 128,-1,9
 893.812 455.27 893.812 455.27 875.214 508.423 c 0,10,11
 771.241 803.681 771.241 803.681 589.541 1046.04 c 1,12,13
 403.104 781.77 403.104 781.77 313.332 504.696 c 0,14,15
 290.365 433.81 290.365 433.81 290.327 385.971 c 0,16,17
 290.287 337.703 290.287 337.703 311.734 318.824 c 128,-1,18
 333.182 299.945 333.182 299.945 395.245 299.945 c 0,19,20
 429.476 299.945 429.476 299.945 451.306 317.613 c 128,-1,21
 473.135 335.281 473.135 335.281 489.124 380.828 c 2,22,-1
 502.272 418.278 l 1,23,-1
 693.309 418.278 l 1,24,-1
 704.146 377.229 l 2,0,1
367.038 8.36426 m 0,25,26
 210.874 8.36426 210.874 8.36426 121.606 92.5625 c 128,-1,27
 32.3379 176.761 32.3379 176.761 24.0791 332.025 c 0,28,29
 13.6895 527.353 13.6895 527.353 134.084 782.338 c 128,-1,30
 254.478 1037.32 254.478 1037.32 503.928 1360.65 c 0,31,32
 515.919 1376.2 515.919 1376.2 528.938 1386.89 c 0,33,34
 556.854 1409.81 556.854 1409.81 588.942 1410.89 c 0,35,36
 638.989 1412.57 638.989 1412.57 680.444 1361.73 c 0,37,38
 935.316 1049.16 935.316 1049.16 1054.23 793.766 c 128,-1,39
 1173.14 538.371 1173.14 538.371 1152.73 333.469 c 0,40,41
 1137.59 180.918 1137.59 180.918 1051.88 96.2705 c 128,-1,42
 966.175 11.6221 966.175 11.6221 820.8 8.875 c 0,43,44
 670.635 5.8291 670.635 5.8291 591.343 104.201 c 1,45,46
 513.586 8.36621 513.586 8.36621 367.038 8.36426 c 0,25,26
EndSplineSet
EndChar

StartChar: uni06F6
Encoding: 1782 1782 121
Width: 1177
VWidth: 2237
GlyphClass: 2
Flags: W
LayerCount: 2
Fore
SplineSet
190.028 72.4727 m 2,0,1
 260.543 340.573 260.543 340.573 378.477 532.87 c 0,2,3
 436.113 626.957 436.113 626.957 515.03 704.993 c 1,4,5
 407.229 738.886 407.229 738.886 346.813 824.395 c 128,-1,6
 286.398 909.903 286.398 909.903 276.716 1036.81 c 0,7,8
 263.616 1224.36 263.616 1224.36 389.926 1358.7 c 0,9,10
 511.624 1488.12 511.624 1488.12 691.912 1489.27 c 0,11,12
 811.291 1489.27 811.291 1489.27 914.597 1455.24 c 2,13,-1
 949.64 1443.7 l 1,14,-1
 949.64 1170.25 l 1,15,-1
 879.781 1198.05 l 2,16,17
 683.431 1276.19 683.431 1276.19 590.855 1186.64 c 1,18,19
 545.18 1140.85 545.18 1140.85 545.18 1053.37 c 0,20,21
 545.18 987.565 545.18 987.565 591.889 944.255 c 0,22,23
 628.073 910.54 628.073 910.54 723.32 910.54 c 0,24,25
 853.527 910.54 853.527 910.54 944.875 944.919 c 2,26,-1
 1013.84 970.876 l 1,27,-1
 1013.84 696.511 l 1,28,-1
 979.033 684.855 l 2,29,30
 756.157 610.229 756.157 610.229 645.865 460.548 c 0,31,32
 510.228 275.322 510.228 275.322 454.446 47.377 c 2,33,-1
 444.933 8.5 l 1,34,-1
 173.203 8.5 l 1,35,-1
 190.028 72.4727 l 2,0,1
EndSplineSet
EndChar

StartChar: uniFB8F
Encoding: 64399 64399 136
Width: 1805
VWidth: 2237
GlyphClass: 2
Flags: W
AnchorPoint: "Anchor-10" 433 1230.5 basechar 0
LayerCount: 2
Fore
SplineSet
1469.47 87.8066 m 1,0,1
 1456.51 76.9912 1456.51 76.9912 1442.62 67.832 c 0,2,3
 1339.81 -0 1339.81 -0 1175.72 0 c 2,4,-1
 431.624 0 l 2,5,6
 243.387 0 243.387 0 144.192 113.969 c 128,-1,7
 44.998 227.938 44.998 227.938 44.9971 436.499 c 2,8,-1
 44.9961 730.499 l 1,9,-1
 316.996 730.499 l 1,10,-1
 316.996 445.499 l 2,11,12
 316.996 351.388 316.996 351.388 343.098 316.184 c 128,-1,13
 369.199 280.98 369.199 280.98 425.475 280.98 c 2,14,-1
 1134.38 281.004 l 2,15,16
 1179.57 281.01 1179.57 281.01 1214.1 285.184 c 128,-1,17
 1248.63 289.357 1248.63 289.357 1267.71 295.398 c 128,-1,18
 1286.79 301.439 1286.79 301.439 1298.82 309.619 c 128,-1,19
 1310.85 317.798 1310.85 317.798 1314.58 324.348 c 128,-1,20
 1318.3 330.897 1318.3 330.897 1318.59 337.556 c 0,21,22
 1320.82 390.324 1320.82 390.324 1253.28 437.629 c 2,23,-1
 955.623 646.124 l 2,24,25
 850.58 719.707 850.58 719.707 843.709 805.042 c 0,26,27
 836.88 889.729 836.88 889.729 871.304 954.41 c 128,-1,28
 905.729 1019.09 905.729 1019.09 978.078 1052.7 c 2,29,-1
 1654.45 1366.91 l 1,30,-1
 1654.45 1078.15 l 1,31,-1
 1150.46 837.299 l 1,32,-1
 1419.42 645.579 l 1,33,34
 1576.41 535.986 1576.41 535.986 1579.02 356.518 c 1,35,36
 1634.27 281.38 1634.27 281.38 1748.42 281.38 c 2,37,-1
 1874.45 281.38 l 1,38,-1
 1874.45 0.5 l 1,39,-1
 1738.71 0.5 l 2,40,41
 1576.79 0.5 1576.79 0.5 1469.47 87.8066 c 1,0,1
EndSplineSet
EndChar

StartChar: uniFB9F
Encoding: 64415 64415 144
Width: 1547
VWidth: 2237
GlyphClass: 2
Flags: W
AnchorPoint: "Anchor-10" 453.9 742 basechar 0
AnchorPoint: "Anchor-7" 419.88 -537.5 basechar 0
LayerCount: 2
Fore
SplineSet
1362.58 20.917 m 1,0,1
 1341.64 -210.186 1341.64 -210.186 1191.8 -330.092 c 128,-1,2
 1041.95 -449.997 1041.95 -449.997 779.734 -452.366 c 2,3,-1
 724.134 -452.869 l 1,4,-1
 680.601 -452.869 l 2,5,6
 370.371 -452.869 370.371 -452.869 205.172 -312.957 c 128,-1,7
 39.9717 -173.045 39.9717 -173.045 39.9717 97.6299 c 2,8,-1
 39.9717 330.131 l 2,9,10
 39.9717 404.279 39.9717 404.279 77.7871 452.455 c 128,-1,11
 115.604 500.63 115.604 500.63 184.9 500.63 c 2,12,-1
 311.973 500.63 l 1,13,-1
 311.973 98.6299 l 2,14,15
 311.973 -39.2334 311.973 -39.2334 398.854 -105.561 c 128,-1,16
 485.733 -171.889 485.733 -171.889 682.45 -171.889 c 2,17,-1
 723.695 -171.889 l 1,18,-1
 786.014 -171.39 l 2,19,20
 950.138 -170.074 950.138 -170.074 1023.02 -104.439 c 128,-1,21
 1095.9 -38.8047 1095.9 -38.8047 1095.9 102.131 c 2,22,-1
 1095.9 143.131 l 2,23,24
 1095.9 559.411 1095.9 559.411 1095.53 583.178 c 0,25,26
 1095.26 590.597 1095.26 590.597 1093.5 635.885 c 1,27,-1
 1369.9 636.026 l 1,28,-1
 1369.9 418 l 2,29,30
 1369.9 342.061 1369.9 342.061 1400.04 311.721 c 128,-1,31
 1430.18 281.38 1430.18 281.38 1505.28 281.38 c 2,32,-1
 1623.53 281.38 l 5,33,-1
 1623.53 0.5 l 5,34,-1
 1446.43 0.5 l 2,35,36
 1402.69 0.5 1402.69 0.5 1362.58 20.917 c 1,0,1
EndSplineSet
EndChar

StartChar: uniFBE8
Encoding: 64488 64488 147
Width: 629
VWidth: 2237
GlyphClass: 2
Flags: W
AnchorPoint: "Anchor-10" 321.93 1100.5 basechar 0
AnchorPoint: "Anchor-7" 353.93 -60.5 basechar 0
LayerCount: 2
Fore
SplineSet
185.9 0 m 2,0,-1
 -51.4004 0 l 5,1,-1
 -51.4004 280.98 l 5,2,-1
 173.05 280.98 l 2,3,4
 223.835 280.98 223.835 280.98 245.182 306.868 c 128,-1,5
 266.528 332.756 266.528 332.756 266.528 405.499 c 2,6,-1
 266.528 730.499 l 1,7,-1
 538.528 730.499 l 1,8,-1
 538.528 410.499 l 2,9,10
 538.528 215.467 538.528 215.467 448.179 107.733 c 128,-1,11
 357.829 0 357.829 0 185.9 0 c 2,0,-1
EndSplineSet
EndChar

StartChar: uniFBE9
Encoding: 64489 64489 148
Width: 739
VWidth: 2237
GlyphClass: 2
Flags: W
AnchorPoint: "Anchor-10" 310.93 1020.5 basechar 0
AnchorPoint: "Anchor-7" 292.93 -64.5 basechar 0
LayerCount: 2
Fore
SplineSet
425.196 85.2725 m 1,0,1
 328.188 -0 328.188 -0 179.9 0 c 2,2,-1
 -71.4004 0 l 1,3,-1
 -71.4004 280.98 l 1,4,-1
 133.05 280.98 l 2,5,6
 220.75 280.98 220.75 280.98 254.12 308.521 c 128,-1,7
 287.49 336.061 287.49 336.061 287.49 399.31 c 2,8,-1
 287.49 667.5 l 1,9,-1
 564.37 667.5 l 1,10,-1
 564.37 399.31 l 2,11,12
 564.37 336.972 564.37 336.972 599.93 308.977 c 128,-1,13
 635.489 280.981 635.489 280.981 728.811 280.98 c 2,14,-1
 810.66 280.98 l 1,15,-1
 810.66 0 l 1,16,-1
 669.96 0 l 2,17,18
 523.217 0 523.217 0 425.196 85.2725 c 1,0,1
EndSplineSet
EndChar

StartChar: uniFE73
Encoding: 65139 65139 156
Width: 573
VWidth: 2186
GlyphClass: 2
Flags: W
AnchorPoint: "Anchor-10" 210.79 1279.5 basechar 0
AnchorPoint: "Anchor-7" 210.79 -111.5 basechar 0
LayerCount: 2
Fore
SplineSet
296.23 350.74 m 2,0,1
 296.23 286.506 296.23 286.506 352.468 230.268 c 0,2,3
 403.354 179.38 403.354 179.38 514.67 179.38 c 2,4,-1
 581.92 179.38 l 1,5,-1
 581.92 8.5 l 1,6,-1
 455.82 8.5 l 2,7,8
 309.266 8.5 309.266 8.5 214.633 103.133 c 0,9,10
 125.35 192.415 125.35 192.415 125.35 337.9 c 2,11,-1
 125.35 370.91 l 1,12,-1
 296.23 370.91 l 1,13,-1
 296.23 350.74 l 2,0,1
EndSplineSet
EndChar

StartChar: uniFE8E
Encoding: 65166 65166 182
Width: 584
VWidth: 2237
GlyphClass: 2
Flags: W
AnchorPoint: "Anchor-10" 272.95 1386 basechar 0
AnchorPoint: "Anchor-7" 290.95 -188.5 basechar 0
LayerCount: 2
Fore
SplineSet
526.295 0 m 2,0,1
 336.623 0 336.623 0 238.145 122.263 c 128,-1,2
 139.667 244.524 139.667 244.524 139.667 467.499 c 2,3,-1
 139.667 1302.5 l 1,4,-1
 411.667 1302.5 l 1,5,-1
 411.667 444.499 l 2,6,7
 411.667 350.95 411.667 350.95 437.73 315.965 c 128,-1,8
 463.794 280.98 463.794 280.98 520.146 280.98 c 2,9,-1
 646.596 280.98 l 1,10,-1
 646.596 0 l 1,11,-1
 526.295 0 l 2,0,1
EndSplineSet
EndChar

StartChar: uniFEA2
Encoding: 65186 65186 202
Width: 1308
VWidth: 2237
GlyphClass: 2
Flags: W
AnchorPoint: "Anchor-10" 602.5 1116.5 basechar 0
AnchorPoint: "Anchor-7" 458.84 -607.64 basechar 0
LayerCount: 2
Fore
SplineSet
1188.13 281.38 m 2,0,-1
 1372.94 281.38 l 1,1,-1
 1372.94 0.5 l 1,2,-1
 1178.51 0.5 l 2,3,4
 1014.96 0.5 1014.96 0.5 929.037 124.63 c 128,-1,5
 843.115 248.76 843.115 248.76 834.249 471.74 c 1,6,7
 586.861 362.854 586.861 362.854 462.14 243.903 c 128,-1,8
 337.419 124.953 337.419 124.953 326.782 1.68848 c 0,9,10
 325.831 -9.50781 325.831 -9.50781 325.606 -20.124 c 0,11,12
 323.396 -124.771 323.396 -124.771 394.067 -177.158 c 128,-1,13
 464.737 -229.545 464.737 -229.545 632.442 -233 c 1,14,-1
 1087.75 -232.75 l 1,15,-1
 1086.17 -508.872 l 1,16,-1
 612.902 -507.998 l 1,17,18
 584.226 -506.854 584.226 -506.854 557.976 -504.664 c 0,19,20
 301.74 -483.289 301.74 -483.289 174.18 -351.582 c 128,-1,21
 46.6191 -219.874 46.6191 -219.874 66.1475 10.3105 c 0,22,23
 95.8301 360.215 95.8301 360.215 521.378 597.967 c 1,24,25
 472.146 592.965 472.146 592.965 419.385 585.541 c 0,26,27
 292.413 567.674 292.413 567.674 199.759 531.002 c 2,28,-1
 129.99 503.389 l 1,29,-1
 129.99 796.372 l 1,30,-1
 169.878 805.276 l 2,31,32
 469.905 872.26 469.905 872.26 665.54 872.26 c 0,33,34
 935.149 872.26 935.149 872.26 1193.98 804.835 c 2,35,-1
 1232.12 794.899 l 1,36,-1
 1232.12 563.03 l 1,37,-1
 1181.5 562.656 l 2,38,39
 1116.51 562.177 1116.51 562.177 1077.62 555.104 c 1,40,41
 1077.11 537.967 1077.11 537.967 1077.1 522.39 c 0,42,43
 1077.07 452.281 1077.07 452.281 1085.48 403.534 c 128,-1,44
 1093.89 354.787 1093.89 354.787 1109.78 328.945 c 128,-1,45
 1125.66 303.104 1125.66 303.104 1144.53 292.241 c 128,-1,46
 1163.39 281.38 1163.39 281.38 1188.13 281.38 c 2,0,-1
EndSplineSet
EndChar

StartChar: uniFEA3
Encoding: 65187 65187 203
Width: 1143
VWidth: 2237
GlyphClass: 2
Flags: W
AnchorPoint: "Anchor-10" 462 1152.73 basechar 0
AnchorPoint: "Anchor-7" 582 -195.5 basechar 0
LayerCount: 2
Fore
SplineSet
-71.4004 51 m 1,0,-1
 -71.4004 280.956 l 1,1,-1
 719.377 281.333 l 1,2,3
 633.575 359.921 633.575 359.921 554.636 436.724 c 0,4,5
 498.297 491.537 498.297 491.537 456.454 514.71 c 128,-1,6
 414.611 537.883 414.611 537.883 396.424 535.098 c 0,7,8
 368.471 531.053 368.471 531.053 324.815 498.721 c 128,-1,9
 281.16 466.389 281.16 466.389 228.814 404.711 c 2,10,-1
 195.848 365.866 l 1,11,-1
 -4.8877 535.871 l 1,12,-1
 22.792 574.147 l 2,13,14
 67.2217 635.584 67.2217 635.584 155.56 720.714 c 0,15,16
 252.105 814.261 252.105 814.261 412.637 809.438 c 1,17,18
 485.785 812.257 485.785 812.257 570.138 761.289 c 128,-1,19
 654.49 710.32 654.49 710.32 766.029 605.553 c 2,20,-1
 1095.7 294.9 l 1,21,-1
 1093.96 270.739 l 2,22,23
 1088.78 198.604 1088.78 198.604 1054.16 137.399 c 0,24,25
 1043.27 118.157 1043.27 118.157 1028.75 99.1035 c 0,26,27
 960.415 10.9824 960.415 10.9824 836.515 0.192383 c 2,28,-1
 834.307 0 l 1,29,-1
 -71.4004 0 l 2,30,31
 -71.4004 0.823242 -71.4004 0.823242 -74.5645 4.94824 c 0,32,33
 -99.7852 37.8281 -99.7852 37.8281 -53.5684 46.9883 c 0,34,35
 -33.3252 51 -33.3252 51 0 51 c 2,36,-1
 -71.4004 51 l 1,0,-1
EndSplineSet
EndChar

StartChar: uniFEA4
Encoding: 65188 65188 204
Width: 1166
VWidth: 2237
GlyphClass: 2
Flags: W
AnchorPoint: "Anchor-10" 393 1128.69 basechar 0
AnchorPoint: "Anchor-7" 553 -172.5 basechar 0
LayerCount: 2
Fore
SplineSet
754.229 0 m 1,0,-1
 -71.4004 0 l 1,1,-1
 -71.4004 280.956 l 1,2,-1
 719.377 281.333 l 1,3,4
 633.575 359.921 633.575 359.921 554.636 436.724 c 0,5,6
 498.297 491.537 498.297 491.537 456.454 514.71 c 128,-1,7
 414.611 537.883 414.611 537.883 396.424 535.098 c 0,8,9
 368.471 531.053 368.471 531.053 324.815 498.721 c 128,-1,10
 281.16 466.389 281.16 466.389 228.814 404.711 c 2,11,-1
 195.848 365.866 l 1,12,-1
 -4.8877 535.871 l 1,13,-1
 22.792 574.147 l 2,14,15
 67.2217 635.584 67.2217 635.584 155.56 720.714 c 0,16,17
 252.105 814.261 252.105 814.261 412.637 809.438 c 1,18,19
 485.785 812.257 485.785 812.257 570.138 761.289 c 128,-1,20
 654.49 710.32 654.49 710.32 766.029 605.553 c 2,21,-1
 1079.14 310.496 l 1,22,-1
 1098.74 289.75 l 1,23,-1
 1235.77 289.187 l 1,24,-1
 1235.77 0 l 1,25,-1
 1153.68 0 l 2,26,27
 1033.36 0 1033.36 0 943.944 61.2021 c 1,28,29
 864.833 -3.5166 864.833 -3.5166 754.229 0 c 1,0,-1
EndSplineSet
EndChar

StartChar: uniFEAA
Encoding: 65194 65194 210
Width: 1078
VWidth: 2237
GlyphClass: 2
Flags: W
AnchorPoint: "Anchor-10" 432.99 1224.65 basechar 0
AnchorPoint: "Anchor-7" 312.5 -183 basechar 0
LayerCount: 2
Fore
SplineSet
499.267 447.955 m 2,0,-1
 236.364 753.914 l 1,1,-1
 419.324 951.447 l 1,2,-1
 887.2 418 l 2,3,4
 1005.96 282.599 1005.96 282.599 1072.19 281.682 c 2,5,-1
 1144.65 280.679 l 1,6,-1
 1144.65 0.5 l 1,7,-1
 1047.44 0.5 l 2,8,9
 914.133 0.5 914.133 0.5 799.252 96.5732 c 1,10,11
 708.271 12.026 708.271 12.026 510.811 0.136719 c 2,12,-1
 508.589 0.00292969 l 1,13,-1
 45.75 0.00488281 l 1,14,-1
 45.75 281.058 l 1,15,-1
 333.909 280.975 l 2,16,17
 428.639 280.948 428.639 280.948 483.758 285.909 c 0,18,19
 594.672 295.899 594.672 295.899 571.405 353.556 c 0,20,21
 563.472 373.236 563.472 373.236 499.267 447.955 c 2,0,-1
EndSplineSet
EndChar

StartChar: uniFEAE
Encoding: 65198 65198 214
Width: 837
VWidth: 2237
GlyphClass: 2
Flags: W
AnchorPoint: "Anchor-10" 374.025 869 basechar 0
AnchorPoint: "Anchor-7" 346.95 -576.55 basechar 0
LayerCount: 2
Fore
SplineSet
391.659 -11.0088 m 2,0,-1
 391.66 587.702 l 1,1,-1
 669.659 589.281 l 1,2,-1
 669.659 356.054 l 2,3,4
 669.659 340.838 669.659 340.838 677.373 327.1 c 4,5,6
 703.271 280.981 703.271 280.981 794.865 280.98 c 2,7,-1
 901.625 280.98 l 1,8,-1
 901.625 0 l 1,9,-1
 794.015 0 l 2,10,11
 732.062 0 732.062 0 669.496 17.7793 c 1,12,13
 665.419 -204.81 665.419 -204.81 556.09 -324.96 c 128,-1,14
 446.763 -445.107 446.763 -445.107 242.977 -445.042 c 2,15,-1
 40.001 -444.977 l 1,16,-1
 40.0059 -164.947 l 1,17,-1
 207.022 -165.042 l 2,18,19
 296.148 -165.093 296.148 -165.093 350.349 -129.131 c 0,20,21
 391.659 -101.723 391.659 -101.723 391.659 -11.0088 c 2,0,-1
EndSplineSet
PairPos2: "'kern' Horizontal Kerning lookup 15-1" uniFEDF dx=-70 dy=0 dh=-70 dv=0 dx=0 dy=0 dh=0 dv=0
PairPos2: "'kern' Horizontal Kerning lookup 15-1" uniFBAC dx=-70 dy=0 dh=-70 dv=0 dx=0 dy=0 dh=0 dv=0
PairPos2: "'kern' Horizontal Kerning lookup 15-1" uniFB90 dx=-70 dy=0 dh=-70 dv=0 dx=0 dy=0 dh=0 dv=0
PairPos2: "'kern' Horizontal Kerning lookup 15-1" uni06A9 dx=-70 dy=0 dh=-70 dv=0 dx=0 dy=0 dh=0 dv=0
PairPos2: "'kern' Horizontal Kerning lookup 15-1" uni0649 dx=-70 dy=0 dh=-70 dv=0 dx=0 dy=0 dh=0 dv=0
PairPos2: "'kern' Horizontal Kerning lookup 15-1" uni0647 dx=-70 dy=0 dh=-70 dv=0 dx=0 dy=0 dh=0 dv=0
PairPos2: "'kern' Horizontal Kerning lookup 15-1" uniFEE7 dx=-70 dy=0 dh=-70 dv=0 dx=0 dy=0 dh=0 dv=0
PairPos2: "'kern' Horizontal Kerning lookup 15-1" uniFEE3 dx=-70 dy=0 dh=-70 dv=0 dx=0 dy=0 dh=0 dv=0
PairPos2: "'kern' Horizontal Kerning lookup 15-1" uni0645 dx=-70 dy=0 dh=-70 dv=0 dx=0 dy=0 dh=0 dv=0
PairPos2: "'kern' Horizontal Kerning lookup 15-1" uniFEDB dx=-70 dy=0 dh=-70 dv=0 dx=0 dy=0 dh=0 dv=0
PairPos2: "'kern' Horizontal Kerning lookup 15-1" uniFED7 dx=-70 dy=0 dh=-70 dv=0 dx=0 dy=0 dh=0 dv=0
PairPos2: "'kern' Horizontal Kerning lookup 15-1" uniFED3 dx=-70 dy=0 dh=-70 dv=0 dx=0 dy=0 dh=0 dv=0
PairPos2: "'kern' Horizontal Kerning lookup 15-1" uni0641 dx=-70 dy=0 dh=-70 dv=0 dx=0 dy=0 dh=0 dv=0
PairPos2: "'kern' Horizontal Kerning lookup 15-1" uniFECF dx=-70 dy=0 dh=-70 dv=0 dx=0 dy=0 dh=0 dv=0
PairPos2: "'kern' Horizontal Kerning lookup 15-1" uniFECB dx=-70 dy=0 dh=-70 dv=0 dx=0 dy=0 dh=0 dv=0
PairPos2: "'kern' Horizontal Kerning lookup 15-1" uniFEC7 dx=-70 dy=0 dh=-70 dv=0 dx=0 dy=0 dh=0 dv=0
PairPos2: "'kern' Horizontal Kerning lookup 15-1" uni0638 dx=-70 dy=0 dh=-70 dv=0 dx=0 dy=0 dh=0 dv=0
PairPos2: "'kern' Horizontal Kerning lookup 15-1" uniFEC3 dx=-70 dy=0 dh=-70 dv=0 dx=0 dy=0 dh=0 dv=0
PairPos2: "'kern' Horizontal Kerning lookup 15-1" uni0637 dx=-70 dy=0 dh=-70 dv=0 dx=0 dy=0 dh=0 dv=0
PairPos2: "'kern' Horizontal Kerning lookup 15-1" uniFEBF dx=-70 dy=0 dh=-70 dv=0 dx=0 dy=0 dh=0 dv=0
PairPos2: "'kern' Horizontal Kerning lookup 15-1" uni0636 dx=-70 dy=0 dh=-70 dv=0 dx=0 dy=0 dh=0 dv=0
PairPos2: "'kern' Horizontal Kerning lookup 15-1" uniFEBB dx=-70 dy=0 dh=-70 dv=0 dx=0 dy=0 dh=0 dv=0
PairPos2: "'kern' Horizontal Kerning lookup 15-1" uni0635 dx=-70 dy=0 dh=-70 dv=0 dx=0 dy=0 dh=0 dv=0
PairPos2: "'kern' Horizontal Kerning lookup 15-1" uniFEB7 dx=-70 dy=0 dh=-70 dv=0 dx=0 dy=0 dh=0 dv=0
PairPos2: "'kern' Horizontal Kerning lookup 15-1" uni0634 dx=-70 dy=0 dh=-70 dv=0 dx=0 dy=0 dh=0 dv=0
PairPos2: "'kern' Horizontal Kerning lookup 15-1" uniFEB3 dx=-70 dy=0 dh=-70 dv=0 dx=0 dy=0 dh=0 dv=0
PairPos2: "'kern' Horizontal Kerning lookup 15-1" uni0633 dx=-70 dy=0 dh=-70 dv=0 dx=0 dy=0 dh=0 dv=0
PairPos2: "'kern' Horizontal Kerning lookup 15-1" uni0630 dx=-70 dy=0 dh=-70 dv=0 dx=0 dy=0 dh=0 dv=0
PairPos2: "'kern' Horizontal Kerning lookup 15-1" uni062F dx=-70 dy=0 dh=-70 dv=0 dx=0 dy=0 dh=0 dv=0
PairPos2: "'kern' Horizontal Kerning lookup 15-1" uniFEA7 dx=-70 dy=0 dh=-70 dv=0 dx=0 dy=0 dh=0 dv=0
PairPos2: "'kern' Horizontal Kerning lookup 15-1" uniFEA3 dx=-70 dy=0 dh=-70 dv=0 dx=0 dy=0 dh=0 dv=0
PairPos2: "'kern' Horizontal Kerning lookup 15-1" uniFE9F dx=-70 dy=0 dh=-70 dv=0 dx=0 dy=0 dh=0 dv=0
PairPos2: "'kern' Horizontal Kerning lookup 15-1" uniFE9B dx=-70 dy=0 dh=-70 dv=0 dx=0 dy=0 dh=0 dv=0
PairPos2: "'kern' Horizontal Kerning lookup 15-1" uni062B dx=-70 dy=0 dh=-70 dv=0 dx=0 dy=0 dh=0 dv=0
PairPos2: "'kern' Horizontal Kerning lookup 15-1" uniFE97 dx=-70 dy=0 dh=-70 dv=0 dx=0 dy=0 dh=0 dv=0
PairPos2: "'kern' Horizontal Kerning lookup 15-1" uni062A dx=-70 dy=0 dh=-70 dv=0 dx=0 dy=0 dh=0 dv=0
PairPos2: "'kern' Horizontal Kerning lookup 15-1" uni0629 dx=-70 dy=0 dh=-70 dv=0 dx=0 dy=0 dh=0 dv=0
PairPos2: "'kern' Horizontal Kerning lookup 15-1" uni0628 dx=-70 dy=0 dh=-70 dv=0 dx=0 dy=0 dh=0 dv=0
PairPos2: "'kern' Horizontal Kerning lookup 15-1" uni0627 dx=-70 dy=0 dh=-70 dv=0 dx=0 dy=0 dh=0 dv=0
PairPos2: "'kern' Horizontal Kerning lookup 15-1" uni0622 dx=-70 dy=0 dh=-70 dv=0 dx=0 dy=0 dh=0 dv=0
PairPos2: "'kern' Horizontal Kerning lookup 15-1" uniFB94 dx=-70 dy=0 dh=-70 dv=0 dx=0 dy=0 dh=0 dv=0
PairPos2: "'kern' Horizontal Kerning lookup 15-1" afii57509 dx=-70 dy=0 dh=-70 dv=0 dx=0 dy=0 dh=0 dv=0
PairPos2: "'kern' Horizontal Kerning lookup 15-1" uniFB56 dx=-70 dy=0 dh=-70 dv=0 dx=0 dy=0 dh=0 dv=0
PairPos2: "'kern' Horizontal Kerning lookup 15-1" afii57506 dx=-70 dy=0 dh=-70 dv=0 dx=0 dy=0 dh=0 dv=0
EndChar

StartChar: uniFEB2
Encoding: 65202 65202 218
Width: 2461
VWidth: 2237
GlyphClass: 2
Flags: W
AnchorPoint: "Anchor-10" 605 937.5 basechar 0
AnchorPoint: "Anchor-7" 393 -588.5 basechar 0
LayerCount: 2
Fore
SplineSet
2138.11 84.79 m 1,0,1
 2047.02 0 2047.02 0 1915.04 0 c 2,2,-1
 1828.3 0 l 1,3,4
 1712.43 -1.16113 1712.43 -1.16113 1644.8 67.1123 c 0,5,6
 1635.97 76.0254 1635.97 76.0254 1628.16 85.1934 c 1,7,8
 1543.28 -2.15625 1543.28 -2.15625 1350.48 0.00292969 c 0,9,10
 1261.71 0.973633 1261.71 0.973633 1202.93 26.0996 c 1,11,12
 1180.91 -170.235 1180.91 -170.235 1041.09 -273.611 c 128,-1,13
 901.264 -376.988 901.264 -376.988 660.833 -384.344 c 2,14,-1
 643.681 -384.869 l 1,15,-1
 619.601 -384.869 l 2,16,17
 340.389 -384.869 340.389 -384.869 190.181 -262.303 c 128,-1,18
 39.9727 -139.736 39.9727 -139.736 39.9727 97.6299 c 2,19,-1
 39.9727 330.131 l 2,20,21
 39.9727 404.279 39.9727 404.279 77.7881 452.455 c 128,-1,22
 115.604 500.63 115.604 500.63 184.901 500.63 c 2,23,-1
 311.973 500.63 l 1,24,-1
 311.973 98.6299 l 2,25,26
 311.973 -3.66113 311.973 -3.66113 383.139 -53.7754 c 128,-1,27
 454.305 -103.889 454.305 -103.889 621.451 -103.889 c 2,28,-1
 642.357 -103.889 l 1,29,-1
 665.337 -103.399 l 2,30,31
 811.946 -100.275 811.946 -100.275 874.424 -50.374 c 128,-1,32
 936.901 -0.47168 936.901 -0.47168 936.901 102.131 c 2,33,-1
 936.901 143.131 l 2,34,35
 936.901 563.247 936.901 563.247 936.528 583.191 c 2,36,-1
 934.499 635.865 l 1,37,-1
 1218.33 636.115 l 1,38,-1
 1218.99 371.97 l 2,39,40
 1219.05 345.891 1219.05 345.891 1226.46 327.677 c 0,41,42
 1248.54 273.416 1248.54 273.416 1357.64 272.188 c 0,43,44
 1416.06 271.498 1416.06 271.498 1448.65 281.803 c 128,-1,45
 1481.24 292.107 1481.24 292.107 1491.22 308.353 c 128,-1,46
 1501.2 324.598 1501.2 324.598 1501.13 351.562 c 2,47,-1
 1500.39 636.07 l 1,48,-1
 1768.28 636.07 l 1,49,-1
 1768.99 373.887 l 2,50,51
 1769.15 314.673 1769.15 314.673 1792.72 292.717 c 128,-1,52
 1816.29 270.762 1816.29 270.762 1880.78 272.259 c 2,53,-1
 1918.61 272.746 l 2,54,55
 1959.95 273.278 1959.95 273.278 1979.8 301.865 c 128,-1,56
 1999.66 330.451 1999.66 330.451 1999.66 411.499 c 2,57,-1
 1999.66 730.499 l 1,58,-1
 2271.66 730.499 l 1,59,-1
 2271.66 450.499 l 2,60,61
 2271.66 356.196 2271.66 356.196 2304.12 318.788 c 128,-1,62
 2336.58 281.38 2336.58 281.38 2411.46 281.38 c 2,63,-1
 2524.33 281.38 l 1,64,-1
 2524.33 0.5 l 1,65,-1
 2382.92 0.5 l 2,66,67
 2223.07 0.5 2223.07 0.5 2138.11 84.79 c 1,0,1
EndSplineSet
EndChar

StartChar: uniFEB3
Encoding: 65203 65203 219
Width: 1635
VWidth: 2237
GlyphClass: 2
Flags: W
AnchorPoint: "Anchor-10" 695.5 1009.5 basechar 0
AnchorPoint: "Anchor-7" 831.5 -218 basechar 0
LayerCount: 2
Fore
SplineSet
1171.71 276.723 m 2,0,1
 1225.9 278.063 1225.9 278.063 1248.87 305.644 c 128,-1,2
 1271.84 333.225 1271.84 333.225 1271.84 406.499 c 2,3,-1
 1271.84 730.499 l 1,4,-1
 1543.84 730.499 l 1,5,-1
 1543.84 417.499 l 2,6,7
 1543.84 219.058 1543.84 219.058 1452.54 109.528 c 128,-1,8
 1361.25 0 1361.25 0 1187.22 0 c 2,9,-1
 1116.22 0 l 2,10,11
 990.338 0 990.338 0 918.819 65.3516 c 0,12,13
 908.831 74.4785 908.831 74.4785 899.713 84.833 c 1,14,15
 814.978 -1.26953 814.978 -1.26953 622.834 0.000976562 c 0,16,17
 450.657 1.4873 450.657 1.4873 366.052 91.3496 c 1,18,19
 343.574 71.4756 343.574 71.4756 318.464 54.7744 c 0,20,21
 236.108 0 236.108 0 117.7 0 c 2,22,-1
 -59.4004 0 l 1,23,-1
 -59.4004 280.98 l 1,24,-1
 58.8486 280.98 l 2,25,26
 160.841 280.981 160.841 280.981 201.639 314.918 c 128,-1,27
 242.437 348.854 242.437 348.854 242.623 425.185 c 2,28,-1
 243.139 636.07 l 1,29,-1
 490.479 636.07 l 1,30,-1
 491.169 425.013 l 2,31,32
 491.443 341.058 491.443 341.058 523.016 307.062 c 128,-1,33
 554.589 273.065 554.589 273.065 629.824 272.188 c 0,34,35
 688.238 271.499 688.238 271.499 720.831 281.805 c 128,-1,36
 753.424 292.109 753.424 292.109 763.403 308.354 c 128,-1,37
 773.383 324.598 773.383 324.598 773.312 351.562 c 2,38,-1
 772.567 636.07 l 1,39,-1
 1040.46 636.07 l 1,40,-1
 1041.17 373.888 l 2,41,42
 1041.32 317.194 1041.32 317.194 1064.7 295.974 c 128,-1,43
 1088.08 274.752 1088.08 274.752 1152.66 276.251 c 2,44,-1
 1171.71 276.723 l 2,0,1
EndSplineSet
EndChar

StartChar: uniFEB4
Encoding: 65204 65204 220
Width: 1715
VWidth: 2232
GlyphClass: 2
Flags: W
AnchorPoint: "Anchor-10" 720.5 1004.5 basechar 0
AnchorPoint: "Anchor-7" 775.5 -184 basechar 0
LayerCount: 2
Fore
SplineSet
1181.72 2.23145 m 0,0,1
 1000.52 -9.08008 1000.52 -9.08008 909.786 89.7734 c 1,2,3
 826.176 1.88672 826.176 1.88672 635.252 3.21094 c 0,4,5
 453.252 4.5752 453.252 4.5752 366.718 96.751 c 1,6,7
 347.747 82.0938 347.747 82.0938 321.349 64.5352 c 0,8,9
 224.32 0 224.32 0 72.207 0 c 2,10,-1
 -70.2744 0 l 1,11,-1
 -70.2744 280.979 l 1,12,-1
 36.4375 280.979 l 2,13,14
 96.624 281.487 96.624 281.487 137.797 289.17 c 128,-1,15
 178.969 296.852 178.969 296.852 200.287 311.069 c 128,-1,16
 221.605 325.287 221.605 325.287 230.156 341.825 c 128,-1,17
 238.706 358.363 238.706 358.363 238.467 380.447 c 2,18,-1
 235.683 637.359 l 1,19,-1
 496.423 637.359 l 1,20,-1
 495.979 417.977 l 2,21,22
 495.829 343.43 495.829 343.43 526.93 311.823 c 128,-1,23
 558.03 280.217 558.03 280.217 634.981 277.649 c 0,24,25
 641.12 277.463 641.12 277.463 647.082 277.456 c 0,26,27
 722.205 277.373 722.205 277.373 749.075 299.317 c 128,-1,28
 775.945 321.261 775.945 321.261 775.885 373.038 c 2,29,-1
 775.585 637.359 l 1,30,-1
 1044.23 637.359 l 1,31,-1
 1045.7 358.688 l 2,32,33
 1045.92 316.167 1045.92 316.167 1071.37 297.02 c 128,-1,34
 1096.81 277.871 1096.81 277.871 1170.53 277.606 c 0,35,36
 1225.51 277.365 1225.51 277.365 1246.67 299.859 c 128,-1,37
 1267.84 322.353 1267.84 322.353 1267.98 384.827 c 2,38,-1
 1268.72 706 l 1,39,-1
 1527.11 706 l 1,40,-1
 1528.24 416.759 l 2,41,42
 1528.54 338.755 1528.54 338.755 1578.01 301.884 c 0,43,44
 1604.83 281.88 1604.83 281.88 1665.45 281.88 c 2,45,-1
 1777.64 281.88 l 1,46,-1
 1777.64 0 l 1,47,-1
 1620.66 0 l 2,48,49
 1483.8 0 1483.8 0 1405.59 81.9482 c 1,50,51
 1335.73 11.4688 1335.73 11.4688 1181.72 2.23145 c 0,0,1
EndSplineSet
EndChar

StartChar: uniFEBA
Encoding: 65210 65210 226
Width: 2420
VWidth: 2237
GlyphClass: 2
Flags: W
AnchorPoint: "Anchor-10" 578 1037.5 basechar 0
AnchorPoint: "Anchor-7" 417 -677.5 basechar 0
LayerCount: 2
Fore
SplineSet
1502.94 292.069 m 1,0,-1
 1715.41 292.069 l 2,1,2
 1834.39 292.069 1834.39 292.069 1903.75 321.477 c 0,3,4
 1944.08 338.584 1944.08 338.584 1961.29 369.278 c 128,-1,5
 1978.49 399.972 1978.49 399.972 1975.65 455.575 c 0,6,7
 1972.71 511.511 1972.71 511.511 1948.93 532.872 c 128,-1,8
 1925.16 554.234 1925.16 554.234 1864.92 553.243 c 0,9,10
 1793.91 551.697 1793.91 551.697 1686.67 460.646 c 0,11,12
 1569.71 361.354 1569.71 361.354 1502.94 292.069 c 1,0,-1
2120.47 114.627 m 1,13,14
 2091.85 88.6914 2091.85 88.6914 2058.03 66.1445 c 0,15,16
 1959.23 -0.24707 1959.23 -0.24707 1819.79 0 c 2,17,-1
 1441.62 0.668945 l 2,18,19
 1293.5 0.931641 1293.5 0.931641 1205 46.2188 c 1,20,21
 1189.38 -159.228 1189.38 -159.228 1048.81 -268.001 c 128,-1,22
 908.241 -376.775 908.241 -376.775 660.833 -384.344 c 2,23,-1
 643.681 -384.869 l 1,24,-1
 619.601 -384.869 l 2,25,26
 340.389 -384.869 340.389 -384.869 190.181 -262.303 c 128,-1,27
 39.9727 -139.736 39.9727 -139.736 39.9727 97.6299 c 2,28,-1
 39.9727 330.131 l 2,29,30
 39.9727 404.279 39.9727 404.279 77.7881 452.455 c 128,-1,31
 115.604 500.63 115.604 500.63 184.901 500.63 c 2,32,-1
 311.973 500.63 l 1,33,-1
 311.973 98.6299 l 2,34,35
 311.973 -3.66113 311.973 -3.66113 383.139 -53.7754 c 128,-1,36
 454.305 -103.889 454.305 -103.889 621.451 -103.889 c 2,37,-1
 642.357 -103.889 l 1,38,-1
 665.337 -103.399 l 2,39,40
 811.946 -100.275 811.946 -100.275 874.424 -50.374 c 128,-1,41
 936.901 -0.47168 936.901 -0.47168 936.901 102.131 c 2,42,-1
 936.901 143.131 l 2,43,44
 936.901 563.247 936.901 563.247 936.528 583.194 c 2,45,-1
 934.498 635.885 l 1,46,-1
 1210.9 636.026 l 1,47,-1
 1210.9 470.251 l 1,48,49
 1214.15 436.835 1214.15 436.835 1224.76 426.736 c 128,-1,50
 1235.38 416.637 1235.38 416.637 1265.29 415.999 c 1,51,52
 1301.06 454.373 1301.06 454.373 1431.64 584.633 c 0,53,54
 1564.5 717.152 1564.5 717.152 1685.19 776.17 c 0,55,56
 1842.96 853.322 1842.96 853.322 2023.92 803.402 c 0,57,58
 2137.63 772.369 2137.63 772.369 2195.13 673.996 c 128,-1,59
 2252.64 575.624 2252.64 575.624 2254.71 424.474 c 0,60,61
 2255.08 388.974 2255.08 388.974 2250.35 355.623 c 1,62,63
 2310.9 281.38 2310.9 281.38 2405.78 281.38 c 2,64,-1
 2481.1 281.38 l 1,65,-1
 2481.1 0.5 l 1,66,-1
 2385.93 0.5 l 2,67,68
 2226.64 0.5 2226.64 0.5 2120.47 114.627 c 1,13,14
EndSplineSet
EndChar

StartChar: uniFEBB
Encoding: 65211 65211 227
Width: 1570
VWidth: 2237
GlyphClass: 2
Flags: W
AnchorPoint: "Anchor-10" 548.3 1125.8 basechar 0
AnchorPoint: "Anchor-7" 548.3 -166 basechar 0
LayerCount: 2
Fore
SplineSet
690.164 292.071 m 1,0,-1
 902.638 292.071 l 2,1,2
 1021.61 292.071 1021.61 292.071 1090.96 321.479 c 0,3,4
 1131.28 338.577 1131.28 338.577 1148.5 369.288 c 128,-1,5
 1165.72 399.999 1165.72 399.999 1162.88 455.483 c 0,6,7
 1159.94 511.522 1159.94 511.522 1136.17 532.88 c 128,-1,8
 1112.4 554.236 1112.4 554.236 1052.15 553.245 c 0,9,10
 981.142 551.7 981.142 551.7 873.892 460.649 c 0,11,12
 756.905 361.328 756.905 361.328 690.164 292.071 c 1,0,-1
618.866 584.635 m 0,13,14
 751.727 717.162 751.727 717.162 872.408 776.171 c 0,15,16
 1030.19 853.324 1030.19 853.324 1211.14 803.404 c 0,17,18
 1324.86 772.368 1324.86 772.368 1382.36 674.002 c 128,-1,19
 1439.86 575.637 1439.86 575.637 1441.93 424.417 c 0,20,21
 1443.12 313.072 1443.12 313.072 1392.89 222.066 c 128,-1,22
 1342.65 131.061 1342.65 131.061 1245.25 66.1475 c 0,23,24
 1146.9 0.0449219 1146.9 0.0449219 1007.61 0.000976562 c 2,25,-1
 628.848 0.670898 l 2,26,27
 551.096 0.808594 551.096 0.808594 447.818 54.8877 c 0,28,29
 387.559 86.4414 387.559 86.4414 345.783 132.791 c 1,30,31
 227.122 0 227.122 0 60.9902 0 c 2,32,-1
 -59.4004 0 l 1,33,-1
 -59.4004 280.98 l 1,34,-1
 55.1387 280.98 l 2,35,36
 126.727 280.981 126.727 280.981 157.493 316.387 c 128,-1,37
 188.26 351.792 188.26 351.792 188.26 442.06 c 2,38,-1
 188.26 643.04 l 1,39,-1
 449.676 643.04 l 1,40,-1
 451.138 483.046 l 2,41,42
 451.5 443.359 451.5 443.359 462.615 426.692 c 1,43,44
 504.529 470.582 504.529 470.582 618.866 584.635 c 0,13,14
EndSplineSet
EndChar

StartChar: uniFEBC
Encoding: 65212 65212 228
Width: 1627
VWidth: 2237
GlyphClass: 2
Flags: W
AnchorPoint: "Anchor-10" 580.5 1190.5 basechar 0
AnchorPoint: "Anchor-7" 608.5 -198 basechar 0
LayerCount: 2
Fore
SplineSet
690.164 292.071 m 1,0,-1
 902.638 292.071 l 2,1,2
 1021.61 292.071 1021.61 292.071 1090.96 321.479 c 0,3,4
 1131.28 338.577 1131.28 338.577 1148.5 369.288 c 128,-1,5
 1165.72 399.999 1165.72 399.999 1162.88 455.483 c 0,6,7
 1159.94 511.522 1159.94 511.522 1136.17 532.88 c 128,-1,8
 1112.4 554.236 1112.4 554.236 1052.15 553.245 c 0,9,10
 981.142 551.7 981.142 551.7 873.892 460.649 c 0,11,12
 756.905 361.328 756.905 361.328 690.164 292.071 c 1,0,-1
1292.8 101.635 m 1,13,14
 1270.39 82.8975 1270.39 82.8975 1245.24 66.1406 c 0,15,16
 1146.91 0.0449219 1146.91 0.0449219 1007.61 0.000976562 c 2,17,-1
 628.848 0.670898 l 2,18,19
 551.096 0.808594 551.096 0.808594 447.818 54.8877 c 0,20,21
 387.558 86.4414 387.558 86.4414 345.782 132.791 c 1,22,23
 227.122 -0 227.122 -0 60.9902 0 c 2,24,-1
 -59.4004 0 l 1,25,-1
 -59.4004 280.98 l 1,26,-1
 55.1396 280.98 l 2,27,28
 126.727 280.98 126.727 280.98 157.493 316.386 c 128,-1,29
 188.26 351.791 188.26 351.791 188.26 442.06 c 2,30,-1
 188.26 643.04 l 1,31,-1
 449.676 643.04 l 1,32,-1
 451.138 483.046 l 2,33,34
 451.5 443.359 451.5 443.359 462.615 426.692 c 1,35,36
 504.529 470.581 504.529 470.581 618.866 584.635 c 0,37,38
 751.727 717.162 751.727 717.162 872.408 776.171 c 0,39,40
 1030.19 853.324 1030.19 853.324 1211.14 803.404 c 0,41,42
 1324.86 772.368 1324.86 772.368 1382.36 674.002 c 128,-1,43
 1439.86 575.635 1439.86 575.635 1441.93 424.43 c 0,44,45
 1442.34 385.693 1442.34 385.693 1436.56 348.879 c 1,46,47
 1450.38 336.928 1450.38 336.928 1472.07 321.28 c 0,48,49
 1527.39 281.38 1527.39 281.38 1597.51 281.38 c 2,50,-1
 1685.8 281.38 l 1,51,-1
 1685.8 0.5 l 1,52,-1
 1576.11 0.5 l 2,53,54
 1422.96 0.5 1422.96 0.5 1337.39 66.6602 c 0,55,56
 1311.14 86.6992 1311.14 86.6992 1292.8 101.635 c 1,13,14
EndSplineSet
EndChar

StartChar: uniFEC2
Encoding: 65218 65218 234
Width: 1557
VWidth: 2237
GlyphClass: 2
Flags: W
AnchorPoint: "Anchor-7" 551.13 -214 basechar 0
AnchorPoint: "Anchor-10" 315.67 1566.79 basechar 0
LayerCount: 2
Fore
SplineSet
645.164 292.071 m 1,0,-1
 857.638 292.071 l 2,1,2
 976.613 292.071 976.613 292.071 1045.96 321.479 c 0,3,4
 1086.28 338.577 1086.28 338.577 1103.5 369.288 c 128,-1,5
 1120.72 399.999 1120.72 399.999 1117.88 455.483 c 0,6,7
 1114.94 511.522 1114.94 511.522 1091.17 532.88 c 128,-1,8
 1067.4 554.236 1067.4 554.236 1007.15 553.245 c 0,9,10
 936.142 551.7 936.142 551.7 828.892 460.649 c 0,11,12
 711.905 361.328 711.905 361.328 645.164 292.071 c 1,0,-1
1219.33 79.4277 m 1,13,14
 1209.73 72.4648 1209.73 72.4648 1200.25 66.1465 c 0,15,16
 1101.9 0.0449219 1101.9 0.0449219 962.613 0.000976562 c 2,17,-1
 583.927 0.670898 l 1,18,-1
 40.5996 -0.0693359 l 1,19,-1
 40.5996 280.98 l 1,20,-1
 210.13 280.98 l 1,21,-1
 210.13 1302.89 l 1,22,-1
 479.01 1302.89 l 1,23,-1
 479.01 491.786 l 1,24,25
 518.64 530.899 518.64 530.899 574.259 585.021 c 0,26,27
 711.763 719.625 711.763 719.625 827.408 776.171 c 0,28,29
 985.188 853.324 985.188 853.324 1166.14 803.404 c 0,30,31
 1279.86 772.367 1279.86 772.367 1337.36 674.003 c 128,-1,32
 1394.86 575.639 1394.86 575.639 1396.93 424.407 c 0,33,34
 1397.51 370.065 1397.51 370.065 1386 320.38 c 1,35,36
 1427.11 281.38 1427.11 281.38 1536.1 281.38 c 2,37,-1
 1616.9 281.38 l 1,38,-1
 1616.9 0.5 l 1,39,-1
 1477.25 0.5 l 2,40,41
 1308.69 0.5 1308.69 0.5 1219.33 79.4277 c 1,13,14
EndSplineSet
EndChar

StartChar: uniFEC3
Encoding: 65219 65219 235
Width: 1464
VWidth: 2237
GlyphClass: 2
Flags: W
AnchorPoint: "Anchor-10" 262.57 1569.47 basechar 0
AnchorPoint: "Anchor-7" 400.57 -198 basechar 0
LayerCount: 2
Fore
SplineSet
621.164 292.071 m 1,0,-1
 833.638 292.071 l 2,1,2
 952.613 292.071 952.613 292.071 1021.96 321.479 c 0,3,4
 1062.28 338.578 1062.28 338.578 1079.5 369.288 c 128,-1,5
 1096.72 399.999 1096.72 399.999 1093.88 455.483 c 0,6,7
 1090.94 511.522 1090.94 511.522 1067.17 532.88 c 128,-1,8
 1043.4 554.236 1043.4 554.236 983.146 553.245 c 0,9,10
 912.142 551.7 912.142 551.7 804.892 460.649 c 0,11,12
 687.905 361.328 687.905 361.328 621.164 292.071 c 1,0,-1
455.01 491.786 m 1,13,14
 494.642 530.899 494.642 530.899 550.259 585.021 c 0,15,16
 687.763 719.625 687.763 719.625 803.408 776.171 c 0,17,18
 961.188 853.323 961.188 853.323 1142.14 803.404 c 0,19,20
 1255.86 772.368 1255.86 772.368 1313.36 674.002 c 128,-1,21
 1370.86 575.637 1370.86 575.637 1372.93 424.417 c 0,22,23
 1374.12 313.072 1374.12 313.072 1323.89 222.066 c 128,-1,24
 1273.65 131.061 1273.65 131.061 1176.25 66.1475 c 0,25,26
 1077.9 0.0449219 1077.9 0.0449219 938.614 0.000976562 c 2,27,-1
 559.922 0.670898 l 1,28,-1
 -74.4004 -0.0585938 l 1,29,-1
 -74.4004 280.98 l 1,30,-1
 186.13 280.98 l 1,31,-1
 186.13 1302.89 l 1,32,-1
 455.01 1302.89 l 1,33,-1
 455.01 491.786 l 1,13,14
EndSplineSet
EndChar

StartChar: uniFEC4
Encoding: 65220 65220 236
Width: 1533
VWidth: 2237
GlyphClass: 2
Flags: W
AnchorPoint: "Anchor-10" 257.27 1579.79 basechar 0
AnchorPoint: "Anchor-7" 538.73 -190 basechar 0
LayerCount: 2
Fore
SplineSet
621.164 292.071 m 1,0,-1
 833.638 292.071 l 2,1,2
 952.613 292.071 952.613 292.071 1021.96 321.479 c 0,3,4
 1062.28 338.578 1062.28 338.578 1079.5 369.288 c 128,-1,5
 1096.72 399.999 1096.72 399.999 1093.88 455.483 c 0,6,7
 1090.94 511.522 1090.94 511.522 1067.17 532.88 c 128,-1,8
 1043.4 554.236 1043.4 554.236 983.146 553.245 c 0,9,10
 912.142 551.7 912.142 551.7 804.892 460.649 c 0,11,12
 687.905 361.328 687.905 361.328 621.164 292.071 c 1,0,-1
1195.33 79.4258 m 1,13,14
 1185.73 72.4609 1185.73 72.4609 1176.24 66.1406 c 0,15,16
 1077.91 0.0449219 1077.91 0.0449219 938.614 0.000976562 c 2,17,-1
 559.922 0.670898 l 1,18,-1
 -74.4004 -0.0585938 l 1,19,-1
 -74.4004 280.98 l 1,20,-1
 186.13 280.98 l 1,21,-1
 186.13 1302.89 l 1,22,-1
 455.01 1302.89 l 1,23,-1
 455.01 491.786 l 1,24,25
 494.642 530.899 494.642 530.899 550.259 585.021 c 0,26,27
 687.763 719.625 687.763 719.625 803.408 776.171 c 0,28,29
 961.188 853.323 961.188 853.323 1142.14 803.404 c 0,30,31
 1255.86 772.367 1255.86 772.367 1313.36 674.003 c 128,-1,32
 1370.86 575.639 1370.86 575.639 1372.93 424.407 c 0,33,34
 1373.51 370.065 1373.51 370.065 1362 320.38 c 1,35,36
 1403.11 281.38 1403.11 281.38 1512.1 281.38 c 2,37,-1
 1592.9 281.38 l 1,38,-1
 1592.9 0.5 l 1,39,-1
 1453.25 0.5 l 2,40,41
 1284.69 0.5 1284.69 0.5 1195.33 79.4258 c 1,13,14
EndSplineSet
EndChar

StartChar: uniFECA
Encoding: 65226 65226 242
Width: 1184
VWidth: 2237
GlyphClass: 2
Flags: W
AnchorPoint: "Anchor-10" 568 1116.5 basechar 0
AnchorPoint: "Anchor-7" 399.69 -638.64 basechar 0
LayerCount: 2
Fore
SplineSet
615.131 758.446 m 0,0,1
 560.751 758.446 560.751 758.446 517.838 750.406 c 0,2,3
 465.744 740.774 465.744 740.774 439.848 728.775 c 1,4,5
 455.71 711.2 455.71 711.2 487.302 688.721 c 0,6,7
 551.214 643.243 551.214 643.243 615.616 608.048 c 1,8,9
 669.876 637.501 669.876 637.501 736.355 689.407 c 0,10,11
 765.114 712.189 765.114 712.189 772.958 726.412 c 0,12,13
 772.764 728.072 772.764 728.072 770.899 730.778 c 128,-1,14
 769.035 733.484 769.035 733.484 754.148 739.848 c 128,-1,15
 739.262 746.211 739.262 746.211 713.605 750.206 c 0,16,17
 660.67 758.446 660.67 758.446 615.131 758.446 c 0,0,1
795.041 432.934 m 1,18,19
 924.531 281.38 924.531 281.38 1049.5 281.38 c 2,20,-1
 1264.7 281.38 l 1,21,-1
 1264.7 0.5 l 1,22,-1
 1066.62 0.5 l 2,23,24
 842.175 0.5 842.175 0.5 595.694 278.738 c 1,25,26
 435.18 206.653 435.18 206.653 369.744 123.791 c 0,27,28
 319.647 61.0254 319.647 61.0254 312.537 0.251953 c 128,-1,29
 305.427 -60.5215 305.427 -60.5215 339.548 -127.856 c 0,30,31
 418.801 -285.01 418.801 -285.01 744.33 -248.866 c 0,32,33
 871.289 -235.065 871.289 -235.065 1019.47 -166.083 c 2,34,-1
 1091.99 -132.319 l 1,35,-1
 1091.99 -408.077 l 1,36,-1
 1067.5 -422.979 l 2,37,38
 946.428 -496.651 946.428 -496.651 748.002 -507.094 c 0,39,40
 226.279 -534.549 226.279 -534.549 91.7959 -248.394 c 1,41,42
 34.5771 -124.213 34.5771 -124.213 49.9199 -0.768555 c 128,-1,43
 65.2617 122.675 65.2617 122.675 151.047 239.594 c 0,44,45
 233.15 352.363 233.15 352.363 398.782 448 c 1,46,47
 320.393 494.092 320.393 494.092 256.38 550.62 c 0,48,49
 156.37 638.93 156.37 638.93 164.238 750.659 c 0,50,51
 172.232 867.878 172.232 867.878 319.829 941.712 c 0,52,53
 428.289 996.395 428.289 996.395 601.441 1000.13 c 0,54,55
 684.91 1001.88 684.91 1001.88 760.298 993.593 c 0,56,57
 952.587 971.908 952.587 971.908 1012.38 846.768 c 0,58,59
 1045.85 776.109 1045.85 776.109 1027.98 697.493 c 0,60,61
 997.828 565.547 997.828 565.547 795.041 432.934 c 1,18,19
EndSplineSet
EndChar

StartChar: uniFECB
Encoding: 65227 65227 243
Width: 1059
VWidth: 2237
GlyphClass: 2
Flags: W
AnchorPoint: "Anchor-10" 373.265 1272.23 basechar 0
AnchorPoint: "Anchor-7" 501.6 -162.5 basechar 0
LayerCount: 2
Fore
SplineSet
-59.4004 280.98 m 1,0,-1
 170.719 280.978 l 1,1,2
 139.446 326.994 139.446 326.994 125.723 372.525 c 0,3,4
 74.0234 550.005 74.0234 550.005 130.913 673.109 c 1,5,6
 186.923 797.075 186.923 797.075 291.697 861.304 c 128,-1,7
 396.472 925.532 396.472 925.532 540.626 925.708 c 0,8,9
 770.749 926.045 770.749 926.045 892.239 788.06 c 2,10,-1
 913.861 763.5 l 1,11,-1
 817.658 547.485 l 1,12,-1
 765.76 591.55 l 2,13,14
 669.58 673.206 669.58 673.206 543.621 662.038 c 0,15,16
 471.727 656.001 471.727 656.001 433.496 631.147 c 128,-1,17
 395.266 606.294 395.266 606.294 380.081 561.665 c 0,18,19
 354.935 486.852 354.935 486.852 384.574 420.923 c 0,20,21
 418.396 344.176 418.396 344.176 471.213 319.699 c 1,22,23
 482.535 310.663 482.535 310.663 533.838 311.521 c 128,-1,24
 585.14 312.381 585.14 312.381 652.834 327.241 c 2,25,-1
 979 398.836 l 1,26,-1
 979 115.919 l 1,27,-1
 940.745 106.045 l 2,28,29
 529.783 -0.0244141 529.783 -0.0244141 356.354 -0.015625 c 2,30,-1
 -59.4004 0 l 1,31,-1
 -59.4004 280.98 l 1,0,-1
EndSplineSet
EndChar

StartChar: uniFECC
Encoding: 65228 65228 244
Width: 932
VWidth: 2237
GlyphClass: 2
Flags: W
AnchorPoint: "Anchor-10" 464.58 1116.5 basechar 0
AnchorPoint: "Anchor-7" 458.58 -123.5 basechar 0
LayerCount: 2
Fore
SplineSet
475.267 592.321 m 0,0,1
 420.887 592.321 420.887 592.321 377.974 584.281 c 0,2,3
 325.881 574.649 325.881 574.649 299.983 562.65 c 1,4,5
 315.848 545.073 315.848 545.073 347.438 522.596 c 0,6,7
 411.336 477.128 411.336 477.128 475.752 441.923 c 1,8,9
 530.008 471.373 530.008 471.373 596.49 523.28 c 0,10,11
 625.25 546.062 625.25 546.062 633.093 560.287 c 0,12,13
 632.898 561.947 632.898 561.947 631.034 564.653 c 128,-1,14
 629.171 567.359 629.171 567.359 614.284 573.723 c 128,-1,15
 599.397 580.086 599.397 580.086 573.741 584.081 c 0,16,17
 520.806 592.321 520.806 592.321 475.267 592.321 c 0,0,1
244.081 290.769 m 1,18,19
 174.146 333.604 174.146 333.604 116.515 384.495 c 0,20,21
 16.5049 472.805 16.5049 472.805 24.375 584.537 c 0,22,23
 32.3691 701.754 32.3691 701.754 179.966 775.588 c 0,24,25
 288.423 830.27 288.423 830.27 461.576 834.001 c 0,26,27
 545.046 835.754 545.046 835.754 620.434 827.468 c 0,28,29
 812.723 805.783 812.723 805.783 872.514 680.641 c 0,30,31
 905.988 609.987 905.988 609.987 888.115 531.367 c 0,32,33
 860.696 411.417 860.696 411.417 691.524 291.512 c 1,34,35
 770.565 280.351 770.565 280.351 911.612 280.979 c 2,36,-1
 1052.56 281.607 l 1,37,-1
 1052.56 0.5 l 1,38,-1
 888.3 0.5 l 2,39,40
 586.086 0.5 586.086 0.5 466.092 75.374 c 1,41,42
 401.416 34.9355 401.416 34.9355 297.685 17.4678 c 128,-1,43
 193.953 0 193.953 0 40.8604 0 c 2,44,-1
 -123.4 0 l 1,45,-1
 -123.4 280.98 l 1,46,-1
 17.3203 280.98 l 2,47,48
 161.523 280.98 161.523 280.98 244.081 290.769 c 1,18,19
EndSplineSet
EndChar

StartChar: uniFEDA
Encoding: 65242 65242 258
Width: 1729
VWidth: 2237
GlyphClass: 2
Flags: W
AnchorPoint: "Anchor-10" 539 1423.5 basechar 0
AnchorPoint: "Anchor-7" 790 -167.5 basechar 0
LayerCount: 2
Fore
SplineSet
1009.77 1296.26 m 1,0,-1
 1009.77 1132.8 l 1,1,-1
 962.222 1129.58 l 2,2,3
 897.306 1125.18 897.306 1125.18 865.139 1113.33 c 0,4,5
 816.515 1095.09 816.515 1095.09 804.363 1079.21 c 1,6,7
 804.823 1065.62 804.823 1065.62 809.854 1057.7 c 1,8,9
 826.407 1048.87 826.407 1048.87 872.441 1042.1 c 0,10,11
 938.797 1032.34 938.797 1032.34 976.384 998.014 c 0,12,13
 1019.05 959.047 1019.05 959.047 1019.05 894.298 c 0,14,15
 1019.05 831.706 1019.05 831.706 988.396 781.285 c 128,-1,16
 957.743 730.864 957.743 730.864 901.406 699.007 c 0,17,18
 819.949 652.94 819.949 652.94 710.924 651.929 c 0,19,20
 643.243 651.929 643.243 651.929 584.331 662.268 c 2,21,-1
 542.148 669.672 l 1,22,-1
 542.148 839.299 l 1,23,-1
 600.03 831.415 l 2,24,25
 660.66 823.158 660.66 823.158 701.059 823.158 c 0,26,27
 765.241 823.158 765.241 823.158 803.822 838.348 c 0,28,29
 825.78 846.78 825.78 846.78 837.852 855.565 c 128,-1,30
 849.923 864.35 849.923 864.35 851.187 867.422 c 128,-1,31
 852.45 870.495 852.45 870.495 852.45 872.898 c 2,32,-1
 850.537 878.276 l 1,33,34
 841.52 887.603 841.52 887.603 801.793 894.075 c 0,35,36
 726.767 905.508 726.767 905.508 682.924 950.351 c 0,37,38
 635.64 998.712 635.64 998.712 637.389 1079.21 c 0,39,40
 638.69 1131.85 638.69 1131.85 665.758 1173.61 c 128,-1,41
 692.825 1215.36 692.825 1215.36 740.52 1239.53 c 0,42,43
 833.4 1286.52 833.4 1286.52 955.957 1293.29 c 2,44,-1
 1009.77 1296.26 l 1,0,-1
1442.82 87.5684 m 1,45,46
 1345.84 -0 1345.84 -0 1184.86 0 c 2,47,-1
 416.605 0 l 2,48,49
 232.824 0.0654297 232.824 0.0654297 136.411 114.249 c 128,-1,50
 39.998 228.432 39.998 228.432 39.9971 436.499 c 2,51,-1
 39.9961 730.499 l 1,52,-1
 311.996 730.499 l 1,53,-1
 311.996 445.499 l 2,54,55
 311.996 351.388 311.996 351.388 338.098 316.184 c 128,-1,56
 364.199 280.98 364.199 280.98 420.475 280.98 c 2,57,-1
 1191.01 280.98 l 2,58,59
 1247.36 280.98 1247.36 280.98 1273.43 315.966 c 128,-1,60
 1299.49 350.951 1299.49 350.951 1299.49 444.499 c 2,61,-1
 1299.49 1302.5 l 1,62,-1
 1571.49 1302.5 l 1,63,-1
 1571.49 467.499 l 2,64,65
 1571.49 394.216 1571.49 394.216 1561.55 332.297 c 1,66,67
 1610.62 280.88 1610.62 280.88 1698.17 280.88 c 2,68,-1
 1799.42 280.88 l 1,69,-1
 1799.42 0 l 1,70,-1
 1689.32 0 l 2,71,72
 1566.5 0 1566.5 0 1442.82 87.5684 c 1,45,46
EndSplineSet
EndChar

StartChar: uniFEDB
Encoding: 65243 65243 259
Width: 883
VWidth: 2237
GlyphClass: 2
Flags: W
AnchorPoint: "Anchor-10" 198.5 1255 basechar 0
AnchorPoint: "Anchor-7" 305 -174 basechar 0
LayerCount: 2
Fore
SplineSet
293.7 0 m 2,0,-1
 -61.4004 0 l 1,1,-1
 -61.4004 280.976 l 1,2,-1
 252.366 281.004 l 2,3,4
 297.552 281.008 297.552 281.008 332.08 285.18 c 128,-1,5
 366.608 289.352 366.608 289.352 385.688 295.393 c 128,-1,6
 404.767 301.433 404.767 301.433 416.795 309.612 c 128,-1,7
 428.823 317.793 428.823 317.793 432.55 324.345 c 128,-1,8
 436.276 330.896 436.276 330.896 436.559 337.56 c 0,9,10
 438.792 390.32 438.792 390.32 371.254 437.629 c 2,11,-1
 73.0068 646.538 l 2,12,13
 -30.7559 719.651 -30.7559 719.651 -38.2988 804.804 c 0,14,15
 -44.96 890.817 -44.96 890.817 -10.6641 954.938 c 128,-1,16
 23.6318 1019.06 23.6318 1019.06 96.0527 1052.7 c 2,17,-1
 772.425 1366.91 l 1,18,-1
 772.425 1078.15 l 1,19,-1
 268.44 837.299 l 1,20,-1
 537.396 645.58 l 1,21,22
 626.242 583.559 626.242 583.559 666.524 495.711 c 128,-1,23
 706.807 407.863 706.807 407.863 694.17 302.496 c 0,24,25
 676.264 144.749 676.264 144.749 560.669 67.877 c 0,26,27
 457.109 0 457.109 0 293.7 0 c 2,0,-1
EndSplineSet
EndChar

StartChar: uniFEDC
Encoding: 65244 65244 260
Width: 860
VWidth: 2237
GlyphClass: 2
Flags: W
AnchorPoint: "Anchor-10" 198.5 1255 basechar 0
AnchorPoint: "Anchor-7" 321 -240 basechar 0
LayerCount: 2
Fore
SplineSet
567.92 72.8184 m 1,0,1
 564.225 70.2246 564.225 70.2246 560.598 67.832 c 0,2,3
 457.779 0 457.779 0 293.7 0 c 2,4,-1
 -61.4004 0 l 1,5,-1
 -61.4004 280.976 l 1,6,-1
 252.366 281.004 l 2,7,8
 297.552 281.008 297.552 281.008 332.08 285.18 c 128,-1,9
 366.608 289.352 366.608 289.352 385.688 295.393 c 128,-1,10
 404.767 301.433 404.767 301.433 416.795 309.612 c 128,-1,11
 428.823 317.793 428.823 317.793 432.55 324.345 c 128,-1,12
 436.276 330.896 436.276 330.896 436.559 337.56 c 0,13,14
 438.792 390.32 438.792 390.32 371.254 437.629 c 2,15,-1
 73.0068 646.538 l 2,16,17
 -30.7559 719.651 -30.7559 719.651 -38.2988 804.804 c 0,18,19
 -44.96 890.817 -44.96 890.817 -10.6641 954.938 c 128,-1,20
 23.6318 1019.06 23.6318 1019.06 96.0527 1052.7 c 2,21,-1
 772.425 1366.91 l 1,22,-1
 772.425 1078.15 l 1,23,-1
 268.44 837.299 l 1,24,-1
 537.396 645.58 l 2,25,26
 619.841 588.027 619.841 588.027 660.689 507.895 c 128,-1,27
 701.538 427.762 701.538 427.762 696.704 331.881 c 1,28,29
 737.404 281.38 737.404 281.38 822.12 281.38 c 2,30,-1
 926.15 281.38 l 1,31,-1
 926.15 0.5 l 1,32,-1
 812.41 0.5 l 2,33,34
 654.271 0.5 654.271 0.5 567.92 72.8184 c 1,0,1
EndSplineSet
EndChar

StartChar: uniFEDE
Encoding: 65246 65246 262
Width: 1402
VWidth: 2237
GlyphClass: 2
Flags: W
AnchorPoint: "Anchor-7" 328.34 -642.3 basechar 0
LayerCount: 2
Fore
SplineSet
1203.39 34.8398 m 1,0,1
 1182.56 -165.35 1182.56 -165.35 1042.6 -271.147 c 128,-1,2
 902.65 -376.946 902.65 -376.946 660.833 -384.344 c 2,3,-1
 643.681 -384.869 l 1,4,-1
 619.601 -384.869 l 2,5,6
 340.389 -384.869 340.389 -384.869 190.181 -262.303 c 128,-1,7
 39.9727 -139.736 39.9727 -139.736 39.9727 97.6299 c 2,8,-1
 39.9727 330.131 l 2,9,10
 39.9727 404.279 39.9727 404.279 77.7881 452.455 c 128,-1,11
 115.604 500.63 115.604 500.63 184.901 500.63 c 2,12,-1
 311.973 500.63 l 1,13,-1
 311.973 98.6299 l 2,14,15
 311.973 -3.66113 311.973 -3.66113 383.139 -53.7754 c 128,-1,16
 454.305 -103.889 454.305 -103.889 621.451 -103.889 c 2,17,-1
 642.357 -103.889 l 1,18,-1
 665.337 -103.399 l 2,19,20
 811.775 -100.279 811.775 -100.279 875.131 -50.1475 c 128,-1,21
 938.487 -0.0146484 938.487 -0.0146484 939.906 102.837 c 2,22,-1
 940.462 143.008 l 2,23,24
 939.91 169.286 939.91 169.286 939.91 430.32 c 2,25,-1
 939.91 1302.03 l 1,26,-1
 1207.79 1302.03 l 1,27,-1
 1207.79 430.327 l 2,28,29
 1207.79 352.157 1207.79 352.157 1246.5 320.996 c 2,30,-1
 1247.55 320.147 l 1,31,-1
 1248.56 319.244 l 2,32,33
 1290.8 281.38 1290.8 281.38 1366.72 281.38 c 2,34,-1
 1484.97 281.38 l 1,35,-1
 1484.97 0.5 l 1,36,-1
 1380.87 0.5 l 2,37,38
 1286.69 0.5 1286.69 0.5 1203.39 34.8398 c 1,0,1
EndSplineSet
EndChar

StartChar: uniFEDF
Encoding: 65247 65247 263
Width: 627
VWidth: 2237
GlyphClass: 2
Flags: W
AnchorPoint: "Anchor-10" 342.73 1523 basechar 0
AnchorPoint: "Anchor-7" 283.73 -190.5 basechar 0
LayerCount: 2
Fore
SplineSet
106.7 0 m 2,0,-1
 -72.6006 0 l 1,1,-1
 -72.6006 280.98 l 1,2,-1
 112.85 280.98 l 2,3,4
 169.201 280.98 169.201 280.98 195.265 315.966 c 128,-1,5
 221.328 350.951 221.328 350.951 221.328 444.499 c 2,6,-1
 221.328 1302.5 l 1,7,-1
 493.328 1302.5 l 1,8,-1
 493.328 467.499 l 2,9,10
 493.328 244.524 493.328 244.524 394.851 122.263 c 128,-1,11
 296.372 -0 296.372 -0 106.7 0 c 2,0,-1
EndSplineSet
EndChar

StartChar: uniFEE0
Encoding: 65248 65248 264
Width: 650
VWidth: 2237
GlyphClass: 2
Flags: W
AnchorPoint: "Anchor-10" 316.73 1519 basechar 0
AnchorPoint: "Anchor-7" 243.73 -188.5 basechar 0
LayerCount: 2
Fore
SplineSet
325.999 85.2734 m 1,0,1
 228.992 0 228.992 0 80.7002 0 c 2,2,-1
 -96.4004 0 l 1,3,-1
 -96.4004 280.98 l 1,4,-1
 21.8496 280.98 l 2,5,6
 113.551 280.98 113.551 280.98 152.42 321.06 c 128,-1,7
 191.29 361.139 191.29 361.139 191.29 457.31 c 2,8,-1
 191.29 1302.96 l 1,9,-1
 460.17 1302.96 l 1,10,-1
 460.17 456.31 l 2,11,12
 460.17 360.707 460.17 360.707 499.004 320.844 c 128,-1,13
 537.838 280.98 537.838 280.98 629.61 280.98 c 2,14,-1
 747.86 280.98 l 1,15,-1
 747.86 0 l 1,16,-1
 570.76 0 l 2,17,18
 424.026 0 424.026 0 325.999 85.2734 c 1,0,1
EndSplineSet
EndChar

StartChar: uniFEE2
Encoding: 65250 65250 266
Width: 1180
VWidth: 2237
GlyphClass: 2
Flags: W
AnchorPoint: "Anchor-10" 524.5 1044 basechar 0
AnchorPoint: "Anchor-7" 210.188 -691.422 basechar 0
LayerCount: 2
Fore
SplineSet
732.588 489.382 m 0,0,1
 671.754 487.973 671.754 487.973 638.334 484.488 c 1,2,3
 634.085 433.444 634.085 433.444 636.938 393.346 c 0,4,5
 642.947 308.923 642.947 308.923 673.168 278.544 c 128,-1,6
 703.39 248.166 703.39 248.166 768.972 252.869 c 0,7,8
 829.685 257.224 829.685 257.224 833.022 401.493 c 0,9,10
 833.135 406.662 833.135 406.662 832.993 411.555 c 0,11,12
 831.67 457.279 831.67 457.279 811.357 474.196 c 128,-1,13
 791.044 491.112 791.044 491.112 732.588 489.382 c 0,0,1
955.126 52.6025 m 1,14,15
 948.292 47.71 948.292 47.71 941.581 43.4551 c 0,16,17
 872.497 -0.348633 872.497 -0.348633 779.974 -3.61133 c 0,18,19
 665.654 -7.16016 665.654 -7.16016 589.761 21.2803 c 0,20,21
 473.423 65.417 473.423 65.417 417.356 173.036 c 128,-1,22
 361.29 280.656 361.29 280.656 363.998 438.813 c 1,23,24
 306.22 377.063 306.22 377.063 307 193.109 c 2,25,-1
 307 -425 l 1,26,-1
 39 -425 l 1,27,-1
 39 273.734 l 1,28,-1
 39.1182 275.466 l 2,29,30
 53.417 485.395 53.417 485.395 154.086 607.682 c 128,-1,31
 254.756 729.969 254.756 729.969 435.373 749.663 c 2,32,-1
 438.534 750.002 l 1,33,-1
 809.488 750.001 l 1,34,35
 937.26 748.862 937.26 748.862 1011.15 671.677 c 128,-1,36
 1085.04 594.49 1085.04 594.49 1095.31 457.101 c 0,37,38
 1102.07 363.579 1102.07 363.579 1088.08 285.949 c 1,39,40
 1110.39 280 1110.39 280 1148 280 c 2,41,-1
 1251 280 l 1,42,-1
 1251 0 l 1,43,-1
 1134 0 l 2,44,45
 1020.32 0 1020.32 0 955.126 52.6025 c 1,14,15
EndSplineSet
EndChar

StartChar: uniFEE3
Encoding: 65251 65251 267
Width: 972
VWidth: 2237
GlyphClass: 2
Flags: W
AnchorPoint: "Anchor-10" 374.69 967.5 basechar 0
AnchorPoint: "Anchor-7" 380.69 -154.5 basechar 0
LayerCount: 2
Fore
SplineSet
756.459 142.883 m 0,0,1
 721.269 70.166 721.269 70.166 653.325 31.6953 c 128,-1,2
 585.382 -6.77637 585.382 -6.77637 493.247 -9.96973 c 0,3,4
 315.903 -15.9434 315.903 -15.9434 236.16 46.9521 c 1,5,6
 166.517 -0 166.517 -0 35.9805 0 c 2,7,-1
 -59.4004 0 l 1,8,-1
 -59.4004 280.979 l 1,9,-1
 50.96 280.979 l 2,10,11
 95.8867 280.979 95.8867 280.979 113.584 290.37 c 1,12,13
 114.975 496.125 114.975 496.125 141.949 571.172 c 0,14,15
 179.007 678.148 179.007 678.148 257.605 735.359 c 128,-1,16
 336.205 792.571 336.205 792.571 447.854 793.996 c 0,17,18
 587.956 795.783 587.956 795.783 677.52 731.416 c 128,-1,19
 767.083 667.049 767.083 667.049 790.899 542.453 c 0,20,21
 835.637 308.405 835.637 308.405 756.459 142.883 c 0,0,1
474.549 260.196 m 0,22,23
 517.325 260.667 517.325 260.667 534.539 279.419 c 128,-1,24
 551.754 298.17 551.754 298.17 553.827 352.663 c 0,25,26
 556.414 410.751 556.414 410.751 551.591 449.949 c 0,27,28
 546.021 494.446 546.021 494.446 528.111 510.899 c 128,-1,29
 510.202 527.354 510.202 527.354 468.123 527.884 c 0,30,31
 420.58 528.556 420.58 528.556 399.961 509.686 c 128,-1,32
 379.341 490.816 379.341 490.816 373.239 438.968 c 0,33,34
 367.616 393.242 367.616 393.242 371.127 355.869 c 0,35,36
 377.555 300.661 377.555 300.661 400.207 280.109 c 128,-1,37
 422.859 259.559 422.859 259.559 474.549 260.196 c 0,22,23
EndSplineSet
EndChar

StartChar: uniFEE4
Encoding: 65252 65252 268
Width: 918
VWidth: 2237
GlyphClass: 2
Flags: W
AnchorPoint: "Anchor-10" 451.79 1049.5 basechar 0
AnchorPoint: "Anchor-7" 433.79 -173.5 basechar 0
LayerCount: 2
Fore
SplineSet
472.55 260.196 m 0,0,1
 516.598 260.673 516.598 260.673 534.18 279.537 c 128,-1,2
 551.763 298.401 551.763 298.401 553.826 352.641 c 0,3,4
 556.078 404.482 556.078 404.482 551.537 448.378 c 1,5,6
 545.815 492.587 545.815 492.587 527.6 508.967 c 128,-1,7
 509.384 525.348 509.384 525.348 466.139 525.884 c 0,8,9
 418.592 526.556 418.592 526.556 397.966 507.683 c 128,-1,10
 377.341 488.811 377.341 488.811 371.245 437.021 c 0,11,12
 365.725 391.357 365.725 391.357 369.121 355.919 c 0,13,14
 375.556 300.653 375.556 300.653 398.202 280.105 c 128,-1,15
 420.849 259.559 420.849 259.559 472.55 260.196 c 0,0,1
797.177 292.883 m 1,16,17
 817.747 281.09 817.747 281.09 876.28 281.09 c 2,18,-1
 989.18 281.09 l 1,19,-1
 989.18 0.209961 l 1,20,-1
 817.43 0.209961 l 2,21,22
 742.082 0.209961 742.082 0.209961 685.379 53.6816 c 1,23,24
 616.079 -6.07324 616.079 -6.07324 491.13 -9.97363 c 0,25,26
 304.088 -16.0674 304.088 -16.0674 223.68 50.0176 c 1,27,28
 148.529 0 148.529 0 57.5996 0 c 2,29,-1
 -71.4004 0 l 1,30,-1
 -71.4004 280.979 l 1,31,-1
 64.0195 280.979 l 2,32,33
 97.124 280.979 97.124 280.979 111.459 287.818 c 1,34,35
 110.47 483.838 110.47 483.838 136.494 561.908 c 0,36,37
 170.506 664.399 170.506 664.399 237.776 724.834 c 128,-1,38
 305.046 785.27 305.046 785.27 400.447 794.749 c 0,39,40
 557.211 810.364 557.211 810.364 657.395 744.847 c 128,-1,41
 757.577 679.329 757.577 679.329 783.09 538.818 c 0,42,43
 802.652 428.508 802.652 428.508 797.256 294.839 c 2,44,-1
 797.177 292.883 l 1,16,17
EndSplineSet
EndChar

StartChar: uniFEEA
Encoding: 65258 65258 274
Width: 989
VWidth: 2237
GlyphClass: 2
Flags: W
AnchorPoint: "Anchor-10" 292.95 1164.81 basechar 0
AnchorPoint: "Anchor-7" 341.88 -174 basechar 0
LayerCount: 2
Fore
SplineSet
568.407 104.096 m 1,0,-1
 567.975 0.18457 l 1,1,-1
 382.438 -0.492188 l 2,2,3
 224.253 -1.06934 224.253 -1.06934 136.755 80.0244 c 128,-1,4
 49.2568 161.117 49.2568 161.117 50.2529 311.338 c 2,5,-1
 50.9619 418.338 l 2,6,7
 52.1768 601.606 52.1768 601.606 139.492 704.511 c 128,-1,8
 226.807 807.416 226.807 807.416 391.144 810.988 c 2,9,-1
 483.137 812.988 l 2,10,11
 489.014 813.116 489.014 813.116 494.799 813.126 c 0,12,13
 632.024 813.344 632.024 813.344 709.094 740.533 c 128,-1,14
 786.163 667.724 786.163 667.724 786.252 535.034 c 2,15,-1
 786.371 355.938 l 2,16,17
 786.401 310.822 786.401 310.822 801.196 295.914 c 128,-1,18
 815.991 281.006 815.991 281.006 860.307 281 c 2,19,-1
 1055.94 280.973 l 1,20,-1
 1057.69 0 l 1,21,-1
 794.375 0 l 2,22,23
 639.54 -0.0126953 639.54 -0.0126953 568.407 104.096 c 1,0,-1
517.085 278.968 m 1,24,25
 516.356 293.948 516.356 293.948 516.371 308.953 c 2,26,-1
 516.52 465.049 l 2,27,28
 516.562 507.681 516.562 507.681 508.562 517.84 c 128,-1,29
 500.562 528 500.562 528 478.605 528 c 2,30,-1
 421.999 528 l 2,31,32
 359.839 528.002 359.839 528.002 336.585 505.287 c 128,-1,33
 313.33 482.572 313.33 482.572 313.252 422.934 c 2,34,-1
 313.146 341.934 l 2,35,36
 313.089 298.458 313.089 298.458 323.392 286.907 c 128,-1,37
 333.695 275.355 333.695 275.355 365.248 275.978 c 2,38,-1
 517.085 278.968 l 1,24,25
EndSplineSet
EndChar

StartChar: uniFEEB
Encoding: 65259 65259 275
Width: 1210
VWidth: 2237
GlyphClass: 2
Flags: W
AnchorPoint: "Anchor-10" 577.801 1311.23 basechar 0
AnchorPoint: "Anchor-7" 437.542 -177.946 basechar 0
LayerCount: 2
Fore
SplineSet
537.656 350.798 m 0,0,1
 577.532 380.087 577.532 380.087 594.762 403.447 c 128,-1,2
 611.991 426.808 611.991 426.808 611.352 440.474 c 128,-1,3
 610.713 454.141 610.713 454.141 600.518 469.278 c 0,4,5
 576.227 505.348 576.227 505.348 549.108 516.955 c 128,-1,6
 521.989 528.562 521.989 528.562 481.885 520.645 c 0,7,8
 417.054 509.109 417.054 509.109 384.447 449.104 c 0,9,10
 360.508 407.112 360.508 407.112 368.833 373.634 c 128,-1,11
 377.159 340.155 377.159 340.155 422.982 303.41 c 1,12,13
 500.578 323.812 500.578 323.812 537.656 350.798 c 0,0,1
855.807 465.185 m 1,14,15
 859.095 398.509 859.095 398.509 832.325 327.688 c 0,16,17
 802.887 249.809 802.887 249.809 722.153 190.759 c 1,18,19
 773.45 174.695 773.45 174.695 810.246 174.278 c 128,-1,20
 847.041 173.862 847.041 173.862 868.674 185.532 c 128,-1,21
 890.307 197.202 890.307 197.202 906.141 220.726 c 0,22,23
 966.599 310.538 966.599 310.538 855.807 465.185 c 1,14,15
558.28 765.326 m 1,24,25
 534.652 782.134 534.652 782.134 512.672 795.177 c 2,26,-1
 471.59 819.555 l 1,27,-1
 583.51 1039.79 l 1,28,-1
 630.509 1011.31 l 2,29,30
 839.896 884.449 839.896 884.449 986.418 715.457 c 1,31,32
 1184.7 494.983 1184.7 494.983 1189.47 298.623 c 0,33,34
 1195.09 73.2646 1195.09 73.2646 1073.37 -16.8145 c 1,35,36
 944.461 -109.015 944.461 -109.015 733.956 -81.2031 c 0,37,38
 567.337 -59.0635 567.337 -59.0635 416.819 43.1904 c 1,39,40
 256.68 0 256.68 0 9.62988 0 c 2,41,-1
 -64.4004 0 l 1,42,-1
 -64.4004 280.979 l 1,43,-1
 93.292 280.979 l 1,44,-1
 131.111 280.681 l 1,45,46
 114.411 326.217 114.411 326.217 112.232 373.581 c 0,47,48
 105.262 549.82 105.262 549.82 215.108 664.647 c 0,49,50
 316.704 771.416 316.704 771.416 459.81 773.626 c 0,51,52
 511.097 774.418 511.097 774.418 558.28 765.326 c 1,24,25
EndSplineSet
EndChar

StartChar: uniFEEC
Encoding: 65260 65260 276
Width: 824
VWidth: 2237
GlyphClass: 2
Flags: WO
AnchorPoint: "Anchor-7" 65.88 -505 basechar 0
AnchorPoint: "Anchor-10" 557.76 1130.74 basechar 0
LayerCount: 2
Fore
SplineSet
339.643 1.43164 m 1,0,1
 340.328 -44.7637 340.328 -44.7637 356.728 -105.325 c 0,2,3
 389.487 -227.946 389.487 -227.946 435.986 -227.946 c 0,4,5
 494.853 -227.946 494.853 -227.946 494.853 -147.07 c 0,6,7
 494.853 -92.8446 494.853 -92.8446 451.323 -41.7246 c 0,8,9
 415.412 0.453273 415.412 0.453273 350.685 1.28906 c 2,10,-1
 339.643 1.43164 l 1,0,1
711.957 0.228516 m 1,11,12
 758.856 -78.5889 758.856 -78.5889 755.606 -165.812 c 0,13,14
 750.083 -305.134 750.083 -305.134 673.19 -391.834 c 0,15,16
 591.347 -483.971 591.347 -483.971 451.425 -484.962 c 0,17,18
 347.05 -485.707 347.05 -485.707 268.267 -431.814 c 128,-1,19
 189.484 -377.921 189.484 -377.921 143.444 -276.312 c 0,20,21
 93.29 -164.414 93.29 -164.414 92.3447 0 c 1,22,-1
 -71.9355 0 l 1,23,-1
 -71.9355 280.961 l 1,24,-1
 89.4365 281.019 l 1,25,26
 89.126 441.868 89.126 441.868 140.882 557.348 c 0,27,28
 186.924 658.959 186.924 658.959 265.705 712.852 c 128,-1,29
 344.487 766.744 344.487 766.744 448.862 765.999 c 0,30,31
 588.781 765.008 588.781 765.008 670.617 672.884 c 0,32,33
 762.642 569.117 762.642 569.117 752.947 441.188 c 0,34,35
 746.773 352.904 746.773 352.904 709.914 281.495 c 1,36,37
 736.524 281.483 736.524 281.483 744.747 281.74 c 2,38,-1
 745.678 281.872 l 1,39,-1
 746.608 282.003 l 1,40,-1
 889.64 281.036 l 1,41,-1
 889.64 0.607422 l 1,42,-1
 711.957 0.228516 l 1,11,12
339.643 281.568 m 1,43,-1
 350.684 281.711 l 2,44,45
 438.764 282.852 438.764 282.852 465.985 326.001 c 0,46,47
 496.852 372.93 496.852 372.93 494.688 418.296 c 0,48,49
 493.214 510.946 493.214 510.946 435.986 510.946 c 0,50,51
 389.484 510.946 389.484 510.946 356.729 388.327 c 0,52,53
 340.33 327.771 340.33 327.771 339.643 281.568 c 1,43,-1
EndSplineSet
EndChar

StartChar: uniFEEE
Encoding: 65262 65262 278
Width: 867
VWidth: 2237
GlyphClass: 2
Flags: W
AnchorPoint: "Anchor-10" 330 1115 basechar 0
AnchorPoint: "Anchor-7" 481.515 -436.238 basechar 0
LayerCount: 2
Fore
SplineSet
408.474 494.703 m 0,0,1
 369.007 496.369 369.007 496.369 347.187 486.378 c 128,-1,2
 325.367 476.386 325.367 476.386 312.506 454.67 c 0,3,4
 302.021 436.967 302.021 436.967 297.201 369.263 c 0,5,6
 295.479 343.521 295.479 343.521 298.425 325.405 c 128,-1,7
 301.37 307.289 301.37 307.289 304.338 302.16 c 128,-1,8
 307.307 297.031 307.307 297.031 309.7 295.458 c 0,9,10
 353.406 266.359 353.406 266.359 477.41 277.65 c 1,11,12
 479.845 354.541 479.845 354.541 473.918 406.498 c 128,-1,13
 467.992 458.455 467.992 458.455 459.234 473.937 c 0,14,15
 448.441 493.017 448.441 493.017 408.474 494.703 c 0,0,1
744.326 279.916 m 1,16,-1
 939.66 281.9 l 1,17,-1
 939.66 0.5 l 1,18,-1
 742.721 0.5 l 1,19,20
 733.144 -214.222 733.144 -214.222 623.182 -329.659 c 128,-1,21
 513.22 -445.097 513.22 -445.097 313.953 -445.042 c 2,22,-1
 89.0752 -444.979 l 1,23,-1
 88.9219 -164.951 l 1,24,-1
 277.992 -165.042 l 2,25,26
 381.695 -165.093 381.695 -165.093 423.664 -129.005 c 128,-1,27
 465.634 -92.917 465.634 -92.917 465.634 -11.0088 c 2,28,-1
 465.634 -1.5791 l 1,29,30
 437.914 -2.10645 437.914 -2.10645 398.108 -2.20703 c 0,31,32
 203.046 -3.28125 203.046 -3.28125 114.322 91.8799 c 0,33,34
 32.9932 179.109 32.9932 179.109 41.4209 395.998 c 0,35,36
 46.7871 522.867 46.7871 522.867 102.596 610.526 c 0,37,38
 151.941 688.085 151.941 688.085 229.779 726.854 c 128,-1,39
 307.617 765.624 307.617 765.624 406.626 763.617 c 0,40,41
 537.811 760.942 537.811 760.942 621.148 687.609 c 128,-1,42
 704.486 614.276 704.486 614.276 729.448 481.173 c 0,43,44
 745.716 394.43 745.716 394.43 744.794 306.65 c 2,45,-1
 744.326 279.916 l 1,16,-1
EndSplineSet
EndChar

StartChar: uniFEF0
Encoding: 65264 65264 280
Width: 1376
VWidth: 2237
GlyphClass: 2
Flags: W
AnchorPoint: "Anchor-10" 231.73 658.315 basechar 0
AnchorPoint: "Anchor-7" 162.94 -587.88 basechar 0
LayerCount: 2
Fore
SplineSet
1254.98 0.671875 m 1,0,-1
 1254.98 -13.25 l 2,1,2
 1254.98 -221.769 1254.98 -221.769 1115.65 -331.75 c 128,-1,3
 976.312 -441.732 976.312 -441.732 719.546 -447.736 c 2,4,-1
 697.577 -448.25 l 1,5,-1
 659.68 -448.25 l 2,6,7
 361.602 -448.25 361.602 -448.25 200.827 -328.286 c 128,-1,8
 40.0518 -208.322 40.0518 -208.322 40.0518 27.248 c 2,9,-1
 40.0518 259.75 l 2,10,11
 40.0518 333.898 40.0518 333.898 77.8672 382.073 c 128,-1,12
 115.684 430.248 115.684 430.248 184.98 430.248 c 2,13,-1
 312.052 430.248 l 1,14,-1
 312.052 28.248 l 2,15,16
 312.052 -18.8701 312.052 -18.8701 330.116 -53.8447 c 128,-1,17
 348.181 -88.8184 348.181 -88.8184 388.292 -114.845 c 128,-1,18
 428.403 -140.872 428.403 -140.872 496.725 -154.07 c 128,-1,19
 565.045 -167.27 565.045 -167.27 661.53 -167.27 c 2,20,-1
 696.534 -167.27 l 1,21,-1
 724.608 -166.777 l 2,22,23
 798.344 -165.484 798.344 -165.484 849.745 -154.605 c 128,-1,24
 901.146 -143.728 901.146 -143.728 930.357 -123.488 c 128,-1,25
 959.568 -103.25 959.568 -103.25 972.274 -77.2705 c 128,-1,26
 984.98 -51.29 984.98 -51.29 984.98 -16.25 c 2,27,-1
 984.98 0.735352 l 1,28,-1
 826.606 0.688477 l 1,29,-1
 823.56 1.05566 l 2,30,31
 777.247 6.63574 777.247 6.63574 747.879 41.2842 c 128,-1,32
 718.512 75.9326 718.512 75.9326 705.322 127.307 c 0,33,34
 698.144 155.272 698.144 155.272 695.563 173.722 c 128,-1,35
 692.984 192.171 692.984 192.171 698.658 217.66 c 128,-1,36
 704.333 243.149 704.333 243.149 722.952 260.625 c 0,37,38
 738.317 275.047 738.317 275.047 759.62 279.771 c 2,39,-1
 765.057 280.976 l 1,40,-1
 1417.89 281.414 l 1,41,-1
 1417.89 0.421875 l 1,42,-1
 1254.98 0.671875 l 1,0,-1
EndSplineSet
EndChar

StartChar: uniFEFB
Encoding: 65275 65275 291
Width: 1058
VWidth: 2237
GlyphClass: 3
Flags: W
AnchorPoint: "Anchor-9" 903.69 1548 baselig 0
AnchorPoint: "Anchor-6" 832.69 -112.5 baselig 0
AnchorPoint: "Anchor-6" 195 -166 baselig 1
AnchorPoint: "Anchor-9" 202.5 1541.5 baselig 1
LayerCount: 2
Fore
SplineSet
111.06 319.704 m 1,0,-1
 111.06 1302.96 l 1,1,-1
 379.94 1302.96 l 1,2,-1
 379.94 319.704 l 1,3,-1
 111.06 319.704 l 1,0,-1
111.06 280.98 m 1,4,-1
 40.3994 280.98 l 1,5,-1
 40.3994 0 l 1,6,-1
 572.7 0 l 2,7,8
 762.372 0 762.372 0 860.851 122.263 c 128,-1,9
 959.328 244.524 959.328 244.524 959.328 467.499 c 2,10,-1
 959.328 1302.5 l 1,11,-1
 687.328 1302.5 l 1,12,-1
 687.328 444.499 l 2,13,14
 687.328 350.951 687.328 350.951 661.265 315.966 c 128,-1,15
 635.201 280.979 635.201 280.979 578.85 280.98 c 2,16,-1
 111.06 280.98 l 1,4,-1
EndSplineSet
LCarets2: 1 0 
Ligature2: "'rlig' Required Ligatures in Arabic lookup 16 subtable" uniFEDF uniFE8E
EndChar

StartChar: arabic_dot
Encoding: 65536 -1 292
Width: 150
GlyphClass: 2
Flags: W
LayerCount: 2
Fore
SplineSet
111.847 181.067 m 6,0,-1
 126.426 168.052 l 6,1,2
 137.028 158.589 137.028 158.589 145.316 148.997 c 4,3,4
 179.68 108.758 179.68 108.758 174.414 67.1853 c 4,5,6
 169.221 26.189 169.221 26.189 126.596 -10.5374 c 6,7,-1
 98.5961 -34.6621 l 6,8,9
 69.3761 -59.8394 69.3761 -59.8394 43.0042 -33.1797 c 6,10,-1
 -1.98702 12.3008 l 5,11,-1
 -41.4984 44.0073 l 6,12,13
 -55.9649 56.4276 -55.9649 56.4276 -55.6645 72.717 c 4,14,15
 -55.3792 88.186 -55.3792 88.186 -42.8484 101.378 c 6,16,-1
 0.161098 146.656 l 5,17,-1
 39.2023 183.162 l 6,18,19
 73.5356 215.266 73.5356 215.266 111.847 181.067 c 6,0,-1
EndSplineSet
EndChar

StartChar: arabic_2dots
Encoding: 65537 -1 293
Width: 400
GlyphClass: 2
Flags: W
LayerCount: 2
Fore
SplineSet
378.934 177.382 m 6,0,-1
 393.513 164.367 l 6,1,2
 404.114 154.903 404.114 154.903 412.402 145.312 c 4,3,4
 446.767 105.073 446.767 105.073 441.5 63.5 c 4,5,6
 436.307 22.5039 436.307 22.5039 393.683 -14.2227 c 6,7,-1
 365.683 -38.3477 l 6,8,9
 336.463 -63.5244 336.463 -63.5244 310.091 -36.8652 c 6,10,-1
 265.1 8.61523 l 5,11,-1
 225.588 40.3223 l 6,12,13
 211.121 52.7422 211.121 52.7422 211.422 69.0322 c 4,14,15
 211.707 84.501 211.707 84.501 224.238 97.6924 c 6,16,-1
 267.247 142.971 l 5,17,-1
 306.289 179.477 l 6,18,19
 340.622 211.581 340.622 211.581 378.934 177.382 c 6,0,-1
111.847 181.067 m 6,20,-1
 126.426 168.052 l 6,21,22
 137.028 158.589 137.028 158.589 145.316 148.997 c 4,23,24
 179.68 108.758 179.68 108.758 174.414 67.1853 c 4,25,26
 169.221 26.189 169.221 26.189 126.596 -10.5374 c 6,27,-1
 98.5961 -34.6621 l 6,28,29
 69.3761 -59.8394 69.3761 -59.8394 43.0042 -33.1797 c 6,30,-1
 -1.98702 12.3008 l 5,31,-1
 -41.4984 44.0073 l 6,32,33
 -55.9649 56.4276 -55.9649 56.4276 -55.6645 72.717 c 4,34,35
 -55.3792 88.186 -55.3792 88.186 -42.8484 101.378 c 6,36,-1
 0.161098 146.656 l 5,37,-1
 39.2023 183.162 l 6,38,39
 73.5356 215.266 73.5356 215.266 111.847 181.067 c 6,20,-1
EndSplineSet
EndChar

StartChar: arabic_3dots
Encoding: 65538 -1 294
Width: 400
GlyphClass: 2
Flags: W
LayerCount: 2
Fore
SplineSet
245 417.492 m 2,0,-1
 259.579 404.478 l 2,1,2
 270.18 395.014 270.18 395.014 278.468 385.422 c 0,3,4
 312.833 345.184 312.833 345.184 307.566 303.61 c 0,5,6
 302.373 262.614 302.373 262.614 259.749 225.888 c 2,7,-1
 231.749 201.763 l 2,8,9
 202.529 176.586 202.529 176.586 176.157 203.245 c 2,10,-1
 131.166 248.726 l 1,11,-1
 91.6543 280.433 l 2,12,13
 77.1875 292.853 77.1875 292.853 77.4883 309.143 c 0,14,15
 77.7734 324.611 77.7734 324.611 90.3037 337.803 c 2,16,-1
 133.313 383.081 l 1,17,-1
 172.355 419.587 l 2,18,19
 206.688 451.691 206.688 451.691 245 417.492 c 2,0,-1
378.934 177.382 m 6,20,-1
 393.513 164.367 l 6,21,22
 404.114 154.903 404.114 154.903 412.402 145.312 c 4,23,24
 446.767 105.073 446.767 105.073 441.5 63.5 c 4,25,26
 436.307 22.5039 436.307 22.5039 393.683 -14.2227 c 6,27,-1
 365.683 -38.3477 l 6,28,29
 336.463 -63.5244 336.463 -63.5244 310.091 -36.8652 c 6,30,-1
 265.1 8.61523 l 5,31,-1
 225.588 40.3223 l 6,32,33
 211.121 52.7422 211.121 52.7422 211.422 69.0322 c 4,34,35
 211.707 84.501 211.707 84.501 224.238 97.6924 c 6,36,-1
 267.247 142.971 l 5,37,-1
 306.289 179.477 l 6,38,39
 340.622 211.581 340.622 211.581 378.934 177.382 c 6,20,-1
111.847 181.067 m 6,40,-1
 126.426 168.052 l 6,41,42
 137.028 158.589 137.028 158.589 145.316 148.997 c 4,43,44
 179.68 108.758 179.68 108.758 174.414 67.1853 c 4,45,46
 169.221 26.189 169.221 26.189 126.596 -10.5374 c 6,47,-1
 98.5961 -34.6621 l 6,48,49
 69.3761 -59.8394 69.3761 -59.8394 43.0042 -33.1797 c 6,50,-1
 -1.98702 12.3008 l 5,51,-1
 -41.4984 44.0073 l 6,52,53
 -55.9649 56.4276 -55.9649 56.4276 -55.6645 72.717 c 4,54,55
 -55.3792 88.186 -55.3792 88.186 -42.8484 101.378 c 6,56,-1
 0.161098 146.656 l 5,57,-1
 39.2023 183.162 l 6,58,59
 73.5356 215.266 73.5356 215.266 111.847 181.067 c 6,40,-1
EndSplineSet
EndChar

StartChar: arabic_3dots_a
Encoding: 65539 -1 295
Width: 400
GlyphClass: 2
Flags: W
LayerCount: 2
Fore
SplineSet
243.516 -40.9014 m 2,0,-1
 258.095 -53.917 l 2,1,2
 268.697 -63.3799 268.697 -63.3799 276.984 -72.9717 c 0,3,4
 311.349 -113.211 311.349 -113.211 306.083 -154.783 c 0,5,6
 300.89 -195.779 300.89 -195.779 258.265 -232.506 c 2,7,-1
 230.265 -256.631 l 2,8,9
 201.045 -281.809 201.045 -281.809 174.673 -255.148 c 2,10,-1
 129.682 -209.668 l 1,11,-1
 90.1709 -177.962 l 2,12,13
 75.7041 -165.541 75.7041 -165.541 76.0039 -149.252 c 0,14,15
 76.29 -133.783 76.29 -133.783 88.8203 -120.591 c 2,16,-1
 131.83 -75.3125 l 1,17,-1
 170.871 -38.8066 l 2,18,19
 205.204 -6.70312 205.204 -6.70312 243.516 -40.9014 c 2,0,-1
378.934 195.382 m 2,20,-1
 393.513 182.367 l 2,21,22
 404.114 172.903 404.114 172.903 412.402 163.312 c 0,23,24
 446.767 123.073 446.767 123.073 441.5 81.5 c 0,25,26
 436.307 40.5039 436.307 40.5039 393.683 3.77734 c 2,27,-1
 365.683 -20.3477 l 2,28,29
 336.463 -45.5244 336.463 -45.5244 310.091 -18.8652 c 2,30,-1
 265.1 26.6152 l 1,31,-1
 225.588 58.3223 l 2,32,33
 211.121 70.7422 211.121 70.7422 211.422 87.0322 c 0,34,35
 211.707 102.501 211.707 102.501 224.238 115.692 c 2,36,-1
 267.247 160.971 l 1,37,-1
 306.289 197.477 l 2,38,39
 340.622 229.581 340.622 229.581 378.934 195.382 c 2,20,-1
111.847 199.067 m 2,40,-1
 126.426 186.052 l 2,41,42
 137.028 176.589 137.028 176.589 145.316 166.997 c 0,43,44
 179.68 126.758 179.68 126.758 174.414 85.1855 c 0,45,46
 169.221 44.1895 169.221 44.1895 126.596 7.46289 c 2,47,-1
 98.5957 -16.6621 l 2,48,49
 69.376 -41.8398 69.376 -41.8398 43.0039 -15.1797 c 2,50,-1
 -1.9873 30.3008 l 1,51,-1
 -41.498 62.0068 l 2,52,53
 -55.9648 74.4277 -55.9648 74.4277 -55.6641 90.7168 c 0,54,55
 -55.3789 106.186 -55.3789 106.186 -42.8486 119.378 c 2,56,-1
 0.161133 164.656 l 1,57,-1
 39.2021 201.162 l 2,58,59
 73.5352 233.266 73.5352 233.266 111.847 199.067 c 2,40,-1
EndSplineSet
EndChar

StartChar: uni066E.fina
Encoding: 65540 -1 296
Width: 1838
VWidth: 2237
GlyphClass: 2
Flags: W
AnchorPoint: "Anchor-10" 595 1116.5 basechar 0
AnchorPoint: "Anchor-7" 595 -123 basechar 0
LayerCount: 2
Fore
SplineSet
986.624 0 m 2,0,-1
 415.644 0 l 2,1,2
 231.767 -0.115234 231.767 -0.115234 135.882 117.05 c 128,-1,3
 39.998 234.215 39.998 234.215 39.9971 447.499 c 2,4,-1
 39.9961 730.499 l 1,5,-1
 311.996 730.499 l 1,6,-1
 311.996 445.499 l 2,7,8
 311.996 351.388 311.996 351.388 338.098 316.184 c 128,-1,9
 364.199 280.98 364.199 280.98 420.475 280.98 c 2,10,-1
 986.321 280.98 l 1,11,-1
 1216.4 283.716 l 2,12,13
 1307.45 284.795 1307.45 284.795 1343.54 316.85 c 128,-1,14
 1379.63 348.903 1379.63 348.903 1379.58 422.213 c 2,15,-1
 1379.41 649.795 l 1,16,-1
 1654.79 649.795 l 1,17,-1
 1655 420.296 l 2,18,19
 1655.07 341.66 1655.07 341.66 1682.23 311.52 c 128,-1,20
 1709.4 281.38 1709.4 281.38 1774.97 281.38 c 2,21,-1
 1911.17 281.38 l 1,22,-1
 1911.17 0.5 l 1,23,-1
 1766.03 0.5 l 2,24,25
 1584.82 0.5 1584.82 0.5 1498.5 108.205 c 1,26,27
 1448 61.0186 1448 61.0186 1376.93 34.123 c 0,28,29
 1286.75 0 1286.75 0 986.624 0 c 2,0,-1
EndSplineSet
EndChar

StartChar: uni06A1.fina
Encoding: 65543 -1 299
Width: 1885
VWidth: 2237
GlyphClass: 2
Flags: W
AnchorPoint: "Anchor-10" 418 1223.5 basechar 0
AnchorPoint: "Anchor-7" 525 -167.5 basechar 0
LayerCount: 2
Fore
SplineSet
837.725 280.98 m 2,0,1
 991.04 280.376 991.04 280.376 1088.33 280.544 c 1,2,3
 1057.93 320.488 1057.93 320.488 1037.75 367.266 c 0,4,5
 988.913 480.024 988.913 480.024 1026.16 607.648 c 1,6,7
 1072.47 778.157 1072.47 778.157 1235.21 844.636 c 0,8,9
 1307.52 874.171 1307.52 874.171 1397.92 874.171 c 0,10,11
 1516.36 874.171 1516.36 874.171 1585.45 835.222 c 0,12,13
 1744.17 745.158 1744.17 745.158 1770.73 603.148 c 0,14,15
 1791.25 492.354 1791.25 492.354 1757.03 377.384 c 0,16,17
 1741.7 325.869 1741.7 325.869 1705.93 281.925 c 1,18,19
 1822.21 282.266 1822.21 282.266 1906.74 281.879 c 2,20,-1
 1957.51 281.647 l 1,21,-1
 1957.51 0.12207 l 1,22,-1
 1697.44 -0.5 l 2,23,24
 1527.51 -0.90625 1527.51 -0.90625 1393.21 80.7363 c 1,25,26
 1253.65 -0.820312 1253.65 -0.820312 1091.28 -0.5 c 2,27,-1
 837.574 0 l 1,28,-1
 416.654 0 l 2,29,30
 232.857 -0.1875 232.857 -0.1875 136.428 114.017 c 128,-1,31
 39.998 228.221 39.998 228.221 39.9971 436.499 c 2,32,-1
 39.9961 730.499 l 1,33,-1
 311.996 730.499 l 1,34,-1
 311.996 445.499 l 2,35,36
 311.996 351.388 311.996 351.388 338.098 316.184 c 128,-1,37
 364.199 280.98 364.199 280.98 420.475 280.98 c 2,38,-1
 837.725 280.98 l 2,0,1
1278.34 504.626 m 128,-1,40
 1278.34 458.533 1278.34 458.533 1311.97 425.661 c 0,41,42
 1346.31 392.103 1346.31 392.103 1395.14 392.103 c 128,-1,43
 1443.98 392.103 1443.98 392.103 1478.31 425.658 c 0,44,45
 1511.94 458.533 1511.94 458.533 1511.94 504.626 c 128,-1,46
 1511.94 550.715 1511.94 550.715 1478.31 583.591 c 0,47,48
 1443.98 617.146 1443.98 617.146 1395.14 617.146 c 128,-1,49
 1346.31 617.146 1346.31 617.146 1311.97 583.589 c 0,50,39
 1278.34 550.715 1278.34 550.715 1278.34 504.626 c 128,-1,40
EndSplineSet
EndChar

StartChar: uni06A1.init
Encoding: 65544 -1 300
Width: 828
VWidth: 2237
GlyphClass: 2
Flags: W
AnchorPoint: "Anchor-10" 480.531 1192.5 basechar 0
AnchorPoint: "Anchor-7" 380.53 -114 basechar 0
LayerCount: 2
Fore
SplineSet
441.268 327.603 m 1,0,1
 395.964 325.071 395.964 325.071 350.627 325.135 c 0,2,3
 196.228 325.352 196.228 325.352 108.972 418.138 c 0,4,5
 27.5654 505.45 27.5654 505.45 35.9932 722.34 c 0,6,7
 41.3594 849.209 41.3594 849.209 97.167 936.868 c 0,8,9
 146.53 1014.45 146.53 1014.45 224.259 1053.1 c 128,-1,10
 301.988 1091.74 301.988 1091.74 401.149 1089.96 c 0,11,12
 533.242 1086.98 533.242 1086.98 616.15 1013.8 c 128,-1,13
 699.059 940.621 699.059 940.621 724.021 807.516 c 0,14,15
 739.836 723.189 739.836 723.189 739.37 633.496 c 0,16,17
 738.99 499.155 738.99 499.155 738.99 378.384 c 2,18,-1
 738.99 376.342 l 2,19,20
 738.99 189.182 738.99 189.182 607.992 94.252 c 128,-1,21
 476.994 -0.677483 476.994 -0.677483 239.179 0 c 2,22,-1
 -74.4834 0.893555 l 1,23,-1
 -75.1055 281.836 l 1,24,-1
 202.324 282 l 2,25,26
 337.102 282.08 337.102 282.08 376.953 290.941 c 0,27,28
 431.139 303.991 431.139 303.991 441.268 327.603 c 1,0,1
403.046 821.045 m 0,29,30
 363.579 822.711 363.579 822.711 341.759 812.719 c 128,-1,31
 319.938 802.728 319.938 802.728 307.078 781.012 c 0,32,33
 296.595 763.311 296.595 763.311 291.767 695.494 c 0,34,35
 287.075 629.599 287.075 629.599 306.741 614.061 c 0,36,37
 321.161 603.655 321.161 603.655 359.684 599.674 c 128,-1,38
 398.206 595.692 398.206 595.692 471.941 602.738 c 1,39,40
 474.448 680.037 474.448 680.037 468.52 732.393 c 128,-1,41
 462.592 784.748 462.592 784.748 453.806 800.278 c 0,42,43
 443.014 819.358 443.014 819.358 403.046 821.045 c 0,29,30
EndSplineSet
EndChar

StartChar: uni06A1.medi
Encoding: 65545 -1 301
Width: 919
VWidth: 2237
GlyphClass: 2
Flags: W
AnchorPoint: "Anchor-10" 452.26 1063 basechar 0
AnchorPoint: "Anchor-7" 452.26 -114 basechar 0
LayerCount: 2
Fore
SplineSet
336.752 505.126 m 128,-1,1
 336.752 459.034 336.752 459.034 370.383 426.158 c 0,2,3
 404.709 392.603 404.709 392.603 453.553 392.603 c 128,-1,4
 502.396 392.603 502.396 392.603 536.721 426.158 c 0,5,6
 570.352 459.033 570.352 459.033 570.352 505.126 c 128,-1,7
 570.352 551.214 570.352 551.214 536.721 584.09 c 0,8,9
 502.395 617.646 502.395 617.646 453.553 617.646 c 128,-1,10
 404.711 617.646 404.711 617.646 370.382 584.089 c 0,11,0
 336.752 551.218 336.752 551.218 336.752 505.126 c 128,-1,1
643.866 835.72 m 0,12,13
 802.574 745.662 802.574 745.662 829.136 603.643 c 0,14,15
 850.143 490.266 850.143 490.266 815.314 377.478 c 0,16,17
 799.409 325.329 799.409 325.329 762.64 280.412 c 1,18,-1
 891.68 280.979 l 1,19,-1
 985.92 281.857 l 1,20,-1
 985.92 0.642578 l 1,21,-1
 755.872 0 l 2,22,23
 586.016 -0.473633 586.016 -0.473633 451.567 81.2676 c 1,24,25
 311.997 0 311.997 0 149.79 0 c 2,26,-1
 -66.4004 0 l 1,27,-1
 -66.4004 280.98 l 1,28,-1
 146.589 280.977 l 1,29,30
 116.593 320.605 116.593 320.605 96.1709 367.749 c 0,31,32
 47.3164 480.53 47.3164 480.53 84.5625 608.147 c 1,33,34
 130.868 778.652 130.868 778.652 293.614 845.135 c 0,35,36
 365.917 874.671 365.917 874.671 456.326 874.671 c 0,37,38
 574.761 874.671 574.761 874.671 643.866 835.72 c 0,12,13
EndSplineSet
EndChar

StartChar: uni066F.fina
Encoding: 65546 -1 302
Width: 1325
VWidth: 2237
GlyphClass: 2
Flags: W
AnchorPoint: "Anchor-10" 353 956 basechar 0
AnchorPoint: "Anchor-7" 452.645 -534.82 basechar 0
LayerCount: 2
Fore
SplineSet
956.988 498.129 m 0,0,1
 917.562 499.793 917.562 499.793 895.905 489.814 c 128,-1,2
 874.25 479.835 874.25 479.835 861.365 458.08 c 0,3,4
 850.881 440.378 850.881 440.378 846.062 372.669 c 0,5,6
 844.34 346.932 844.34 346.932 847.286 328.816 c 128,-1,7
 850.232 310.702 850.232 310.702 853.2 305.572 c 128,-1,8
 856.169 300.441 856.169 300.441 858.562 298.869 c 0,9,10
 902.269 269.771 902.269 269.771 1026.27 281.062 c 1,11,12
 1028.7 357.966 1028.7 357.966 1022.78 409.914 c 128,-1,13
 1016.85 461.863 1016.85 461.863 1008.09 477.354 c 0,14,15
 997.3 496.429 997.3 496.429 956.988 498.129 c 0,0,1
1286.96 -0.419922 m 1,16,17
 1287 -6.76074 1287 -6.76074 1286.95 -12.9375 c 0,18,19
 1285.14 -256.704 1285.14 -256.704 1143.02 -383.163 c 128,-1,20
 1000.89 -509.623 1000.89 -509.623 736.837 -507.366 c 2,21,-1
 678.687 -506.869 l 1,22,-1
 619.601 -506.869 l 2,23,24
 339.498 -506.869 339.498 -506.869 189.735 -376.723 c 128,-1,25
 39.9727 -246.576 39.9727 -246.576 39.9727 3.62988 c 2,26,-1
 39.9727 236.131 l 2,27,28
 39.9727 310.279 39.9727 310.279 77.7881 358.455 c 128,-1,29
 115.604 406.63 115.604 406.63 184.901 406.63 c 2,30,-1
 311.973 406.63 l 1,31,-1
 311.973 4.62988 l 2,32,33
 311.973 -113.682 311.973 -113.682 383.75 -169.785 c 128,-1,34
 455.527 -225.889 455.527 -225.889 621.451 -225.889 c 2,35,-1
 678.707 -225.889 l 1,36,-1
 744.034 -225.39 l 2,37,38
 885.926 -224.307 885.926 -224.307 948.961 -169.739 c 128,-1,39
 1012 -115.173 1012 -115.173 1014.79 1.67969 c 1,40,41
 987.15 1.30664 987.15 1.30664 946.971 1.20508 c 0,42,43
 751.909 0.129883 751.909 0.129883 663.182 95.291 c 0,44,45
 581.855 182.517 581.855 182.517 590.282 399.415 c 0,46,47
 595.645 526.272 595.645 526.272 651.456 613.938 c 0,48,49
 700.803 691.495 700.803 691.495 778.642 730.266 c 128,-1,50
 856.48 769.036 856.48 769.036 955.479 767.029 c 0,51,52
 1083.63 764.433 1083.63 764.433 1164.84 686.504 c 128,-1,53
 1246.05 608.576 1246.05 608.576 1272.31 468.588 c 0,54,55
 1288.12 384.266 1288.12 384.266 1287.66 294.625 c 0,56,57
 1287.65 293.463 1287.65 293.463 1287.65 291.434 c 2,58,-1
 1287.61 281.69 l 1,59,-1
 1467.26 281.955 l 1,60,-1
 1467.26 0.165039 l 1,61,-1
 1286.96 -0.419922 l 1,16,17
EndSplineSet
EndChar

StartChar: arabic_ring
Encoding: 65549 -1 305
Width: 438
GlyphClass: 2
Flags: W
LayerCount: 2
Fore
SplineSet
316 220 m 0,0,1
 316 260 316 260 288 288 c 0,2,3
 260 317 260 317 219 317 c 128,-1,4
 178 317 178 317 150 289 c 128,-1,5
 122 261 122 261 122 220 c 0,6,7
 122 178 122 178 150 150 c 0,8,9
 178 123 178 123 219 123 c 128,-1,10
 260 123 260 123 288 151 c 128,-1,11
 316 179 316 179 316 220 c 0,0,1
438 220 m 128,-1,13
 438 128 438 128 375 64 c 0,14,15
 311 0 311 0 219 0 c 128,-1,16
 127 0 127 0 64 64 c 0,17,18
 0 128 0 128 0 220 c 128,-1,19
 0 312 0 312 64 376 c 0,20,21
 127 439 127 439 219 439 c 128,-1,22
 311 439 311 439 375 376 c 1,23,12
 438 312 438 312 438 220 c 128,-1,13
EndSplineSet
EndChar

StartChar: arabic_gaf_bar
Encoding: 65550 -1 306
Width: 614
GlyphClass: 2
Flags: W
LayerCount: 2
Fore
SplineSet
602 1626.65 m 1,0,-1
 0 1333 l 1,1,-1
 0 1442 l 1,2,-1
 602 1735.65 l 1,3,-1
 602 1626.65 l 1,0,-1
EndSplineSet
EndChar

StartChar: uni066E.init.math
Encoding: 65560 -1 316
Width: 877
VWidth: 2237
GlyphClass: 2
Flags: W
LayerCount: 2
Fore
SplineSet
616.591 114.155 m 0,0,1
 528.129 8.5 528.129 8.5 342.4 8.5 c 2,2,-1
 -59.4004 8.5 l 1,3,-1
 -59.4004 281.38 l 1,4,-1
 283.55 281.38 l 2,5,6
 373.74 281.38 373.74 281.38 409.689 317.331 c 0,7,8
 450.99 358.629 450.99 358.629 450.99 456.31 c 2,9,-1
 450.99 726.5 l 1,10,-1
 723.87 726.5 l 1,11,-1
 723.87 456.31 l 2,12,13
 723.87 242.428 723.87 242.428 616.591 114.155 c 0,0,1
EndSplineSet
EndChar

StartChar: guillemotleft
Encoding: 171 171 317
Width: 1243
Flags: W
LayerCount: 2
Fore
SplineSet
611.94 999.22 m 1,0,-1
 611.94 771.74 l 1,1,-1
 336.52 564 l 1,2,-1
 611.94 356.26 l 1,3,-1
 611.94 128.78 l 1,4,-1
 148.52 475.64 l 1,5,-1
 148.52 650.48 l 1,6,-1
 611.94 999.22 l 1,0,-1
1062.2 999.22 m 1,7,-1
 1062.2 771.74 l 1,8,-1
 787.72 564 l 1,9,-1
 1062.2 356.26 l 1,10,-1
 1062.2 128.78 l 1,11,-1
 598.78 475.64 l 1,12,-1
 598.78 650.48 l 1,13,-1
 1062.2 999.22 l 1,7,-1
EndSplineSet
EndChar

StartChar: guillemotright
Encoding: 187 187 318
Width: 1243
Flags: W
LayerCount: 2
Fore
SplineSet
631.68 999.22 m 1,0,-1
 1095.1 650.48 l 1,1,-1
 1095.1 475.64 l 1,2,-1
 631.68 128.78 l 1,3,-1
 631.68 356.26 l 1,4,-1
 907.1 564 l 1,5,-1
 631.68 771.74 l 1,6,-1
 631.68 999.22 l 1,0,-1
181.42 999.22 m 1,7,-1
 642.96 650.48 l 1,8,-1
 642.96 475.64 l 1,9,-1
 181.42 128.78 l 1,10,-1
 181.42 356.26 l 1,11,-1
 455.9 564 l 1,12,-1
 181.42 771.74 l 1,13,-1
 181.42 999.22 l 1,7,-1
EndSplineSet
EndChar

StartChar: zero
Encoding: 48 48 319
Width: 1339
Flags: W
LayerCount: 2
Fore
SplineSet
885.48 703.12 m 0,0,1
 885.48 966.32 885.48 966.32 836.13 1073.95 c 128,-1,2
 786.78 1181.58 786.78 1181.58 670.22 1181.58 c 128,-1,3
 553.66 1181.58 553.66 1181.58 503.84 1073.95 c 128,-1,4
 454.02 966.32 454.02 966.32 454.02 703.12 c 0,5,6
 454.02 437.1 454.02 437.1 503.84 328.06 c 128,-1,7
 553.66 219.02 553.66 219.02 670.22 219.02 c 0,8,9
 785.84 219.02 785.84 219.02 835.66 328.06 c 128,-1,10
 885.48 437.1 885.48 437.1 885.48 703.12 c 0,0,1
1247.38 700.3 m 0,11,12
 1247.38 351.56 1247.38 351.56 1096.98 162.15 c 128,-1,13
 946.58 -27.26 946.58 -27.26 670.22 -27.26 c 0,14,15
 392.92 -27.26 392.92 -27.26 242.52 162.15 c 128,-1,16
 92.12 351.56 92.12 351.56 92.12 700.3 c 0,17,18
 92.12 1049.98 92.12 1049.98 242.52 1239.39 c 128,-1,19
 392.92 1428.8 392.92 1428.8 670.22 1428.8 c 0,20,21
 946.58 1428.8 946.58 1428.8 1096.98 1239.39 c 128,-1,22
 1247.38 1049.98 1247.38 1049.98 1247.38 700.3 c 0,11,12
EndSplineSet
EndChar

StartChar: one
Encoding: 49 49 320
Width: 1339
Flags: W
LayerCount: 2
Fore
SplineSet
225.6 250.04 m 1,0,-1
 545.2 250.04 l 1,1,-1
 545.2 1157.14 l 1,2,-1
 217.14 1089.46 l 1,3,-1
 217.14 1335.74 l 1,4,-1
 543.32 1403.42 l 1,5,-1
 887.36 1403.42 l 1,6,-1
 887.36 250.04 l 1,7,-1
 1206.96 250.04 l 1,8,-1
 1206.96 3.90625e-05 l 1,9,-1
 225.6 3.90625e-05 l 1,10,-1
 225.6 250.04 l 1,0,-1
EndSplineSet
EndChar

StartChar: two
Encoding: 50 50 321
Width: 1339
Flags: W
LayerCount: 2
Fore
SplineSet
554.6 266.02 m 1,0,-1
 1172.18 266.02 l 1,1,-1
 1172.18 -1.09863e-05 l 1,2,-1
 152.28 -1.09863e-05 l 1,3,-1
 152.28 266.02 l 1,4,-1
 664.58 718.16 l 1,5,6
 733.2 780.2 733.2 780.2 766.1 839.42 c 128,-1,7
 799 898.64 799 898.64 799 962.56 c 0,8,9
 799 1061.26 799 1061.26 732.73 1121.42 c 128,-1,10
 666.46 1181.58 666.46 1181.58 556.48 1181.58 c 0,11,12
 471.88 1181.58 471.88 1181.58 371.3 1145.39 c 128,-1,13
 270.72 1109.2 270.72 1109.2 156.04 1037.76 c 1,14,-1
 156.04 1346.08 l 1,15,16
 278.24 1386.5 278.24 1386.5 397.62 1407.65 c 128,-1,17
 517 1428.8 517 1428.8 631.68 1428.8 c 0,18,19
 883.6 1428.8 883.6 1428.8 1023.19 1317.88 c 128,-1,20
 1162.78 1206.96 1162.78 1206.96 1162.78 1008.62 c 0,21,22
 1162.78 893.94 1162.78 893.94 1103.56 794.77 c 128,-1,23
 1044.34 695.6 1044.34 695.6 854.46 529.22 c 2,24,-1
 554.6 266.02 l 1,0,-1
EndSplineSet
EndChar

StartChar: three
Encoding: 51 51 322
Width: 1339
Flags: W
LayerCount: 2
Fore
SplineSet
896.76 756.7 m 1,0,1
 1038.7 720.04 1038.7 720.04 1112.49 629.33 c 128,-1,2
 1186.28 538.62 1186.28 538.62 1186.28 398.56 c 0,3,4
 1186.28 189.88 1186.28 189.88 1026.48 81.31 c 128,-1,5
 866.68 -27.259 866.68 -27.259 560.24 -27.259 c 0,6,7
 452.14 -27.259 452.14 -27.259 343.57 -9.86927 c 128,-1,8
 235 7.52043 235 7.52043 128.78 42.3006 c 1,9,-1
 128.78 321.481 l 1,10,11
 230.3 270.721 230.3 270.721 330.41 244.871 c 128,-1,12
 430.52 219.021 430.52 219.021 527.34 219.021 c 0,13,14
 671.16 219.021 671.16 219.021 747.77 268.841 c 128,-1,15
 824.38 318.661 824.38 318.661 824.38 411.721 c 0,16,17
 824.38 507.601 824.38 507.601 745.89 556.951 c 128,-1,18
 667.4 606.301 667.4 606.301 514.18 606.301 c 2,19,-1
 369.42 606.301 l 1,20,-1
 369.42 839.421 l 1,21,-1
 521.7 839.421 l 2,22,23
 658 839.421 658 839.421 724.74 882.191 c 128,-1,24
 791.48 924.961 791.48 924.961 791.48 1012.38 c 0,25,26
 791.48 1093.22 791.48 1093.22 726.62 1137.4 c 128,-1,27
 661.76 1181.58 661.76 1181.58 543.32 1181.58 c 0,28,29
 455.9 1181.58 455.9 1181.58 366.6 1161.84 c 128,-1,30
 277.3 1142.1 277.3 1142.1 188.94 1103.56 c 1,31,-1
 188.94 1368.64 l 1,32,33
 296.1 1398.72 296.1 1398.72 401.38 1413.76 c 128,-1,34
 506.66 1428.8 506.66 1428.8 608.18 1428.8 c 0,35,36
 881.72 1428.8 881.72 1428.8 1017.55 1339.03 c 128,-1,37
 1153.38 1249.26 1153.38 1249.26 1153.38 1068.78 c 0,38,39
 1153.38 945.641 1153.38 945.641 1088.52 867.151 c 128,-1,40
 1023.66 788.661 1023.66 788.661 896.76 756.7 c 1,0,1
EndSplineSet
EndChar

StartChar: four
Encoding: 52 52 323
Width: 1339
Flags: W
LayerCount: 2
Fore
SplineSet
708.76 1105.44 m 1,0,-1
 312.08 517.94 l 1,1,-1
 708.76 517.94 l 1,2,-1
 708.76 1105.44 l 1,0,-1
648.6 1403.42 m 1,3,-1
 1050.92 1403.42 l 1,4,-1
 1050.92 517.94 l 1,5,-1
 1251.14 517.94 l 1,6,-1
 1251.14 255.68 l 1,7,-1
 1050.92 255.68 l 1,8,-1
 1050.92 6.89697e-05 l 1,9,-1
 708.76 6.89697e-05 l 1,10,-1
 708.76 255.68 l 1,11,-1
 86.4799 255.68 l 1,12,-1
 86.4799 565.88 l 1,13,-1
 648.6 1403.42 l 1,3,-1
EndSplineSet
EndChar

StartChar: five
Encoding: 53 53 324
Width: 1339
Flags: W
LayerCount: 2
Fore
SplineSet
203.98 1403.42 m 1,0,-1
 1103.56 1403.42 l 1,1,-1
 1103.56 1137.4 l 1,2,-1
 492.56 1137.4 l 1,3,-1
 492.56 920.26 l 1,4,5
 533.92 931.54 533.92 931.54 575.75 937.65 c 128,-1,6
 617.58 943.76 617.58 943.76 662.7 943.76 c 0,7,8
 919.32 943.76 919.32 943.76 1062.2 815.45 c 128,-1,9
 1205.08 687.14 1205.08 687.14 1205.08 457.78 c 0,10,11
 1205.08 230.3 1205.08 230.3 1049.51 101.52 c 128,-1,12
 893.94 -27.26 893.94 -27.26 617.58 -27.26 c 0,13,14
 498.2 -27.26 498.2 -27.26 381.17 -4.2307 c 128,-1,15
 264.14 18.7996 264.14 18.7996 148.52 65.7996 c 1,16,-1
 148.52 350.62 l 1,17,18
 263.2 284.82 263.2 284.82 366.13 251.92 c 128,-1,19
 469.06 219.02 469.06 219.02 560.24 219.02 c 0,20,21
 691.84 219.02 691.84 219.02 767.51 283.41 c 128,-1,22
 843.18 347.8 843.18 347.8 843.18 457.78 c 0,23,24
 843.18 568.7 843.18 568.7 767.51 632.62 c 128,-1,25
 691.84 696.54 691.84 696.54 560.24 696.54 c 0,26,27
 482.22 696.54 482.22 696.54 393.86 676.33 c 128,-1,28
 305.5 656.12 305.5 656.12 203.98 613.82 c 1,29,-1
 203.98 1403.42 l 1,0,-1
EndSplineSet
EndChar

StartChar: six
Encoding: 54 54 325
Width: 1339
Flags: W
LayerCount: 2
Fore
SplineSet
696.54 692.78 m 0,0,1
 601.6 692.78 601.6 692.78 554.13 631.21 c 128,-1,2
 506.66 569.64 506.66 569.64 506.66 446.5 c 128,-1,3
 506.66 323.36 506.66 323.36 554.13 261.79 c 128,-1,4
 601.6 200.22 601.6 200.22 696.54 200.22 c 0,5,6
 792.42 200.22 792.42 200.22 839.89 261.79 c 128,-1,7
 887.36 323.36 887.36 323.36 887.36 446.5 c 128,-1,8
 887.36 569.64 887.36 569.64 839.89 631.21 c 128,-1,9
 792.42 692.78 792.42 692.78 696.54 692.78 c 0,0,1
1143.98 1366.76 m 1,10,-1
 1143.98 1107.32 l 1,11,12
 1054.68 1149.62 1054.68 1149.62 975.72 1169.83 c 128,-1,13
 896.76 1190.04 896.76 1190.04 821.56 1190.04 c 0,14,15
 659.88 1190.04 659.88 1190.04 569.64 1100.27 c 128,-1,16
 479.4 1010.5 479.4 1010.5 464.36 833.78 c 1,17,18
 526.4 879.84 526.4 879.84 598.78 902.87 c 128,-1,19
 671.16 925.9 671.16 925.9 756.7 925.9 c 0,20,21
 971.96 925.9 971.96 925.9 1104.03 799.94 c 128,-1,22
 1236.1 673.98 1236.1 673.98 1236.1 470 c 0,23,24
 1236.1 244.4 1236.1 244.4 1088.52 108.57 c 128,-1,25
 940.94 -27.2598 940.94 -27.2598 692.78 -27.2598 c 0,26,27
 419.24 -27.2598 419.24 -27.2598 269.31 157.45 c 128,-1,28
 119.38 342.16 119.38 342.16 119.38 681.5 c 0,29,30
 119.38 1029.3 119.38 1029.3 294.69 1228.11 c 128,-1,31
 470 1426.92 470 1426.92 775.5 1426.92 c 0,32,33
 872.32 1426.92 872.32 1426.92 963.5 1411.88 c 128,-1,34
 1054.68 1396.84 1054.68 1396.84 1143.98 1366.76 c 1,10,-1
EndSplineSet
EndChar

StartChar: seven
Encoding: 55 55 326
Width: 1339
Flags: W
LayerCount: 2
Fore
SplineSet
128.78 1403.42 m 1,0,-1
 1186.28 1403.42 l 1,1,-1
 1186.28 1199.44 l 1,2,-1
 639.2 6.34766e-05 l 1,3,-1
 286.7 6.34766e-05 l 1,4,-1
 804.64 1137.4 l 1,5,-1
 128.78 1137.4 l 1,6,-1
 128.78 1403.42 l 1,0,-1
EndSplineSet
EndChar

StartChar: eight
Encoding: 56 56 327
Width: 1339
Flags: W
LayerCount: 2
Fore
SplineSet
670.22 627.92 m 0,0,1
 568.7 627.92 568.7 627.92 514.18 572.46 c 128,-1,2
 459.66 517 459.66 517 459.66 413.6 c 128,-1,3
 459.66 310.2 459.66 310.2 514.18 255.21 c 128,-1,4
 568.7 200.22 568.7 200.22 670.22 200.22 c 0,5,6
 770.8 200.22 770.8 200.22 824.38 255.21 c 128,-1,7
 877.96 310.2 877.96 310.2 877.96 413.6 c 0,8,9
 877.96 517.94 877.96 517.94 824.38 572.93 c 128,-1,10
 770.8 627.92 770.8 627.92 670.22 627.92 c 0,0,1
406.08 747.3 m 1,11,12
 278.24 785.84 278.24 785.84 213.38 865.74 c 128,-1,13
 148.52 945.64 148.52 945.64 148.52 1065.02 c 0,14,15
 148.52 1242.68 148.52 1242.68 281.06 1335.74 c 128,-1,16
 413.6 1428.8 413.6 1428.8 670.22 1428.8 c 0,17,18
 924.96 1428.8 924.96 1428.8 1057.5 1336.21 c 128,-1,19
 1190.04 1243.62 1190.04 1243.62 1190.04 1065.02 c 0,20,21
 1190.04 945.64 1190.04 945.64 1124.71 865.74 c 128,-1,22
 1059.38 785.84 1059.38 785.84 931.54 747.3 c 1,23,24
 1074.42 707.82 1074.42 707.82 1147.27 618.99 c 128,-1,25
 1220.12 530.16 1220.12 530.16 1220.12 394.8 c 0,26,27
 1220.12 186.12 1220.12 186.12 1081.47 79.43 c 128,-1,28
 942.82 -27.259 942.82 -27.259 670.22 -27.259 c 0,29,30
 396.68 -27.259 396.68 -27.259 257.09 79.43 c 128,-1,31
 117.5 186.12 117.5 186.12 117.5 394.8 c 0,32,33
 117.5 530.16 117.5 530.16 190.35 618.99 c 128,-1,34
 263.2 707.82 263.2 707.82 406.08 747.3 c 1,11,12
490.68 1028.36 m 0,35,36
 490.68 944.7 490.68 944.7 537.21 899.58 c 128,-1,37
 583.74 854.46 583.74 854.46 670.22 854.46 c 0,38,39
 754.82 854.46 754.82 854.46 800.88 899.58 c 128,-1,40
 846.94 944.7 846.94 944.7 846.94 1028.36 c 128,-1,41
 846.94 1112.02 846.94 1112.02 800.88 1156.67 c 128,-1,42
 754.82 1201.32 754.82 1201.32 670.22 1201.32 c 0,43,44
 583.74 1201.32 583.74 1201.32 537.21 1156.2 c 128,-1,45
 490.68 1111.08 490.68 1111.08 490.68 1028.36 c 0,35,36
EndSplineSet
EndChar

StartChar: nine
Encoding: 57 57 328
Width: 1339
Flags: W
LayerCount: 2
Fore
SplineSet
192.7 31.0195 m 1,0,-1
 192.7 290.46 l 1,1,2
 279.18 250.04 279.18 250.04 358.14 229.829 c 128,-1,3
 437.1 209.618 437.1 209.618 514.18 209.618 c 0,4,5
 675.86 209.618 675.86 209.618 766.1 299.388 c 128,-1,6
 856.34 389.158 856.34 389.158 872.32 565.88 c 1,7,8
 808.4 518.88 808.4 518.88 736.02 495.38 c 128,-1,9
 663.64 471.88 663.64 471.88 579.04 471.88 c 0,10,11
 363.78 471.88 363.78 471.88 231.71 597.37 c 128,-1,12
 99.64 722.859 99.64 722.859 99.64 927.779 c 0,13,14
 99.64 1154.32 99.64 1154.32 246.75 1290.62 c 128,-1,15
 393.86 1426.92 393.86 1426.92 641.08 1426.92 c 0,16,17
 915.56 1426.92 915.56 1426.92 1065.96 1241.74 c 128,-1,18
 1216.36 1056.56 1216.36 1056.56 1216.36 718.159 c 0,19,20
 1216.36 370.359 1216.36 370.359 1040.58 171.549 c 128,-1,21
 864.8 -27.2605 864.8 -27.2605 558.36 -27.2605 c 0,22,23
 459.66 -27.2605 459.66 -27.2605 369.42 -12.6911 c 128,-1,24
 279.18 1.87921 279.18 1.87921 192.7 31.0188 c 1,25,-1
 192.7 31.0195 l 1,0,-1
639.2 706.88 m 128,-1,27
 734.14 706.88 734.14 706.88 782.08 768.45 c 128,-1,28
 830.02 830.02 830.02 830.02 830.02 953.16 c 0,29,30
 830.02 1075.36 830.02 1075.36 782.08 1137.4 c 128,-1,31
 734.14 1199.44 734.14 1199.44 639.2 1199.44 c 128,-1,32
 544.26 1199.44 544.26 1199.44 496.32 1137.4 c 128,-1,33
 448.38 1075.36 448.38 1075.36 448.38 953.16 c 0,34,35
 448.38 830.02 448.38 830.02 496.32 768.45 c 128,-1,26
 544.26 706.88 544.26 706.88 639.2 706.88 c 128,-1,27
EndSplineSet
EndChar

StartChar: uniFEFC
Encoding: 65276 65276 335
Width: 1173
VWidth: 2237
Flags: W
AnchorPoint: "Anchor-9" 202.5 1541.5 baselig 1
AnchorPoint: "Anchor-6" 195 -166 baselig 1
AnchorPoint: "Anchor-6" 832.69 -112.5 baselig 0
AnchorPoint: "Anchor-9" 846.69 1497 baselig 0
LayerCount: 2
Fore
SplineSet
112.06 1302.96 m 1,0,-1
 380.94 1302.96 l 1,1,-1
 380.94 319.5 l 1,2,-1
 112.06 319.5 l 1,3,-1
 112.06 1302.96 l 1,0,-1
40.5996 280.979 m 1,4,-1
 570.85 280.98 l 2,5,6
 631.617 280.98 631.617 280.98 659.953 319.149 c 128,-1,7
 688.29 357.318 688.29 357.318 688.29 457.31 c 2,8,-1
 688.29 1302.96 l 1,9,-1
 957.17 1302.96 l 1,10,-1
 957.17 456.31 l 2,11,12
 957.17 360.707 957.17 360.707 996.004 320.843 c 128,-1,13
 1034.84 280.979 1034.84 280.979 1126.61 280.979 c 2,14,-1
 1244.86 280.979 l 1,15,-1
 1244.86 0 l 1,16,-1
 1067.76 0 l 2,17,18
 921.018 0 921.018 0 823.068 85.2109 c 1,19,20
 727.183 -0 727.183 -0 585.7 0 c 2,21,-1
 40.5996 0 l 1,22,-1
 40.5996 280.979 l 1,4,-1
EndSplineSet
LCarets2: 1 0 
Ligature2: "'rlig' Required Ligatures in Arabic lookup 16 subtable" uniFEE0 uniFE8E
EndChar
